<svg width="22" height="49" viewBox="0 0 22 49" xmlns="http://www.w3.org/2000/svg"><title>gulp</title><g fill="#BBBDBF" fill-rule="evenodd"><path d="M21.534 13.781c-.2 1.756-.39 3.457-.586 5.156-.236 2.04-.512 4.076-.7 6.122-.07.763-.338 1.322-.964 1.756-.462.32-.88.702-1.41.966.385-.505.799-.992 1.151-1.518.361-.542.759-1.127.217-1.774-.408-.485-1.15-.443-1.931.063-.153.097-.302.203-.451.302-.63-.696-.993-.615-1.374.294-.545 1.3-1.195 2-2.494 2.597.083-.337.114-.6.21-.835.675-1.662 1.362-3.32 2.045-4.98.07-.17.212-.342.198-.502-.027-.323-.137-.638-.212-.954-.318.152-.802.223-.924.47-.471.955-.828 1.963-1.223 2.954-.386.966-.728 1.95-1.16 2.895-.196.43-.56.783-.847 1.17l-.314-.14c.06-.328.075-.673.184-.984.193-.564.515-1.094.642-1.668.063-.295-.182-.654-.288-.985-.269.19-.636.321-.79.579-.398.666-.647 1.423-1.065 2.072-.253.396-.712.662-1.077.985-.083-.06-.167-.12-.253-.179.096-.361.153-.739.292-1.082.206-.503.516-.97.687-1.484.078-.233.01-.692-.143-.78-.197-.109-.748-.027-.803.11-.514 1.263-1.048 2.534-1.374 3.851-.147.597.487.999 1.107.88.591-.117 1.146-.421 1.733-.646.473.838.683.872 2.033.21.746.829 1.52.388 2.486-.18-.343.76-.604 1.324-.849 1.894-.124.286-.29.58-.303.877-.013.27.152.548.24.824.316-.116.714-.15.926-.365.239-.242.304-.65.45-.98.561-1.26 1.077-2.538 1.703-3.762.347-.68.859-1.29 1.909-1.588-.316.451-.504.74-.712 1.011-.267.354-.565.684-.822 1.044-.291.412-.63.944-.169 1.323.316.26.957.376 1.346.246.693-.234 1.307-.703 2.02-1.113-.116 1.157-.217 2.304-.348 3.447-.167 1.445-.404 2.885-.52 4.334-.071.889-.51 1.425-1.303 1.646-1.077.3-2.167.599-3.273.743-3.499.453-6.99.39-10.417-.522-1.732-.46-1.801-.627-1.968-2.407-.173-1.837-.373-3.672-.559-5.51-.012-.12-.002-.247-.002-.155l2.798-1.198c-.102.384-.302.895-.347 1.42-.022.269.233.56.363.84.237-.171.565-.293.69-.525.215-.408.307-.88.45-1.325l1.028-3.189c.087-.272.218-.54.25-.818.058-.463.316-1.084-.38-1.242-.615-.138-.766.428-.884.883-.346 1.354-1.172 2.363-2.286 3.154-.21.148-.583.282-.766.193-.184-.09-.327-.48-.306-.723.193-2.297 1.138-4.25 2.895-5.764.596-.514.957-.392 1.415.272.241.349.406.872 1 .598.405-.188.426-.872.075-1.392-.685-1.013-1.77-1.317-2.877-.761-1.532.769-2.368 2.15-3.108 3.603-.126.251-.238.51-.493.757C.669 20.855.337 17.419 0 13.919c7.224 1.748 14.332 1.862 21.533-.138"/><path d="M3.01 37.805c5.068 1.27 10.03 1.335 14.992-.008.006.02.047.083.03.103-1.009 1.196-1.088 2.635-1.137 4.102a83.952 83.952 0 0 1-.284 4.586c-.026.304-.253.69-.505.857-3.434 2.243-7.665 1.887-11.046-.102-.229-.134-.39-.538-.416-.83-.163-1.81-.3-3.625-.4-5.438-.05-.928-.194-1.799-.805-2.542-.16-.192-.257-.432-.428-.728M11.508 12.84c.644.635 2.009.62 2.52 0h-2.52zM.044 12.588c.555-.178 1.097-.418 1.666-.527 3.091-.595 6.22-.719 9.356-.652.744.016 1.166-.15 1.282-.946.092-.64.38-1.25.467-1.89.226-1.65 1.056-2.913 2.251-4.047 1.43-1.36 2.751-2.834 4.16-4.3l1.352.985c-.31.361-.569.676-.842.98-.732.812-1.395 1.71-2.225 2.408-1.98 1.666-2.702 3.93-3.248 6.303-.029.123-.027.253-.043.444 2.484.416 5.084.187 7.418 1.26.015.1.03.202.047.301-.393.205-.764.512-1.182.597-1.966.398-3.93.873-5.918 1.063-4.099.394-8.189.21-12.218-.722-.806-.187-1.574-.542-2.36-.82l.037-.437z"/></g></svg>