<svg width="84" height="37" viewBox="0 0 84 37" xmlns="http://www.w3.org/2000/svg"><title>less</title><g fill="#BBBDBF" fill-rule="evenodd"><path d="M66.682 17.861c3.099 1.085 4.648 2.942 4.648 5.57 0 1.73-.642 3.104-1.924 4.12-1.28 1.016-3.108 1.646-5.485 1.646-2.378 0-4.577-.689-6.603-1.82.022-.6.18-1.257.471-1.972.291-.714.636-1.282 1.03-1.696 1.862.967 3.482 1.452 4.857 1.452.65 0 1.153-.11 1.503-.329.35-.219.525-.512.525-.882 0-.693-.537-1.212-1.608-1.558l-1.924-.727c-2.911-1.06-4.367-2.79-4.367-5.19 0-1.754.612-3.143 1.834-4.171 1.223-1.027 2.872-1.91 4.944-1.91 1.025 0 2.154.143 3.39.432 1.233.289 2.247 1 3.039 1.391.046.647-.083 1.356-.385 2.129-.303.773-.675 1.32-1.119 1.644-1.958-.877-3.587-1.315-4.892-1.315-.467 0-.82.103-1.066.312a.996.996 0 0 0-.365.796c0 .554.442.991 1.328 1.315l2.169.763zM51.204 17.861c3.099 1.085 4.647 2.942 4.647 5.57 0 1.73-.643 3.104-1.922 4.12-1.282 1.016-3.11 1.646-5.487 1.646-2.375 0-4.578-.689-6.603-1.82.022-.6.18-1.257.472-1.972.291-.714.634-1.282 1.03-1.696 1.864.967 3.484 1.452 4.858 1.452.65 0 1.154-.11 1.502-.329.35-.219.525-.512.525-.882 0-.693-.537-1.212-1.608-1.558l-1.923-.727c-2.912-1.06-4.368-2.79-4.368-5.19 0-1.754.612-3.143 1.836-4.171 1.222-1.027 2.87-1.91 4.942-1.91 1.025 0 2.156.143 3.389.432 1.235.289 2.247 1 3.04 1.391.046.647-.083 1.356-.385 2.129-.302.773-.675 1.32-1.118 1.644-1.959-.877-3.588-1.315-4.894-1.315-.466 0-.82.103-1.065.312a1 1 0 0 0-.365.796c0 .554.442.991 1.328 1.315l2.169.763zM39.916 18.106c0-1.061-.169-2.042-.507-2.942a6.596 6.596 0 0 0-1.449-2.319 6.718 6.718 0 0 0-2.288-1.523c-.897-.368-1.905-.924-3.023-.924-1.328 0-2.487.601-3.476 1.063-.99.461-1.805 1.095-2.445 1.903-.642.808-1.12 1.76-1.434 2.855-.314 1.096-.471 2.29-.471 3.582 0 1.336.127 2.573.384 3.703.256 1.129.693 2.109 1.31 2.94.618.83 1.421 1.477 2.411 1.937.99.461 2.22.815 3.687.815 2.702 0 4.984-.782 6.848-2.096-.185-1.337-.661-2.4-1.426-3.184-.952.357-1.794.613-2.524.77-.731.156-1.375.234-1.932.234-1.114 0-1.915-.284-2.402-.856-.486-.57-.752-1.245-.8-2.27h9.085c.3-.97.452-2.28.452-3.688zm-9.571.24c.07-1.178.284-2.438.642-2.957.358-.52.906-.779 1.647-.779.762 0 1.334.276 1.715.83.382.554.572 1.67.572 2.523l.001.382h-4.577zM80.914 20.648c-.987.862-1.56 2.103-1.56 3.726v6.045c0 2.009-.618 3.537-2.013 4.588-1.394 1.049-3.018 1.568-4.873 1.619l-1.1-.009v-3.012c.97-.282 1.367-.61 1.753-.984.699-.632 1.234-1.659 1.234-3.086v-4.88c.026-1.658.153-2.958.757-3.896.606-.94 1.786-1.76 3.54-2.469-1.937-.886-3.238-2.044-3.9-3.472-.39-.848-.398-1.993-.398-3.433V6.911c0-1.479-.484-2.514-1.079-3.105-.387-.386-.837-.694-1.908-.926V.052c1.31.014 1.971 0 2.734 0 1.175-.01 2.16.633 3.016 1.302.932.734 1.595 1.725 1.984 2.974.22.72.252 1.41.252 2.066v5.175c0 1.828.54 3.187 1.463 4.074.52.515 1.255.986 2.515 1.41v2.339c-1.117.309-1.818.727-2.417 1.256zM11.425.054v.004l-.987-.003c-1.175-.01-2.16.632-3.015 1.302-.934.734-1.733 1.69-1.984 2.973-.142.753-.112 1.41-.112 2.067v5.175c0 1.828-.68 3.186-1.603 4.074-.52.515-1.628.985-2.89 1.41v2.338c1.118.308 2.195.725 2.791 1.255.989.863 1.7 2.105 1.7 3.728v6.044c0 2.008.48 3.538 1.874 4.587 1.393 1.049 3.018 1.57 4.872 1.62l1.242-.007v-3.014c-.968-.284-1.506-.613-1.894-.984-.698-.633-1.093-1.66-1.093-3.085v-4.88c-.027-1.66-.295-2.959-.9-3.898-.604-.938-1.783-1.76-3.539-2.468 1.938-.887 3.237-2.044 3.9-3.472.39-.848.539-1.993.539-3.433V6.912c0-1.478.343-2.513.937-3.105.323-.32.896-.585 1.693-.8l1.26.01V.054h-2.791zM23.04 24.575h-.943c-1.026 0-1.412-.539-1.412-1.622V3.039c0-1.197-.346-2.038-.788-2.522-.443-.484-1.212-.479-2.306-.479h-2.13l-.252-.005v.02l-.002 2.965v20.898c0 1.662.373 2.878 1.037 3.652.665.773 1.789 1.158 3.373 1.158 1.095 0 2.341-.115 3.738-.346.07-.233.105-.733.105-1.5 0-.768-.14-1.535-.42-2.305z"/></g></svg>