<svg width="57" height="51" viewBox="0 0 57 51" xmlns="http://www.w3.org/2000/svg"><title>sketch</title><g stroke-width="2" stroke="#BBBDBF" fill="none" fill-rule="evenodd" stroke-linecap="round" stroke-linejoin="round"><path d="M28.107 23.025L11 23l17.068 26.854"/><path d="M28.356 1.014L18.47 1 9 5.182l2.218 17.856 26.72-13.424"/><path d="M27.594 10.014L18 10l26.712 13.502"/><path d="M28.04 23l17.106.025L28 49.829"/><path d="M37.658 9.432l17.457 4.416-7.695-8.792-9.762 4.376 7.492 13.474 9.965-9.058-27.11 35.863L1 13.769l9.938 9.088 7.531-13.452L8.72 5 1 13.769l17.47-4.364"/><path d="M27.606 1l9.887.014 9.457 4.209-2.27 17.85L18 9.571"/><path d="M28.157 10l9.594.014L11 23.439"/></g></svg>