<svg width="50" height="51" viewBox="0 0 50 51" xmlns="http://www.w3.org/2000/svg"><title>bootstrap</title><g fill="#BBBDBF" fill-rule="evenodd"><path d="M15.342 12.16v26.91c4.435 0 8.723.037 13.008-.012 3.47-.043 6.357-2.312 7.203-5.541.95-3.626-.268-6.395-3.666-8.345-.183-.104-.328-.287-.506-.449 2.901-2.277 3.829-4.65 2.983-7.572-.893-3.085-3.218-4.717-6.192-4.92-4.2-.286-8.435-.072-12.83-.072M.249 25.404c0-5.547-.02-11.094.006-16.641C.28 3.95 3.351.9 8.205.892 19.286.875 30.367.875 41.448.898c5.185.011 8.223 3.05 8.229 8.209.014 10.903.014 21.806 0 32.71-.006 5.234-3.073 8.27-8.38 8.28-10.953.021-21.906.021-32.859 0C3.27 50.09.247 47.018.247 41.855c0-5.483 0-10.967.002-16.45"/><path d="M19.163 26.835c2.83 0 5.45-.07 8.066.017 3.096.104 4.782 1.797 4.75 4.575-.035 2.78-1.75 4.367-4.875 4.416-2.607.04-5.215.008-7.941.008v-9.016zM19.197 15.186c2.959.167 5.82.173 8.627.546 2.05.272 3.032 1.786 3.009 3.794-.026 1.933-.974 3.394-2.948 3.66-2.813.385-5.68.397-8.688.58v-8.58z"/></g></svg>