<svg width="64" height="46" viewBox="0 0 64 46" xmlns="http://www.w3.org/2000/svg"><title>Chris Amador Logo</title><path d="M31.605 5.486c1.192 1.732 3.46-.647 2.636-2.425-.824-1.786-4.588-.458-2.645 2.43l.009-.005zm21.417 38.818c3.501.924 3.46-3.717.823-3.394-2.635.326-2.653 2.925-.828 3.387l.005.007zm10.872-31.362C62.906 2.083 53.747-3.546 48.25 2.432c-7.265 7.891-4.777 27.323-15.815 32.8C21.397 40.727 9.042 34.1 9.042 24.077c0-10.024 7.743-14.712 10.214-15.52 2.472-.809 6.458-.992 7.248-2.263.79-1.272.989-5.012-7.578-4.365-4.073.307-12.87 4.414-16.639 11.963-4.159 8.33-2.757 20.443 5.12 26.333 14.363 10.857 27.66 4.042 32.618-1.293 4.942-5.335 7.413-13.095 12.52-12.125 5.107.982 1 7.45 3.119 8.431 2.136.974 9.24-11.442 8.24-22.298l-.01.002zm-11.177 9.922c-5.057 1.732.225-12.114 3.025-8.682 2.8 3.436-.077 7.651-3.02 8.69l-.005-.008z" fill="#951d1d"/></svg>