<svg width="107" height="107" viewBox="0 0 107 107" xmlns="http://www.w3.org/2000/svg"><title>Group 12</title><g fill="none" fill-rule="evenodd"><path d="M52.73 10.01c1.99 2.93 5.772-1.095 4.397-4.103-1.374-3.021-7.652-.774-4.412 4.11l.015-.008zm35.726 65.666c5.84 1.563 5.77-6.29 1.373-5.742-4.396.552-4.425 4.948-1.382 5.73l.009.012zm18.135-53.053C104.942 4.253 89.665-5.27 80.495 4.84c-12.118 13.351-7.969 46.222-26.38 55.487-18.411 9.297-39.021-1.914-39.021-18.87S28.01 16.572 32.132 15.205c4.122-1.368 10.772-1.678 12.09-3.83 1.317-2.15 1.649-8.478-12.64-7.383-6.795.52-21.469 7.468-27.756 20.238-6.937 14.09-4.599 34.581 8.54 44.545 23.959 18.366 46.138 6.838 54.41-2.187C75.02 57.564 79.14 44.435 87.66 46.077c8.52 1.66 1.668 12.601 5.202 14.262 3.563 1.648 15.414-19.355 13.745-37.72l-.016.004zM87.946 39.406c-8.435 2.931.376-20.493 5.047-14.687 4.671 5.812-.129 12.944-5.037 14.702l-.01-.015z" fill="#951D1D"/><path d="M15.077 106V95.512h3.227c.922 0 1.747.208 2.475.623a4.345 4.345 0 0 1 1.703 1.772c.408.766.612 1.637.612 2.611v.483c0 .975-.2 1.842-.601 2.6a4.307 4.307 0 0 1-1.696 1.765c-.73.418-1.554.63-2.471.634h-3.249zm2.161-8.737v7.001h1.045c.845 0 1.49-.276 1.937-.828.447-.553.675-1.342.685-2.37v-.555c0-1.066-.221-1.874-.663-2.424-.442-.55-1.088-.824-1.938-.824h-1.066zm18.737 4.192h-4.15v2.81h4.87V106h-7.03V95.512h7.015v1.75h-4.854v2.5h4.149v1.693zm12.426 1.793c0-.408-.144-.721-.432-.94-.288-.218-.807-.449-1.556-.691-.75-.243-1.342-.481-1.78-.717-1.19-.643-1.786-1.51-1.786-2.6 0-.567.16-1.072.48-1.516.319-.445.777-.791 1.375-1.041.598-.25 1.27-.375 2.013-.375.75 0 1.417.136 2.003.407.586.272 1.04.655 1.365 1.15.324.494.486 1.056.486 1.685h-2.16c0-.48-.152-.854-.455-1.12-.302-.267-.727-.4-1.275-.4-.528 0-.938.111-1.231.335-.293.223-.44.517-.44.882 0 .341.172.627.515.857.344.23.85.447 1.517.649 1.229.37 2.124.828 2.686 1.375.562.548.843 1.23.843 2.046 0 .908-.343 1.62-1.03 2.136s-1.611.774-2.773.774c-.807 0-1.542-.148-2.204-.443-.663-.295-1.168-.7-1.517-1.214-.348-.513-.522-1.109-.522-1.786h2.168c0 1.157.692 1.736 2.075 1.736.514 0 .915-.105 1.203-.313.288-.21.432-.501.432-.876zM59.329 106h-2.16V95.512h2.16V106zm15.3-1.325c-.389.465-.938.827-1.65 1.084-.71.257-1.497.385-2.362.385-.907 0-1.703-.198-2.387-.594-.685-.396-1.213-.971-1.585-1.725-.372-.754-.563-1.64-.573-2.658v-.713c0-1.047.177-1.954.53-2.72.353-.765.862-1.351 1.527-1.757.665-.406 1.444-.609 2.337-.609 1.244 0 2.216.297 2.917.89.701.593 1.117 1.456 1.246 2.59h-2.103c-.096-.6-.308-1.04-.637-1.319-.33-.278-.782-.418-1.358-.418-.735 0-1.294.277-1.678.829-.385.552-.58 1.373-.584 2.463v.67c0 1.1.209 1.93.627 2.492.418.562 1.03.843 1.837.843.811 0 1.39-.173 1.736-.518v-1.808h-1.967v-1.592h4.127v4.185zM89.91 106h-2.162l-4.206-6.9v6.9H81.38V95.512h2.16l4.214 6.915v-6.915h2.154V106z" fill="#B6B6B6"/></g></svg>