<svg width="18" height="23" viewBox="0 0 18 23" xmlns="http://www.w3.org/2000/svg"><title>pinterest</title><path d="M0 8.424C0 7.46.167 6.551.502 5.7a6.99 6.99 0 0 1 1.386-2.23A9.406 9.406 0 0 1 3.924 1.82 9.353 9.353 0 0 1 6.402.777 10.606 10.606 0 0 1 9.107.429c1.41 0 2.723.296 3.938.89a7.436 7.436 0 0 1 2.96 2.592c.758 1.134 1.138 2.415 1.138 3.843 0 .858-.085 1.697-.255 2.518-.17.822-.437 1.612-.803 2.37a8.26 8.26 0 0 1-1.34 2.003 5.81 5.81 0 0 1-1.941 1.38c-.768.343-1.612.515-2.532.515a4.16 4.16 0 0 1-1.808-.428c-.598-.286-1.027-.679-1.285-1.179-.09.348-.215.85-.375 1.507-.161.656-.266 1.08-.315 1.272-.05.192-.14.509-.275.95-.134.443-.25.76-.348.952l-.428.837a9.49 9.49 0 0 1-.617 1.038c-.223.326-.5.712-.83 1.158l-.187.067-.121-.134c-.134-1.401-.2-2.24-.2-2.517 0-.822.095-1.744.287-2.766.192-1.022.489-2.306.89-3.85.402-1.545.635-2.451.697-2.72-.286-.58-.428-1.334-.428-2.263 0-.74.232-1.437.696-2.089.464-.652 1.054-.978 1.768-.978.545 0 .969.181 1.272.543.304.361.456.819.456 1.372 0 .59-.197 1.442-.59 2.559-.393 1.116-.589 1.95-.589 2.504 0 .563.2 1.029.603 1.4.401.37.888.555 1.46.555.49 0 .946-.111 1.366-.334a3.08 3.08 0 0 0 1.05-.911c.282-.384.532-.808.75-1.273.22-.464.39-.957.51-1.48.12-.522.21-1.017.268-1.486.058-.469.087-.913.087-1.333 0-1.544-.49-2.747-1.467-3.609-.977-.862-2.252-1.292-3.823-1.292-1.786 0-3.277.578-4.474 1.734-1.196 1.156-1.794 2.623-1.794 4.4 0 .392.055.772.167 1.138.112.366.232.656.362.87.13.215.25.418.361.61.112.192.168.328.168.408 0 .25-.067.576-.201.978s-.3.603-.496.603c-.018 0-.093-.014-.227-.04a2.74 2.74 0 0 1-1.212-.75 3.905 3.905 0 0 1-.817-1.266A8.252 8.252 0 0 1 .147 9.85 7.2 7.2 0 0 1 0 8.424z" fill="#B7AE9D" fill-rule="evenodd"/></svg>