<?xml version="1.0" encoding="UTF-8" standalone="no"?>
<svg width="24px" height="25px" viewBox="0 0 24 25" version="1.1" xmlns="http://www.w3.org/2000/svg" xmlns:xlink="http://www.w3.org/1999/xlink">
    <!-- Generator: Sketch 39.1 (31720) - http://www.bohemiancoding.com/sketch -->
    <title>codepen</title>
    <desc>Created with Sketch.</desc>
    <defs></defs>
    <g id="Page-1" stroke="none" stroke-width="1" fill="none" fill-rule="evenodd">
        <g id="About-+-Contact" transform="translate(-1126.000000, -599.000000)" fill="#B7AE9D">
            <path d="M1128.89286,615.084821 L1136.96875,620.46875 L1136.96875,615.660714 L1132.49554,612.674107 L1128.89286,615.084821 Z M1128.0625,613.15625 L1130.64732,611.428571 L1128.0625,609.700893 L1128.0625,613.15625 Z M1139.03125,620.46875 L1147.10714,615.084821 L1143.50446,612.674107 L1139.03125,615.660714 L1139.03125,620.46875 Z M1138,613.866071 L1141.64286,611.428571 L1138,608.991071 L1134.35714,611.428571 L1138,613.866071 Z M1132.49554,610.183036 L1136.96875,607.196429 L1136.96875,602.388393 L1128.89286,607.772321 L1132.49554,610.183036 Z M1145.35268,611.428571 L1147.9375,613.15625 L1147.9375,609.700893 L1145.35268,611.428571 Z M1143.50446,610.183036 L1147.10714,607.772321 L1139.03125,602.388393 L1139.03125,607.196429 L1143.50446,610.183036 Z M1150,607.772321 L1150,615.084821 C1150,615.450895 1149.84822,615.736606 1149.54464,615.941964 L1138.57589,623.254464 C1138.38839,623.370536 1138.19643,623.428571 1138,623.428571 C1137.80357,623.428571 1137.61161,623.370536 1137.42411,623.254464 L1126.45536,615.941964 C1126.15178,615.736606 1126,615.450895 1126,615.084821 L1126,607.772321 C1126,607.406248 1126.15178,607.120537 1126.45536,606.915179 L1137.42411,599.602679 C1137.61161,599.486607 1137.80357,599.428571 1138,599.428571 C1138.19643,599.428571 1138.38839,599.486607 1138.57589,599.602679 L1149.54464,606.915179 C1149.84822,607.120537 1150,607.406248 1150,607.772321 L1150,607.772321 Z" id="codepen"></path>
        </g>
    </g>
</svg>