<?xml version="1.0" encoding="UTF-8" standalone="no"?>
<svg width="36px" height="50px" viewBox="0 0 36 50" version="1.1" xmlns="http://www.w3.org/2000/svg" xmlns:xlink="http://www.w3.org/1999/xlink">
    <!-- Generator: Sketch 39.1 (31720) - http://www.bohemiancoding.com/sketch -->
    <title>css3</title>
    <desc>Created with Sketch.</desc>
    <defs></defs>
    <g id="Page-1" stroke="none" stroke-width="1" fill="none" fill-rule="evenodd">
        <g id="css3" transform="translate(0.548554, 0.000000)">
            <path d="M27.6916865,1.84631829 L24.75962,1.84631829 L27.8087886,5.15498812 L27.8087886,6.72992874 L21.528266,6.72992874 L21.528266,4.88598575 L24.5768409,4.88598575 L21.528266,1.57719715 L21.528266,0 L27.6916865,0 L27.6916865,1.84631829 L27.6916865,1.84631829 L27.6916865,1.84631829 Z M20.2833729,1.84631829 L17.3513064,1.84631829 L20.4003563,5.15498812 L20.4003563,6.72992874 L14.1198337,6.72992874 L14.1198337,4.88598575 L17.1687648,4.88598575 L14.1198337,1.57719715 L14.1198337,0 L20.2833729,0 L20.2833729,1.84631829 L20.2833729,1.84631829 L20.2833729,1.84631829 Z M12.9475059,1.92125891 L9.78361045,1.92125891 L9.78361045,4.8087886 L12.9475059,4.8087886 L12.9475059,6.72992874 L7.53491686,6.72992874 L7.53491686,0 L12.9475059,0 L12.9475059,1.92125891 L12.9475059,1.92125891 L12.9475059,1.92125891 Z" id="Shape" fill="#BBBDBF"></path>
            <polygon id="Shape" fill="#BBBDBF" points="3.21508314 45.9008314 0 9.84144893 35.3266033 9.84144893 32.1085511 45.8950119 17.6416865 49.9057007"></polygon>
            <path d="M17.7216746,17.2048694 L17.7293349,17.2048694 L28.8036817,17.2048694 L28.6976247,18.3914489 L27.6273822,30.3914489 L27.6106888,30.5786223 L27.6127872,30.5550941 L26.858076,38.9869359 L26.7915677,39.7339667 L17.7404988,42.2425471 L17.7404988,42.2432304 L17.7200713,42.2489311 L8.66092637,39.7339667 L8.04144893,32.7901425 L10.0875297,32.7901425 L12.4807601,32.7901425 L12.7957245,36.3172209 L17.7211401,37.6472684 L17.7251781,37.6461288 L17.7251781,37.6456057 L22.6577197,36.3142518 L23.1734318,30.5786223 L17.7140143,30.5786223 L17.7140143,26.1562945 L23.566152,26.1562945 L23.9703088,21.6275534 L17.7216746,21.6275534 L7.06092637,21.6275534 L7.04679335,21.6275534 L6.95807601,20.6334917 L6.75653207,18.3914489 L6.65083135,17.2048694 L17.7216746,17.2048694 Z M17.7140143,26.1567696 L17.7140143,28.9036817 L17.7140143,30.5684086 L17.7140143,30.5793349 L12.8650831,30.5793349 L12.8509501,30.5793349 L12.7623515,29.5853919 L12.5606888,27.3433492 L12.4549881,26.1567696 L17.7140143,26.1567696 Z" id="Combined-Shape" fill="#FFFFFF"></path>
        </g>
    </g>
</svg>