<?xml version="1.0" encoding="UTF-8" standalone="no"?>
<svg width="396px" height="449px" viewBox="0 0 396 449" version="1.1" xmlns="http://www.w3.org/2000/svg" xmlns:xlink="http://www.w3.org/1999/xlink">
    <!-- Generator: Sketch 39.1 (31720) - http://www.bohemiancoding.com/sketch -->
    <title>laptop</title>
    <desc>Created with Sketch.</desc>
    <defs></defs>
    <g id="Page-1" stroke="none" stroke-width="1" fill="none" fill-rule="evenodd">
        <g id="Home" transform="translate(0.000000, -579.000000)" stroke="#37342D" stroke-width="2">
            <g id="laptop" transform="translate(-55.000000, 580.000000)">
                <path d="M324.419517,108.509517 L86.9665173,263.764517 C79.8555173,268.413517 77.8605173,277.947517 82.5095173,285.057517 L183.494517,439.507517 C188.144517,446.618517 197.677517,448.613517 204.787517,443.964517 L301.893517,380.473517 C301.545517,378.263517 302.477517,375.943517 304.463517,374.645517 L338.765517,352.217517 C340.751517,350.919517 343.250517,350.995517 345.134517,352.200517 L442.240517,288.709517 C449.351517,284.060517 451.346517,274.527517 446.697517,267.416517 L345.712517,112.966517 C341.063517,105.855517 331.530517,103.860517 324.419517,108.509517 L324.419517,108.509517 Z" id="Stroke-3"></path>
                <path d="M139.388191,261.508191 C139.990191,262.429191 139.729191,263.674191 138.809191,264.276191 L129.795191,270.170191 C128.875191,270.772191 127.629191,270.511191 127.027191,269.590191 L125.324191,266.985191 C124.722191,266.065191 124.983191,264.819191 125.903191,264.217191 L134.917191,258.324191 C135.837191,257.722191 137.083191,257.983191 137.685191,258.903191 L139.388191,261.508191 L139.388191,261.508191 Z" id="Stroke-5"></path>
                <path d="M123.388191,272.508191 C123.990191,273.429191 123.729191,274.674191 122.809191,275.276191 L113.795191,281.170191 C112.875191,281.772191 111.629191,281.511191 111.027191,280.590191 L109.324191,277.985191 C108.722191,277.065191 108.983191,275.819191 109.903191,275.217191 L118.917191,269.324191 C119.837191,268.722191 121.083191,268.983191 121.685191,269.903191 L123.388191,272.508191 L123.388191,272.508191 Z" id="Stroke-7"></path>
                <path d="M155.388191,251.508191 C155.990191,252.429191 155.729191,253.674191 154.809191,254.276191 L145.795191,260.170191 C144.875191,260.772191 143.629191,260.511191 143.027191,259.590191 L141.324191,256.985191 C140.722191,256.065191 140.983191,254.819191 141.903191,254.217191 L150.917191,248.324191 C151.837191,247.722191 153.083191,247.983191 153.685191,248.903191 L155.388191,251.508191 L155.388191,251.508191 Z" id="Stroke-9"></path>
                <path d="M171.388191,240.508191 C171.990191,241.429191 171.729191,242.674191 170.809191,243.276191 L161.795191,249.170191 C160.875191,249.772191 159.629191,249.511191 159.027191,248.590191 L157.324191,245.985191 C156.722191,245.065191 156.983191,243.819191 157.903191,243.217191 L166.917191,237.324191 C167.837191,236.722191 169.083191,236.983191 169.685191,237.903191 L171.388191,240.508191 L171.388191,240.508191 Z" id="Stroke-11"></path>
                <path d="M187.388191,230.508191 C187.990191,231.429191 187.729191,232.674191 186.809191,233.276191 L177.795191,239.170191 C176.875191,239.772191 175.629191,239.511191 175.027191,238.590191 L173.324191,235.985191 C172.722191,235.065191 172.983191,233.819191 173.903191,233.217191 L182.917191,227.324191 C183.837191,226.722191 185.083191,226.983191 185.685191,227.903191 L187.388191,230.508191 L187.388191,230.508191 Z" id="Stroke-13"></path>
                <path d="M202.388191,220.508191 C202.990191,221.429191 202.729191,222.674191 201.809191,223.276191 L192.795191,229.170191 C191.875191,229.772191 190.629191,229.511191 190.027191,228.590191 L188.324191,225.985191 C187.722191,225.065191 187.983191,223.819191 188.903191,223.217191 L197.917191,217.324191 C198.837191,216.722191 200.083191,216.983191 200.685191,217.903191 L202.388191,220.508191 L202.388191,220.508191 Z" id="Stroke-15"></path>
                <path d="M218.388191,209.508191 C218.990191,210.429191 218.729191,211.674191 217.809191,212.276191 L208.795191,218.170191 C207.875191,218.772191 206.629191,218.511191 206.027191,217.590191 L204.324191,214.985191 C203.722191,214.065191 203.983191,212.819191 204.903191,212.217191 L213.917191,206.324191 C214.837191,205.722191 216.083191,205.983191 216.685191,206.903191 L218.388191,209.508191 L218.388191,209.508191 Z" id="Stroke-17"></path>
                <path d="M234.388191,199.508191 C234.990191,200.429191 234.729191,201.674191 233.809191,202.276191 L224.795191,208.170191 C223.875191,208.772191 222.629191,208.511191 222.027191,207.590191 L220.324191,204.985191 C219.722191,204.065191 219.983191,202.819191 220.903191,202.217191 L229.917191,196.324191 C230.837191,195.722191 232.083191,195.983191 232.685191,196.903191 L234.388191,199.508191 L234.388191,199.508191 Z" id="Stroke-19"></path>
                <path d="M250.388191,189.508191 C250.990191,190.429191 250.729191,191.674191 249.809191,192.276191 L240.795191,198.170191 C239.875191,198.772191 238.629191,198.511191 238.027191,197.590191 L236.324191,194.985191 C235.722191,194.065191 235.983191,192.819191 236.903191,192.217191 L245.917191,186.324191 C246.837191,185.722191 248.083191,185.983191 248.685191,186.903191 L250.388191,189.508191 L250.388191,189.508191 Z" id="Stroke-21"></path>
                <path d="M265.388191,178.508191 C265.990191,179.429191 265.729191,180.674191 264.809191,181.276191 L255.795191,187.170191 C254.875191,187.772191 253.629191,187.511191 253.027191,186.590191 L251.324191,183.985191 C250.722191,183.065191 250.983191,181.819191 251.903191,181.217191 L260.917191,175.324191 C261.837191,174.722191 263.083191,174.983191 263.685191,175.903191 L265.388191,178.508191 L265.388191,178.508191 Z" id="Stroke-23"></path>
                <path d="M281.388191,168.508191 C281.990191,169.429191 281.729191,170.674191 280.809191,171.276191 L271.795191,177.170191 C270.875191,177.772191 269.629191,177.511191 269.027191,176.590191 L267.324191,173.985191 C266.722191,173.065191 266.983191,171.819191 267.903191,171.217191 L276.917191,165.324191 C277.837191,164.722191 279.083191,164.983191 279.685191,165.903191 L281.388191,168.508191 L281.388191,168.508191 Z" id="Stroke-25"></path>
                <path d="M297.388191,158.508191 C297.990191,159.429191 297.729191,160.674191 296.809191,161.276191 L287.795191,167.170191 C286.875191,167.772191 285.629191,167.511191 285.027191,166.590191 L283.324191,163.985191 C282.722191,163.065191 282.983191,161.819191 283.903191,161.217191 L292.917191,155.324191 C293.837191,154.722191 295.083191,154.983191 295.685191,155.903191 L297.388191,158.508191 L297.388191,158.508191 Z" id="Stroke-27"></path>
                <path d="M313.388191,148.508191 C313.990191,149.429191 313.729191,150.674191 312.809191,151.276191 L303.795191,157.170191 C302.875191,157.772191 301.629191,157.511191 301.027191,156.590191 L299.324191,153.985191 C298.722191,153.065191 298.983191,151.819191 299.903191,151.217191 L308.917191,145.324191 C309.837191,144.722191 311.083191,144.983191 311.685191,145.903191 L313.388191,148.508191 L313.388191,148.508191 Z" id="Stroke-29"></path>
                <path d="M328.388191,137.508191 C328.990191,138.429191 328.729191,139.674191 327.809191,140.276191 L318.795191,146.170191 C317.875191,146.772191 316.629191,146.511191 316.027191,145.590191 L314.324191,142.985191 C313.722191,142.065191 313.983191,140.819191 314.903191,140.217191 L323.917191,134.324191 C324.837191,133.722191 326.083191,133.983191 326.685191,134.903191 L328.388191,137.508191 L328.388191,137.508191 Z" id="Stroke-31"></path>
                <path d="M148.824191,276.461143 C149.426191,277.382143 149.165191,278.627143 148.245191,279.229143 L139.687191,284.825143 C138.767191,285.426143 137.521191,285.166143 136.919191,284.245143 L131.324191,275.688143 C130.722191,274.767143 130.983191,273.521143 131.903191,272.919143 L140.460191,267.324143 C141.381191,266.722143 142.627191,266.983143 143.229191,267.904143 L148.824191,276.461143 L148.824191,276.461143 Z" id="Stroke-33"></path>
                <path d="M131.824191,286.461143 C132.426191,287.382143 132.165191,288.627143 131.245191,289.229143 L122.687191,294.825143 C121.767191,295.426143 120.521191,295.166143 119.919191,294.245143 L114.324191,285.688143 C113.722191,284.767143 113.983191,283.521143 114.903191,282.919143 L123.460191,277.324143 C124.381191,276.722143 125.627191,276.983143 126.229191,277.904143 L131.824191,286.461143 L131.824191,286.461143 Z" id="Stroke-35"></path>
                <path d="M163.824191,266.461143 C164.426191,267.382143 164.165191,268.627143 163.245191,269.229143 L154.687191,274.825143 C153.767191,275.426143 152.521191,275.166143 151.919191,274.245143 L146.324191,265.688143 C145.722191,264.767143 145.983191,263.521143 146.903191,262.919143 L155.460191,257.324143 C156.381191,256.722143 157.627191,256.983143 158.229191,257.904143 L163.824191,266.461143 L163.824191,266.461143 Z" id="Stroke-37"></path>
                <path d="M178.824191,256.461143 C179.426191,257.382143 179.165191,258.627143 178.245191,259.229143 L169.687191,264.825143 C168.767191,265.426143 167.521191,265.166143 166.919191,264.245143 L161.324191,255.688143 C160.722191,254.767143 160.983191,253.521143 161.903191,252.919143 L170.460191,247.324143 C171.381191,246.722143 172.627191,246.983143 173.229191,247.904143 L178.824191,256.461143 L178.824191,256.461143 Z" id="Stroke-39"></path>
                <path d="M193.824191,246.461143 C194.426191,247.382143 194.165191,248.627143 193.245191,249.229143 L184.687191,254.824143 C183.767191,255.426143 182.521191,255.166143 181.919191,254.245143 L176.324191,245.688143 C175.722191,244.767143 175.983191,243.521143 176.903191,242.919143 L185.460191,237.324143 C186.381191,236.722143 187.627191,236.983143 188.229191,237.904143 L193.824191,246.461143 L193.824191,246.461143 Z" id="Stroke-41"></path>
                <path d="M208.824191,236.461143 C209.426191,237.382143 209.165191,238.627143 208.245191,239.229143 L199.687191,244.825143 C198.767191,245.426143 197.521191,245.166143 196.919191,244.245143 L191.324191,235.688143 C190.722191,234.767143 190.983191,233.521143 191.903191,232.919143 L200.461191,227.324143 C201.381191,226.722143 202.627191,226.983143 203.229191,227.904143 L208.824191,236.461143 L208.824191,236.461143 Z" id="Stroke-43"></path>
                <path d="M224.824191,226.461143 C225.426191,227.382143 225.165191,228.627143 224.245191,229.229143 L215.687191,234.825143 C214.767191,235.426143 213.521191,235.166143 212.919191,234.245143 L207.324191,225.688143 C206.722191,224.767143 206.983191,223.521143 207.903191,222.919143 L216.460191,217.324143 C217.381191,216.722143 218.627191,216.983143 219.229191,217.904143 L224.824191,226.461143 L224.824191,226.461143 Z" id="Stroke-45"></path>
                <path d="M239.824191,216.461143 C240.426191,217.382143 240.165191,218.627143 239.245191,219.229143 L230.687191,224.825143 C229.767191,225.426143 228.521191,225.166143 227.919191,224.245143 L222.324191,215.688143 C221.722191,214.767143 221.983191,213.521143 222.903191,212.919143 L231.460191,207.324143 C232.381191,206.722143 233.627191,206.983143 234.229191,207.904143 L239.824191,216.461143 L239.824191,216.461143 Z" id="Stroke-47"></path>
                <path d="M254.824191,206.461143 C255.426191,207.382143 255.165191,208.627143 254.245191,209.229143 L245.687191,214.825143 C244.767191,215.426143 243.521191,215.166143 242.919191,214.245143 L237.324191,205.688143 C236.722191,204.767143 236.983191,203.521143 237.903191,202.919143 L246.460191,197.324143 C247.381191,196.722143 248.627191,196.983143 249.229191,197.904143 L254.824191,206.461143 L254.824191,206.461143 Z" id="Stroke-49"></path>
                <path d="M269.824191,196.461143 C270.426191,197.382143 270.165191,198.627143 269.245191,199.229143 L260.687191,204.825143 C259.767191,205.426143 258.521191,205.166143 257.919191,204.245143 L252.324191,195.688143 C251.722191,194.767143 251.983191,193.521143 252.903191,192.919143 L261.460191,187.324143 C262.381191,186.722143 263.627191,186.983143 264.229191,187.904143 L269.824191,196.461143 L269.824191,196.461143 Z" id="Stroke-51"></path>
                <path d="M284.824191,186.461143 C285.426191,187.382143 285.165191,188.627143 284.245191,189.229143 L275.687191,194.824143 C274.767191,195.426143 273.521191,195.166143 272.919191,194.245143 L267.324191,185.688143 C266.722191,184.767143 266.983191,183.521143 267.903191,182.919143 L276.460191,177.324143 C277.381191,176.722143 278.627191,176.983143 279.229191,177.904143 L284.824191,186.461143 L284.824191,186.461143 Z" id="Stroke-53"></path>
                <path d="M300.824191,176.461143 C301.426191,177.382143 301.165191,178.627143 300.245191,179.229143 L291.687191,184.825143 C290.767191,185.426143 289.521191,185.166143 288.919191,184.245143 L283.324191,175.688143 C282.722191,174.767143 282.983191,173.521143 283.903191,172.919143 L292.460191,167.324143 C293.381191,166.722143 294.627191,166.983143 295.229191,167.904143 L300.824191,176.461143 L300.824191,176.461143 Z" id="Stroke-55"></path>
                <path d="M315.824191,166.461143 C316.426191,167.382143 316.165191,168.627143 315.245191,169.229143 L306.687191,174.824143 C305.767191,175.426143 304.521191,175.166143 303.919191,174.245143 L298.324191,165.688143 C297.722191,164.767143 297.983191,163.521143 298.903191,162.919143 L307.460191,157.324143 C308.381191,156.722143 309.627191,156.983143 310.229191,157.904143 L315.824191,166.461143 L315.824191,166.461143 Z" id="Stroke-57"></path>
                <path d="M338.304191,152.461143 C338.906191,153.382143 338.645191,154.627143 337.725191,155.229143 L321.687191,165.715143 C320.767191,166.317143 319.521191,166.056143 318.919191,165.136143 L313.324191,156.578143 C312.722191,155.658143 312.983191,154.412143 313.903191,153.810143 L329.941191,143.324143 C330.861191,142.722143 332.107191,142.983143 332.709191,143.904143 L338.304191,152.461143 L338.304191,152.461143 Z" id="Stroke-59"></path>
                <path d="M165.824191,285.461143 C166.426191,286.382143 166.165191,287.627143 165.245191,288.229143 L156.687191,293.825143 C155.767191,294.426143 154.521191,294.166143 153.919191,293.245143 L148.324191,284.688143 C147.722191,283.767143 147.983191,282.521143 148.903191,281.919143 L157.460191,276.324143 C158.381191,275.722143 159.627191,275.983143 160.229191,276.904143 L165.824191,285.461143 L165.824191,285.461143 Z" id="Stroke-61"></path>
                <path d="M149.684444,296.461143 C150.286444,297.382143 150.025444,298.627143 149.105444,299.229143 L132.687444,309.964143 C131.766444,310.566143 130.521444,310.305143 129.919444,309.384143 L124.324444,300.827143 C123.722444,299.906143 123.982444,298.660143 124.903444,298.059143 L141.320444,287.324143 C142.241444,286.722143 143.487444,286.983143 144.089444,287.904143 L149.684444,296.461143 L149.684444,296.461143 Z" id="Stroke-63"></path>
                <path d="M180.824191,275.461143 C181.426191,276.382143 181.165191,277.627143 180.245191,278.229143 L171.687191,283.825143 C170.767191,284.426143 169.521191,284.166143 168.919191,283.245143 L163.324191,274.688143 C162.722191,273.767143 162.983191,272.521143 163.903191,271.919143 L172.461191,266.324143 C173.381191,265.722143 174.627191,265.983143 175.229191,266.904143 L180.824191,275.461143 L180.824191,275.461143 Z" id="Stroke-65"></path>
                <path d="M195.824191,265.461143 C196.426191,266.382143 196.165191,267.627143 195.245191,268.229143 L186.687191,273.825143 C185.767191,274.426143 184.521191,274.166143 183.919191,273.245143 L178.324191,264.688143 C177.722191,263.767143 177.983191,262.521143 178.903191,261.919143 L187.460191,256.324143 C188.381191,255.722143 189.627191,255.983143 190.229191,256.904143 L195.824191,265.461143 L195.824191,265.461143 Z" id="Stroke-67"></path>
                <path d="M210.824191,255.461143 C211.426191,256.382143 211.165191,257.627143 210.245191,258.229143 L201.687191,263.825143 C200.767191,264.426143 199.521191,264.166143 198.919191,263.245143 L193.324191,254.688143 C192.722191,253.767143 192.983191,252.521143 193.903191,251.919143 L202.460191,246.324143 C203.381191,245.722143 204.627191,245.983143 205.229191,246.904143 L210.824191,255.461143 L210.824191,255.461143 Z" id="Stroke-69"></path>
                <path d="M225.824191,245.461143 C226.426191,246.382143 226.165191,247.627143 225.245191,248.229143 L216.687191,253.825143 C215.767191,254.426143 214.521191,254.166143 213.919191,253.245143 L208.324191,244.688143 C207.722191,243.767143 207.983191,242.521143 208.903191,241.919143 L217.460191,236.324143 C218.381191,235.722143 219.627191,235.983143 220.229191,236.904143 L225.824191,245.461143 L225.824191,245.461143 Z" id="Stroke-71"></path>
                <path d="M240.824191,236.461143 C241.426191,237.382143 241.165191,238.627143 240.245191,239.229143 L231.687191,244.825143 C230.767191,245.426143 229.521191,245.166143 228.919191,244.245143 L223.324191,235.688143 C222.722191,234.767143 222.983191,233.521143 223.903191,232.919143 L232.460191,227.324143 C233.381191,226.722143 234.627191,226.983143 235.229191,227.904143 L240.824191,236.461143 L240.824191,236.461143 Z" id="Stroke-73"></path>
                <path d="M256.824191,226.461143 C257.426191,227.382143 257.165191,228.627143 256.245191,229.229143 L247.687191,234.825143 C246.767191,235.426143 245.521191,235.166143 244.919191,234.245143 L239.324191,225.688143 C238.722191,224.767143 238.983191,223.521143 239.903191,222.919143 L248.461191,217.324143 C249.381191,216.722143 250.627191,216.983143 251.229191,217.904143 L256.824191,226.461143 L256.824191,226.461143 Z" id="Stroke-75"></path>
                <path d="M271.824191,216.461143 C272.426191,217.382143 272.165191,218.627143 271.245191,219.229143 L262.687191,224.824143 C261.767191,225.426143 260.521191,225.166143 259.919191,224.245143 L254.324191,215.688143 C253.722191,214.767143 253.983191,213.521143 254.903191,212.919143 L263.461191,207.324143 C264.381191,206.722143 265.627191,206.983143 266.229191,207.904143 L271.824191,216.461143 L271.824191,216.461143 Z" id="Stroke-77"></path>
                <path d="M286.824191,206.461143 C287.426191,207.382143 287.165191,208.627143 286.245191,209.229143 L277.687191,214.825143 C276.767191,215.426143 275.521191,215.166143 274.919191,214.245143 L269.324191,205.688143 C268.722191,204.767143 268.983191,203.521143 269.903191,202.919143 L278.461191,197.324143 C279.381191,196.722143 280.627191,196.983143 281.229191,197.904143 L286.824191,206.461143 L286.824191,206.461143 Z" id="Stroke-79"></path>
                <path d="M301.824191,196.461143 C302.426191,197.382143 302.165191,198.627143 301.245191,199.229143 L292.687191,204.825143 C291.767191,205.426143 290.521191,205.166143 289.919191,204.245143 L284.324191,195.688143 C283.722191,194.767143 283.983191,193.521143 284.903191,192.919143 L293.460191,187.324143 C294.381191,186.722143 295.627191,186.983143 296.229191,187.904143 L301.824191,196.461143 L301.824191,196.461143 Z" id="Stroke-81"></path>
                <path d="M316.824191,186.461143 C317.426191,187.382143 317.165191,188.627143 316.245191,189.229143 L307.687191,194.825143 C306.767191,195.426143 305.521191,195.166143 304.919191,194.245143 L299.324191,185.688143 C298.722191,184.767143 298.983191,183.521143 299.903191,182.919143 L308.460191,177.324143 C309.381191,176.722143 310.627191,176.983143 311.229191,177.904143 L316.824191,186.461143 L316.824191,186.461143 Z" id="Stroke-83"></path>
                <path d="M332.824191,176.461143 C333.426191,177.382143 333.165191,178.627143 332.245191,179.229143 L323.687191,184.824143 C322.767191,185.426143 321.521191,185.166143 320.919191,184.245143 L315.324191,175.688143 C314.722191,174.767143 314.983191,173.521143 315.903191,172.919143 L324.460191,167.324143 C325.381191,166.722143 326.627191,166.983143 327.229191,167.904143 L332.824191,176.461143 L332.824191,176.461143 Z" id="Stroke-85"></path>
                <path d="M347.824191,166.461143 C348.426191,167.382143 348.165191,168.627143 347.245191,169.229143 L338.687191,174.824143 C337.767191,175.426143 336.521191,175.166143 335.919191,174.245143 L330.324191,165.688143 C329.722191,164.767143 329.983191,163.521143 330.903191,162.919143 L339.460191,157.324143 C340.381191,156.722143 341.627191,156.983143 342.229191,157.904143 L347.824191,166.461143 L347.824191,166.461143 Z" id="Stroke-87"></path>
                <path d="M178.824191,297.461143 C179.426191,298.382143 179.165191,299.627143 178.245191,300.229143 L169.687191,305.825143 C168.767191,306.426143 167.521191,306.166143 166.919191,305.245143 L161.324191,296.688143 C160.722191,295.767143 160.983191,294.521143 161.903191,293.919143 L170.460191,288.324143 C171.381191,287.722143 172.627191,287.983143 173.229191,288.904143 L178.824191,297.461143 L178.824191,297.461143 Z" id="Stroke-89"></path>
                <path d="M162.633143,307.461143 C163.235143,308.382143 162.974143,309.627143 162.054143,310.229143 L141.688143,323.545143 C140.767143,324.147143 139.521143,323.886143 138.919143,322.966143 L133.324143,314.408143 C132.722143,313.488143 132.983143,312.242143 133.904143,311.640143 L154.269143,298.324143 C155.190143,297.722143 156.436143,297.983143 157.038143,298.904143 L162.633143,307.461143 L162.633143,307.461143 Z" id="Stroke-91"></path>
                <path d="M193.824191,287.461143 C194.426191,288.382143 194.165191,289.627143 193.245191,290.229143 L184.687191,295.824143 C183.767191,296.426143 182.521191,296.166143 181.919191,295.245143 L176.324191,286.688143 C175.722191,285.767143 175.983191,284.521143 176.903191,283.919143 L185.460191,278.324143 C186.381191,277.722143 187.627191,277.983143 188.229191,278.904143 L193.824191,287.461143 L193.824191,287.461143 Z" id="Stroke-93"></path>
                <path d="M208.824191,277.461143 C209.426191,278.382143 209.165191,279.627143 208.245191,280.229143 L199.687191,285.825143 C198.767191,286.426143 197.521191,286.166143 196.919191,285.245143 L191.324191,276.688143 C190.722191,275.767143 190.983191,274.521143 191.903191,273.919143 L200.460191,268.324143 C201.381191,267.722143 202.627191,267.983143 203.229191,268.904143 L208.824191,277.461143 L208.824191,277.461143 Z" id="Stroke-95"></path>
                <path d="M223.824191,267.461143 C224.426191,268.382143 224.165191,269.627143 223.245191,270.229143 L214.687191,275.825143 C213.767191,276.426143 212.521191,276.166143 211.919191,275.245143 L206.324191,266.688143 C205.722191,265.767143 205.983191,264.521143 206.903191,263.919143 L215.460191,258.324143 C216.381191,257.722143 217.627191,257.983143 218.229191,258.904143 L223.824191,267.461143 L223.824191,267.461143 Z" id="Stroke-97"></path>
                <path d="M238.824191,257.461143 C239.426191,258.382143 239.165191,259.627143 238.245191,260.229143 L229.687191,265.825143 C228.767191,266.426143 227.521191,266.166143 226.919191,265.245143 L221.324191,256.688143 C220.722191,255.767143 220.983191,254.521143 221.903191,253.919143 L230.461191,248.324143 C231.381191,247.722143 232.627191,247.983143 233.229191,248.904143 L238.824191,257.461143 L238.824191,257.461143 Z" id="Stroke-99"></path>
                <path d="M254.824191,247.461143 C255.426191,248.382143 255.165191,249.627143 254.245191,250.229143 L245.687191,255.825143 C244.767191,256.426143 243.521191,256.166143 242.919191,255.245143 L237.324191,246.688143 C236.722191,245.767143 236.983191,244.521143 237.903191,243.919143 L246.460191,238.324143 C247.381191,237.722143 248.627191,237.983143 249.229191,238.904143 L254.824191,247.461143 L254.824191,247.461143 Z" id="Stroke-101"></path>
                <path d="M269.824191,238.461143 C270.426191,239.382143 270.165191,240.627143 269.245191,241.229143 L260.687191,246.825143 C259.767191,247.426143 258.521191,247.166143 257.919191,246.245143 L252.324191,237.688143 C251.722191,236.767143 251.983191,235.521143 252.903191,234.919143 L261.461191,229.324143 C262.381191,228.722143 263.627191,228.983143 264.229191,229.904143 L269.824191,238.461143 L269.824191,238.461143 Z" id="Stroke-103"></path>
                <path d="M284.824191,228.461143 C285.426191,229.382143 285.165191,230.627143 284.245191,231.229143 L275.687191,236.825143 C274.767191,237.426143 273.521191,237.166143 272.919191,236.245143 L267.324191,227.688143 C266.722191,226.767143 266.983191,225.521143 267.903191,224.919143 L276.460191,219.324143 C277.381191,218.722143 278.627191,218.983143 279.229191,219.904143 L284.824191,228.461143 L284.824191,228.461143 Z" id="Stroke-105"></path>
                <path d="M299.824191,218.461143 C300.426191,219.382143 300.165191,220.627143 299.245191,221.229143 L290.687191,226.825143 C289.767191,227.426143 288.521191,227.166143 287.919191,226.245143 L282.324191,217.688143 C281.722191,216.767143 281.983191,215.521143 282.903191,214.919143 L291.460191,209.324143 C292.381191,208.722143 293.627191,208.983143 294.229191,209.904143 L299.824191,218.461143 L299.824191,218.461143 Z" id="Stroke-107"></path>
                <path d="M314.824191,208.461143 C315.426191,209.382143 315.165191,210.627143 314.245191,211.229143 L305.687191,216.825143 C304.767191,217.426143 303.521191,217.166143 302.919191,216.245143 L297.324191,207.688143 C296.722191,206.767143 296.983191,205.521143 297.903191,204.919143 L306.460191,199.324143 C307.381191,198.722143 308.627191,198.983143 309.229191,199.904143 L314.824191,208.461143 L314.824191,208.461143 Z" id="Stroke-109"></path>
                <path d="M330.824191,198.461143 C331.426191,199.382143 331.165191,200.627143 330.245191,201.229143 L321.687191,206.825143 C320.767191,207.426143 319.521191,207.166143 318.919191,206.245143 L313.324191,197.688143 C312.722191,196.767143 312.983191,195.521143 313.903191,194.919143 L322.460191,189.324143 C323.381191,188.722143 324.627191,188.983143 325.229191,189.904143 L330.824191,198.461143 L330.824191,198.461143 Z" id="Stroke-111"></path>
                <path d="M357.269444,180.461143 C357.871444,181.382143 357.610444,182.627143 356.690444,183.229143 L336.687444,196.308143 C335.766444,196.910143 334.521444,196.649143 333.919444,195.728143 L328.324444,187.171143 C327.722444,186.250143 327.982444,185.005143 328.903444,184.403143 L348.906444,171.324143 C349.826444,170.722143 351.072444,170.983143 351.674444,171.904143 L357.269444,180.461143 L357.269444,180.461143 Z" id="Stroke-113"></path>
                <path d="M181.478143,316.461143 C182.080143,317.382143 181.819143,318.627143 180.899143,319.229143 L151.688143,338.329143 C150.767143,338.930143 149.521143,338.670143 148.919143,337.749143 L143.324143,329.192143 C142.722143,328.271143 142.983143,327.025143 143.904143,326.423143 L173.114143,307.324143 C174.035143,306.722143 175.281143,306.983143 175.883143,307.904143 L181.478143,316.461143 L181.478143,316.461143 Z" id="Stroke-115"></path>
                <path d="M195.824191,306.461143 C196.426191,307.382143 196.165191,308.627143 195.245191,309.229143 L186.687191,314.825143 C185.767191,315.426143 184.521191,315.166143 183.919191,314.245143 L178.324191,305.688143 C177.722191,304.767143 177.983191,303.521143 178.903191,302.919143 L187.460191,297.324143 C188.381191,296.722143 189.627191,296.983143 190.229191,297.904143 L195.824191,306.461143 L195.824191,306.461143 Z" id="Stroke-117"></path>
                <path d="M211.824191,296.461143 C212.426191,297.382143 212.165191,298.627143 211.245191,299.229143 L202.687191,304.825143 C201.767191,305.426143 200.521191,305.166143 199.919191,304.245143 L194.324191,295.688143 C193.722191,294.767143 193.983191,293.521143 194.903191,292.919143 L203.460191,287.324143 C204.381191,286.722143 205.627191,286.983143 206.229191,287.904143 L211.824191,296.461143 L211.824191,296.461143 Z" id="Stroke-119"></path>
                <path d="M226.824191,286.461143 C227.426191,287.382143 227.165191,288.627143 226.245191,289.229143 L217.687191,294.825143 C216.767191,295.426143 215.521191,295.166143 214.919191,294.245143 L209.324191,285.688143 C208.722191,284.767143 208.983191,283.521143 209.903191,282.919143 L218.460191,277.324143 C219.381191,276.722143 220.627191,276.983143 221.229191,277.904143 L226.824191,286.461143 L226.824191,286.461143 Z" id="Stroke-121"></path>
                <path d="M241.824191,276.461143 C242.426191,277.382143 242.165191,278.627143 241.245191,279.229143 L232.687191,284.825143 C231.767191,285.426143 230.521191,285.166143 229.919191,284.245143 L224.324191,275.688143 C223.722191,274.767143 223.983191,273.521143 224.903191,272.919143 L233.461191,267.324143 C234.381191,266.722143 235.627191,266.983143 236.229191,267.904143 L241.824191,276.461143 L241.824191,276.461143 Z" id="Stroke-123"></path>
                <path d="M256.824191,266.461143 C257.426191,267.382143 257.165191,268.627143 256.245191,269.229143 L247.687191,274.825143 C246.767191,275.426143 245.521191,275.166143 244.919191,274.245143 L239.324191,265.688143 C238.722191,264.767143 238.983191,263.521143 239.903191,262.919143 L248.460191,257.324143 C249.381191,256.722143 250.627191,256.983143 251.229191,257.904143 L256.824191,266.461143 L256.824191,266.461143 Z" id="Stroke-125"></path>
                <path d="M271.824191,256.461143 C272.426191,257.382143 272.165191,258.627143 271.245191,259.229143 L262.687191,264.825143 C261.767191,265.426143 260.521191,265.166143 259.919191,264.245143 L254.324191,255.688143 C253.722191,254.767143 253.983191,253.521143 254.903191,252.919143 L263.461191,247.324143 C264.381191,246.722143 265.627191,246.983143 266.229191,247.904143 L271.824191,256.461143 L271.824191,256.461143 Z" id="Stroke-127"></path>
                <path d="M287.824191,246.461143 C288.426191,247.382143 288.165191,248.627143 287.245191,249.229143 L278.687191,254.825143 C277.767191,255.426143 276.521191,255.166143 275.919191,254.245143 L270.324191,245.688143 C269.722191,244.767143 269.983191,243.521143 270.903191,242.919143 L279.460191,237.324143 C280.381191,236.722143 281.627191,236.983143 282.229191,237.904143 L287.824191,246.461143 L287.824191,246.461143 Z" id="Stroke-129"></path>
                <path d="M302.824191,236.461143 C303.426191,237.382143 303.165191,238.627143 302.245191,239.229143 L293.687191,244.825143 C292.767191,245.426143 291.521191,245.166143 290.919191,244.245143 L285.324191,235.688143 C284.722191,234.767143 284.983191,233.521143 285.903191,232.919143 L294.460191,227.324143 C295.381191,226.722143 296.627191,226.983143 297.229191,227.904143 L302.824191,236.461143 L302.824191,236.461143 Z" id="Stroke-131"></path>
                <path d="M317.824191,227.461143 C318.426191,228.382143 318.165191,229.627143 317.245191,230.229143 L308.687191,235.825143 C307.767191,236.426143 306.521191,236.166143 305.919191,235.245143 L300.324191,226.688143 C299.722191,225.767143 299.983191,224.521143 300.903191,223.919143 L309.460191,218.324143 C310.381191,217.722143 311.627191,217.983143 312.229191,218.904143 L317.824191,227.461143 L317.824191,227.461143 Z" id="Stroke-133"></path>
                <path d="M332.824191,217.461143 C333.426191,218.382143 333.165191,219.627143 332.245191,220.229143 L323.687191,225.825143 C322.767191,226.426143 321.521191,226.166143 320.919191,225.245143 L315.324191,216.688143 C314.722191,215.767143 314.983191,214.521143 315.903191,213.919143 L324.460191,208.324143 C325.381191,207.722143 326.627191,207.983143 327.229191,208.904143 L332.824191,217.461143 L332.824191,217.461143 Z" id="Stroke-135"></path>
                <path d="M366.069701,195.461143 C366.671701,196.382143 366.410701,197.627143 365.490701,198.229143 L338.687701,215.754143 C337.766701,216.356143 336.521701,216.095143 335.919701,215.174143 L330.323701,206.617143 C329.722701,205.696143 329.982701,204.451143 330.903701,203.849143 L357.705701,186.324143 C358.626701,185.722143 359.872701,185.983143 360.474701,186.904143 L366.069701,195.461143 L366.069701,195.461143 Z" id="Stroke-137"></path>
                <path d="M185.824191,333.461143 C186.426191,334.382143 186.165191,335.627143 185.245191,336.229143 L176.687191,341.825143 C175.767191,342.426143 174.521191,342.166143 173.919191,341.245143 L168.324191,332.688143 C167.722191,331.767143 167.983191,330.521143 168.903191,329.919143 L177.460191,324.324143 C178.381191,323.722143 179.627191,323.983143 180.229191,324.904143 L185.824191,333.461143 L185.824191,333.461143 Z" id="Stroke-139"></path>
                <path d="M169.824191,344.461143 C170.426191,345.382143 170.165191,346.627143 169.245191,347.229143 L160.687191,352.825143 C159.767191,353.426143 158.521191,353.166143 157.919191,352.245143 L152.324191,343.688143 C151.722191,342.767143 151.983191,341.521143 152.903191,340.919143 L161.460191,335.324143 C162.381191,334.722143 163.627191,334.983143 164.229191,335.904143 L169.824191,344.461143 L169.824191,344.461143 Z" id="Stroke-141"></path>
                <path d="M200.824191,323.461143 C201.426191,324.382143 201.165191,325.627143 200.245191,326.229143 L191.687191,331.825143 C190.767191,332.426143 189.521191,332.166143 188.919191,331.245143 L183.324191,322.688143 C182.722191,321.767143 182.983191,320.521143 183.903191,319.919143 L192.460191,314.324143 C193.381191,313.722143 194.627191,313.983143 195.229191,314.904143 L200.824191,323.461143 L200.824191,323.461143 Z" id="Stroke-143"></path>
                <path d="M220.656143,310.461143 C221.258143,311.382143 220.997143,312.627143 220.077143,313.229143 L206.688143,321.984143 C205.767143,322.586143 204.521143,322.325143 203.919143,321.404143 L198.324143,312.847143 C197.722143,311.926143 197.983143,310.680143 198.904143,310.078143 L212.292143,301.324143 C213.213143,300.722143 214.459143,300.983143 215.061143,301.904143 L220.656143,310.461143 L220.656143,310.461143 Z" id="Stroke-145"></path>
                <path d="M296.565191,261.461143 C297.167191,262.382143 296.906191,263.627143 295.986191,264.229143 L226.687191,309.539143 C225.767191,310.141143 224.521191,309.880143 223.919191,308.960143 L218.324191,300.402143 C217.722191,299.482143 217.983191,298.236143 218.903191,297.634143 L288.202191,252.324143 C289.122191,251.722143 290.368191,251.983143 290.970191,252.904143 L296.565191,261.461143 L296.565191,261.461143 Z" id="Stroke-147"></path>
                <polygon id="Stroke-149" points="359.131 329.135 273.972 384.815 234 323.679 319.158 268"></polygon>
                <path d="M314.884191,249.461143 C315.486191,250.382143 315.225191,251.627143 314.305191,252.229143 L302.687191,259.825143 C301.767191,260.427143 300.521191,260.166143 299.919191,259.246143 L294.324191,250.688143 C293.722191,249.768143 293.983191,248.522143 294.903191,247.920143 L306.521191,240.324143 C307.441191,239.722143 308.687191,239.983143 309.289191,240.904143 L314.884191,249.461143 L314.884191,249.461143 Z" id="Stroke-151"></path>
                <path d="M329.824191,239.461143 C330.426191,240.382143 330.165191,241.627143 329.245191,242.229143 L320.687191,247.825143 C319.767191,248.426143 318.521191,248.166143 317.919191,247.245143 L312.324191,238.688143 C311.722191,237.767143 311.983191,236.521143 312.903191,235.919143 L321.461191,230.324143 C322.381191,229.722143 323.627191,229.983143 324.229191,230.904143 L329.824191,239.461143 L329.824191,239.461143 Z" id="Stroke-153"></path>
                <path d="M345.007143,229.622444 C345.609143,230.543444 345.348143,231.788444 344.428143,232.390444 L335.870143,237.986444 C334.950143,238.587444 333.704143,238.327444 333.102143,237.406444 L331.324143,234.687444 C330.722143,233.766444 330.983143,232.521444 331.904143,231.919444 L340.461143,226.324444 C341.382143,225.722444 342.627143,225.982444 343.229143,226.903444 L345.007143,229.622444 L345.007143,229.622444 Z" id="Stroke-155"></path>
                <path d="M360.824191,219.461143 C361.426191,220.382143 361.165191,221.627143 360.245191,222.229143 L351.687191,227.825143 C350.767191,228.426143 349.521191,228.166143 348.919191,227.245143 L343.324191,218.688143 C342.722191,217.767143 342.983191,216.521143 343.903191,215.919143 L352.461191,210.324143 C353.381191,209.722143 354.627191,209.983143 355.229191,210.904143 L360.824191,219.461143 L360.824191,219.461143 Z" id="Stroke-157"></path>
                <path d="M376.007143,209.622444 C376.609143,210.543444 376.348143,211.788444 375.428143,212.390444 L366.870143,217.986444 C365.950143,218.587444 364.704143,218.327444 364.102143,217.406444 L362.324143,214.687444 C361.722143,213.766444 361.983143,212.521444 362.904143,211.919444 L371.461143,206.324444 C372.382143,205.722444 373.627143,205.982444 374.229143,206.903444 L376.007143,209.622444 L376.007143,209.622444 Z" id="Stroke-159"></path>
                <path d="M81.1242921,269.847852 C78.6092921,269.667852 76.0902921,268.666852 74.2532921,266.917852 L3.56929206,199.625852 C-1.00670794,195.269852 -1.22370794,189.309852 3.15529206,186.446852 L286.526292,1.16885156 C290.905292,-1.69414844 296.277292,0.894851558 298.433292,6.83385156 L331.728292,98.5708516 C332.593292,100.955852 332.500292,103.664852 331.656292,106.040852" id="Stroke-161"></path>
                <path d="M87.2208839,251.120693 C85.8238839,252.033693 83.9048839,251.761693 82.5598839,250.458693 L21.5008839,191.318693 C20.7428839,190.583693 20.8618839,189.336693 21.7448839,188.759693 L280.968884,19.2686935 C281.851884,18.6916935 283.042884,19.0826935 283.410884,20.0716935 L313.098884,99.7236935 C313.752884,101.478693 313.232884,103.345693 311.836884,104.258693 L87.2208839,251.120693 L87.2208839,251.120693 Z" id="Stroke-163"></path>
                <polygon id="Stroke-165" points="311.735 127.415 108.848 260.07 104 252.654 306.887 120"></polygon>
            </g>
        </g>
    </g>
</svg>