<?xml version="1.0" encoding="UTF-8" standalone="no"?>
<svg width="84px" height="37px" viewBox="0 0 84 37" version="1.1" xmlns="http://www.w3.org/2000/svg" xmlns:xlink="http://www.w3.org/1999/xlink">
    <!-- Generator: Sketch 39.1 (31720) - http://www.bohemiancoding.com/sketch -->
    <title>less</title>
    <desc>Created with Sketch.</desc>
    <defs></defs>
    <g id="Page-1" stroke="none" stroke-width="1" fill="none" fill-rule="evenodd">
        <g id="less" transform="translate(0.785249, 0.000000)" fill="#BBBDBF">
            <path d="M65.8967846,17.8614503 C68.9957649,18.9456489 70.5446078,20.8032766 70.5446078,23.4315716 C70.5446078,25.1615602 69.90227,26.5346944 68.6204422,27.5502838 C67.3399089,28.5665636 65.5131769,29.1972509 63.1354135,29.1972509 C60.7576501,29.1972509 58.5582707,28.5083105 56.5325289,27.3773367 C56.5544493,26.7775452 56.7129841,26.1195006 57.0039909,25.4051877 C57.2949976,24.6908749 57.6394247,24.1233599 58.0340789,23.7088565 C59.895849,24.6763763 61.5159764,25.1609561 62.8911819,25.1609561 C63.5411142,25.1609561 64.0439898,25.0518717 64.3940264,24.8322358 C64.7446671,24.6133766 64.918995,24.3196083 64.918995,23.9504991 C64.918995,23.2567259 64.3816854,22.7378847 63.3105181,22.3920768 L61.3863524,21.6653366 C58.4754219,20.6044392 57.0198703,18.8758315 57.0198703,16.4746805 C57.0198703,14.7213907 57.6313124,13.331773 58.8541967,12.3037562 C60.0770809,11.2772066 61.7253425,10.3933124 63.7977732,10.3933124 C64.8230283,10.3933124 65.9518446,10.537435 67.1869836,10.8256801 C68.4208281,11.1146156 69.4344326,11.8262532 70.22633,12.2172827 C70.2730188,12.8636767 70.1433085,13.573243 69.8421182,14.3458953 C69.5387704,15.119238 69.1668997,15.6668174 68.7228814,15.9901008 C66.7651446,15.1131106 65.1360418,14.6746156 63.8308265,14.6746156 C63.3635069,14.6746156 63.0114854,14.778263 62.7644058,14.9868524 C62.5200878,15.1948376 62.3999569,15.4596089 62.3999569,15.7828922 C62.3999569,16.3366853 62.841904,16.77449 63.7277832,17.097687 L65.8967846,17.8614503 L65.8967846,17.8614503 Z" id="path21"></path>
            <path d="M50.4182801,17.8614503 C53.5172604,18.9456489 55.0654129,20.8032766 55.0654129,23.4315716 C55.0654129,25.1615602 54.4230751,26.5346944 53.1433185,27.5502838 C51.8614907,28.5665636 50.0340683,29.1972509 47.6569953,29.1972509 C45.2813032,29.1972509 43.0791622,28.5083105 41.0541107,27.3773367 C41.0760311,26.7775452 41.2345659,26.1195006 41.5261768,25.4051877 C41.8171836,24.6908749 42.1602298,24.1233599 42.5562648,23.7088565 C44.4201061,24.6763763 46.0395432,25.1609561 47.4140582,25.1609561 C48.0645947,25.1609561 48.5675565,25.0518717 48.9162123,24.8322358 C49.2655585,24.6133766 49.4411809,24.3196083 49.4411809,23.9504991 C49.4411809,23.2567259 48.9038713,22.7378847 47.832704,22.3920768 L45.9098329,21.6653366 C42.9982119,20.6044392 41.5420562,18.8758315 41.5420562,16.4746805 C41.5420562,14.7213907 42.1534983,13.331773 43.3776771,12.3037562 C44.599871,11.2772066 46.2474421,10.3933124 48.3198728,10.3933124 C49.3444376,10.3933124 50.4760154,10.537435 51.7084791,10.8256801 C52.9437044,11.1146156 53.9559281,11.8262532 54.7484296,12.2172827 C54.7951184,12.8636767 54.6654081,13.573243 54.3642178,14.3458953 C54.0615604,15.119238 53.6889993,15.6668174 53.2456714,15.9901008 C51.2871579,15.1131106 49.6580552,14.6746156 48.3522357,14.6746156 C47.8856065,14.6746156 47.5322042,14.778263 47.2865054,14.9868524 C47.0428779,15.1948376 46.9214525,15.4596089 46.9214525,15.7828922 C46.9214525,16.3366853 47.3640037,16.77449 48.2499691,17.097687 L50.4182801,17.8614503 L50.4182801,17.8614503 Z" id="path23"></path>
            <path d="M39.1305491,18.1056819 C39.1305491,17.0447845 38.9617445,16.064147 38.6241352,15.1637693 C38.2872164,14.2634779 37.8034133,13.4914297 37.1747973,12.8450357 C36.5454908,12.1986417 35.7831084,11.6914511 34.8868731,11.3222557 C33.9892571,10.9537507 32.9818663,10.3978864 31.8640102,10.3978864 C30.5360977,10.3978864 29.3771625,10.9990587 28.3876359,11.460855 C27.3981094,11.9220472 26.5828244,12.5561002 25.9425578,13.3637907 C25.3009103,14.1720852 24.8233209,15.1232941 24.5090129,16.2191434 C24.1947049,17.315079 24.0375509,18.5090525 24.0375509,19.800546 C24.0375509,21.1373475 24.16519,22.3738673 24.421849,23.5040644 C24.6778175,24.6328807 25.1148455,25.6128278 25.7318972,26.4445962 C26.3494667,27.2748975 27.1530147,27.9206874 28.1432317,28.3811029 C29.1334486,28.8422951 30.3624602,29.1963879 31.8296625,29.1963879 C34.5313133,29.1963879 36.8137142,28.4140699 38.6774692,27.0999655 C38.4928715,25.763164 38.0166629,24.7001954 37.2515188,23.9158062 C36.2997058,24.2732646 35.4576675,24.5292332 34.7275616,24.6864735 C33.9967653,24.8416426 33.3523562,24.9198313 32.7958878,24.9198313 C31.6820879,24.9198313 30.8806111,24.636419 30.3941327,24.0641575 C29.9081721,23.4938809 29.6415885,22.8193528 29.5943819,21.7947881 L38.67885,21.7947881 C38.9789184,20.8245066 39.1305491,19.5131639 39.1305491,18.1056819 L39.1305491,18.1056819 Z M29.5597752,18.3452533 C29.6289886,17.167677 29.8438779,15.9077697 30.2014227,15.3890147 C30.5596579,14.8695694 31.1079277,14.6101488 31.8483035,14.6101488 C32.6107722,14.6101488 33.1830338,14.8860529 33.5638798,15.439846 C33.9455025,15.9936391 34.1361413,17.1094239 34.1361413,17.9630265 L34.1368317,18.3452533 L29.5597752,18.3452533 L29.5597752,18.3452533 L29.5597752,18.3452533 Z" id="path25"></path>
            <path d="M80.1291899,20.6475034 C79.1417345,21.5100813 78.5686963,22.7514339 78.5686963,24.3744093 L78.5686963,30.418668 C78.5686963,32.4279265 77.9510405,33.9561434 76.5559859,35.006771 C75.1622258,36.0560178 73.5372654,36.5754632 71.6823994,36.6255177 L70.5830981,36.6172328 L70.5830981,33.6054164 C71.552085,33.3226946 71.9500186,32.9940606 72.3356975,32.6207227 C73.0343036,31.9894314 73.569542,30.962105 73.569542,29.5354643 L73.569542,24.6557504 C73.5956048,22.9971327 73.7232439,21.6974406 74.3270916,20.758659 C74.9330968,19.8198774 76.112658,18.9991555 77.8659478,18.2902796 C75.9294411,17.4037101 74.6289723,16.245983 73.9660948,14.8179614 C73.5763597,13.9697958 73.5687653,12.8251865 73.5687653,11.385428 L73.5687653,6.91055095 C73.5687653,5.43238851 73.0849622,4.39694987 72.4900035,3.80604736 C72.1030301,3.42036847 71.6527982,3.11227413 70.5816309,2.8796931 L70.5816309,0.0523881206 C71.8916792,0.0661099695 72.5531758,0.0510936065 73.3162487,0.0523881206 C74.4910634,0.0428087166 75.4751529,0.685146588 76.3315171,1.35415145 C77.2641714,2.08770941 77.9269626,3.07939347 78.3154031,4.32756392 C78.5363335,5.04878085 78.5679196,5.73780752 78.5679196,6.39378094 L78.5679196,11.5693353 C78.5679196,13.3973617 79.1079909,14.75617 80.0309794,15.6434299 C80.5512014,16.1581287 81.2854498,16.628814 82.5460476,17.0536735 L82.5460476,19.3916522 C81.4289683,19.7005232 80.7276006,20.1190828 80.1291899,20.6475034 L80.1291899,20.6475034 Z" id="path27"></path>
            <path d="M10.639762,0.0539415374 L10.639762,0.0579976814 C10.2644392,0.055926459 9.92467244,0.054545644 9.65299709,0.0552360515 C8.47749203,0.04496624 7.49348875,0.687304111 6.63781496,1.35699938 C5.70386623,2.09055734 4.90446065,3.04789363 4.65401533,4.33041185 C4.51127359,5.08252451 4.54147891,5.73987875 4.54147891,6.39662887 L4.54147891,11.5721832 C4.54147891,13.3996055 3.86142753,14.7576371 2.93912942,15.6463641 C2.41959778,16.1609766 1.31063075,16.6309715 0.0493425605,17.0557447 L0.0493425605,19.3936371 C1.16719859,19.7018177 2.24328497,20.1189965 2.84022855,20.6487979 C3.82837427,21.5120662 4.5406159,22.7541956 4.5406159,24.3769984 L4.5406159,30.4212571 C4.5406159,32.429221 5.0196724,33.9588188 6.41334623,35.0079793 C7.80710635,36.0565356 9.43137628,36.5780522 11.2862423,36.6287971 L12.527595,36.6205123 L12.527595,33.6066246 C11.5592985,33.3232124 11.0213847,32.9944921 10.6336346,32.6225351 C9.93571896,31.990467 9.54046067,30.9639174 9.54046067,29.537967 L9.54046067,24.6575627 C9.51370738,22.9976505 9.24608817,21.6992529 8.64155011,20.7597809 C8.03701205,19.8223801 6.85736455,19.0002774 5.1020035,18.2920919 C7.03928692,17.404832 8.33897903,16.2477954 9.00185652,14.8204642 C9.39236826,13.9716081 9.54054697,12.8269988 9.54054697,11.3873266 L9.54054697,6.91244957 C9.54054697,5.43428713 9.88359319,4.39884849 10.4779477,3.80734187 C10.8004543,3.48621609 11.3740967,3.22196262 12.1709132,3.0079363 L13.4308206,3.01673899 L13.4308206,0.0536826346 L10.6399346,0.0536826346 L10.6399346,0.0539415374 L10.639762,0.0539415374 L10.639762,0.0539415374 Z" id="path29"></path>
            <path d="M22.2556092,24.5754042 L21.312081,24.5754042 C20.2862218,24.5754042 19.8998525,24.0360234 19.8998525,22.9525151 L19.8998525,3.03900463 C19.8998525,1.84157914 19.5540446,1.00092171 19.1113208,0.516514558 C18.6686833,0.0334019145 17.9001735,0.038234767 16.8056187,0.038234767 L14.6748486,0.038234767 L14.4237129,0.0334019145 L14.4237129,0.0539415374 L14.4216416,3.0177746 L14.4216416,23.9160651 C14.4216416,25.5780485 14.7949795,26.794115 15.4591515,27.5681481 C16.1241002,28.3408004 17.2474795,28.7264793 18.8312743,28.7264793 C19.9265195,28.7264793 21.172705,28.6111812 22.5698309,28.3798947 C22.6398209,28.146537 22.6748591,27.6470272 22.6748591,26.8805022 C22.6748591,26.1119061 22.5349653,25.3453812 22.2556092,24.5754042 L22.2556092,24.5754042 Z" id="path31"></path>
        </g>
    </g>
</svg>