<?xml version="1.0" encoding="UTF-8" standalone="no"?>
<svg width="24px" height="24px" viewBox="0 0 24 24" version="1.1" xmlns="http://www.w3.org/2000/svg" xmlns:xlink="http://www.w3.org/1999/xlink">
    <!-- Generator: Sketch 39.1 (31720) - http://www.bohemiancoding.com/sketch -->
    <title>Linkden</title>
    <desc>Created with Sketch.</desc>
    <defs></defs>
    <g id="Page-1" stroke="none" stroke-width="1" fill="none" fill-rule="evenodd">
        <g id="About-+-Contact" transform="translate(-1127.000000, -713.000000)">
            <g id="Linkden" transform="translate(1127.000000, 713.000000)">
                <path d="M24,22.5 C24,23.328 23.328,24 22.5,24 L1.5,24 C0.672,24 0,23.328 0,22.5 L0,1.5 C0,0.672 0.672,0 1.5,0 L22.5,0 C23.328,0 24,0.672 24,1.5 L24,22.5 L24,22.5 Z M5.25,8.25 L8.25,8.25 L8.25,18.75 L5.25,18.75 L5.25,8.25 L5.25,8.25 Z M15.37425,8.25 C13.281,8.25 12.921,9.0135 12.75,9.75 L12.75,8.25 L9.75,8.25 L9.75,18.75 L12.75,18.75 L12.75,12.75 C12.75,11.77725 13.27725,11.25 14.25,11.25 C15.1995,11.25 15.75,11.766 15.75,12.75 L15.75,18.75 L18.75,18.75 L18.75,13.5 C18.75,10.5 18.35925,8.25 15.37425,8.25 L15.37425,8.25 Z M6.75,7.5 C7.57842712,7.5 8.25,6.82842712 8.25,6 C8.25,5.17157288 7.57842712,4.5 6.75,4.5 C5.92157288,4.5 5.25,5.17157288 5.25,6 C5.25,6.82842712 5.92157288,7.5 6.75,7.5 L6.75,7.5 Z" id="Combined-Shape" fill="#B7AE9D"></path>
                <g id="Group" transform="translate(5.250000, 4.500000)"></g>
            </g>
        </g>
    </g>
</svg>