<?xml version="1.0" encoding="UTF-8" standalone="no"?>
<svg width="50px" height="50px" viewBox="0 0 50 50" version="1.1" xmlns="http://www.w3.org/2000/svg" xmlns:xlink="http://www.w3.org/1999/xlink">
    <!-- Generator: Sketch 39.1 (31720) - http://www.bohemiancoding.com/sketch -->
    <title>moment</title>
    <desc>Created with Sketch.</desc>
    <defs></defs>
    <g id="Page-1" stroke="none" stroke-width="1" fill="none" fill-rule="evenodd">
        <g id="moment" fill="#BBBDBF">
            <path d="M24.9027237,49.8681132 C38.6561183,49.8681132 49.8054475,38.718784 49.8054475,24.9653895 C49.8054475,11.2119949 38.6561183,0.062665747 24.9027237,0.062665747 C11.1493292,0.062665747 0,11.2119949 0,24.9653895 C0,38.718784 11.1493292,49.8681132 24.9027237,49.8681132 L24.9027237,49.8681132 L24.9027237,49.8681132 Z M24.9027237,46.1327047 C13.2123384,46.1327047 3.73540856,36.6557749 3.73540856,24.9653895 C3.73540856,13.2750041 13.2123384,3.79807431 24.9027237,3.79807431 C36.5931091,3.79807431 46.0700389,13.2750041 46.0700389,24.9653895 C46.0700389,36.6557749 36.5931091,46.1327047 24.9027237,46.1327047 L24.9027237,46.1327047 L24.9027237,46.1327047 Z" id="Shape"></path>
            <path d="M24.9805447,44.9653895 C35.9832603,44.9653895 44.9027237,36.0459261 44.9027237,25.0432105 C44.9027237,14.0404949 35.9832603,5.12103151 24.9805447,5.12103151 C13.9778291,5.12103151 5.05836576,14.0404949 5.05836576,25.0432105 C5.05836576,36.0459261 13.9778291,44.9653895 24.9805447,44.9653895 L24.9805447,44.9653895 L24.9805447,44.9653895 Z M24.9805447,6.36616769 C24.2928751,6.36616769 23.7354086,6.92641518 23.7354086,7.61982742 L23.7354086,23.7980743 L15.0157573,23.7980743 C14.3301299,23.7980743 13.7743191,24.3507465 13.7743191,25.0432105 C13.7743191,25.7308801 14.3416833,26.2883467 15.0137246,26.2883467 L26.2256809,26.2883467 L26.2256809,7.61238921 C26.2256809,6.92412007 25.6730088,6.36616769 24.9805447,6.36616769 L24.9805447,6.36616769 L24.9805447,6.36616769 Z" id="Shape"></path>
        </g>
    </g>
</svg>