<svg width="44" height="52" viewBox="0 0 44 52" xmlns="http://www.w3.org/2000/svg"><title>backbone</title><g stroke="#BBBDBF" stroke-width="2" fill="none" fill-rule="evenodd" stroke-linecap="round" stroke-linejoin="round"><path d="M28.289 35.743l6.934-3.706m6.464-3.455l.756-26.15-19.907 10.64m0 0L2.628 23.712 1.873 49.86 21.78 39.22m13.987-26.006l-.226 7.805m-3.29 5.391L8.55 39.08l.332-11.496 13.496-7.212m6.456-3.45l6.934-3.706"/><path d="M8.775 31.273l6.708 4.1m6.61-3.417l-.313 7.265 19.26 11.77.756-26.148-19.26-11.771-.111 7.389 12.904 7.886-.332 11.496M22.536 13.072L3.276 1.302l-.648 22.41m32.37 16.13l-12.905-7.886m0 0l-10.027-6.128m-2.973-5.572l.226-7.805 6.708 4.1"/></g></svg>