<svg width="112" height="118" viewBox="0 0 112 118" xmlns="http://www.w3.org/2000/svg"><title>backbone</title><g stroke="#898884" stroke-width="2" fill="none" fill-rule="evenodd" stroke-linecap="round" stroke-linejoin="round"><path d="M56.68 79.74l14.616.48m13.626.447l25.536-41.42-41.96-1.375m0 0l-41.963-1.376L1 77.915l41.961 1.376m46.716-28.884L82.054 62.77m-10.312 5.625l-49.96-1.64 11.225-18.207 28.446.933m13.608.447l14.616.479"/><path d="M29.404 54.393l6.993 12.843m13.824.643L42.96 79.29l20.078 36.872 25.535-41.418-20.077-36.873-7.05 11.799 13.452 24.705-11.225 18.208m4.823-54.712L48.42 1 26.535 36.497m37.139 56.087L50.222 67.879m0 0L39.769 48.683m.393-11.74l7.623-12.363 6.993 12.844"/></g></svg>