<svg width="56" height="50" viewBox="0 0 56 50" xmlns="http://www.w3.org/2000/svg"><title>bower</title><g fill="#BBBDBF" fill-rule="evenodd"><path d="M29.86 23.714zM43.899 26.637c3.448.66 6.749 1.322 7.787 1.586-.688 1.118-2.257 1.906-4.623 1.36 1.279 1.732-1.202 3.81-4.659 2.665.763 1.7-2.317 3.232-5.811 1.461.043 1.7-4.34 1.896-6.072.016 0 .003 0 .008.003.011-.052-.111-.107-.228-.159-.348.164.397.304.734.364.908.628 1.741-2.24 8.324-8.717 8.324-7.686 0-14.631-4.66-17.626-11.642.046.025.095.044.142.065-.047-.021-.096-.04-.142-.065-1-2.33-1.56-4.918-1.56-7.678 0-11.661 8.656-20.362 19.102-20.362 5.986 0 8.689 4.689 9.246 6.465-3.612 3.645-2.186 8.253-.871 10.336-1.87 3.095-5.547 5.214-9.818 6.18 3.56 0 6.17-.694 8-1.651.22-.18.457-.316.711-.408a9 9 0 0 0 .92-.667 7.688 7.688 0 0 0 1.528-1.656c5.46.354 13.364 1.779 17.236 2.755h.003c2.221.596 2.929.974 3.189 2.301-4.096-.57-10.711-1.164-14.712-1.468h-.002c-1.216-.096-2.192-.16-2.78-.193.97.138 5.247.922 9.321 1.705m-2.83-11.628c-1.386-.544-3.146-.887-4.378-.887-2.069 0-3.476 1.6-6.29.754 1.333 1.37 3.661.375 4.896.081.014.212.039.42.069.629-1.883.446-3.858 1.64-4.432 1.95-1.27-2.796-.178-5.44.833-6.661 4.53.01 8.186 3.109 9.301 4.134m6.02-10.652c-2.768 2.5-1.785 7.693-4.06 10.44-.651-.65-2.146-1.907-2.908-2.44 1.134-2.239 2.56-4.684 4.358-6.199-1.98.794-3.937 3.172-5.093 5.712a18.29 18.29 0 0 0-1.79-.998c1.612-3.427 5.361-6.292 9.493-6.515m-9.744 12.776c-.306-.658-.615-1.751-.577-2.393.514-.014 1.5.18 1.659.217-.06.3-.093.963-.096 1.047.099-.165.37-.745.481-.97.987.187 2.285.5 3.047.854-.894.576-2.413 1.202-4.514 1.245m17.435 7.119c-2.847-2.726-17.09-4.426-21.586-4.92a12.84 12.84 0 0 0 .555-1.59 18.225 18.225 0 0 1 1.96-.72c.084.245.475 1.18.699 1.626 9.039.248 9.503-6.685 9.87-8.587.36-1.855.34-3.65 3.442-6.933-4.62-1.338-11.263 2.078-13.487 7.162a13.94 13.94 0 0 0-2.503-.683c-.593-2.385-3.686-9.03-11.801-9.03C11.654.577.457 9.017.457 23.3c0 12.006 8.232 22.53 12.886 22.53 2.033 0 3.781-1.516 4.191-2.873.344.93 1.4 3.824 1.746 4.561.511 1.088 2.883 2.032 3.918.9 1.334.738 3.78 1.184 5.113-.783 2.568.539 4.839-.984 4.888-2.804 1.26-.065 1.877-1.828 1.604-3.229-.205-1.033-2.37-4.738-3.216-6.019 1.675 1.357 5.91 1.74 6.426.003 2.697 2.108 6.9 1 7.233-.713 3.279.846 7.039-1.014 6.421-3.27 5.265-.361 4.59-5.94 3.112-7.351"/><path d="M21.864 10.705c.929 0 1.683.465 1.683 1.042s-.754 1.042-1.683 1.042c-.93 0-1.683-.465-1.683-1.042s.754-1.042 1.683-1.042m0 5.193a2.88 2.88 0 0 0 2.888-2.875 2.88 2.88 0 0 0-2.888-2.875 2.88 2.88 0 0 0-2.888 2.875 2.88 2.88 0 0 0 2.888 2.875"/></g></svg>