<svg width="24" height="25" viewBox="0 0 24 25" xmlns="http://www.w3.org/2000/svg"><title>codepen</title><path d="M2.893 16.085l8.076 5.384V16.66l-4.473-2.987-3.603 2.41zm-.83-1.929l2.584-1.727L2.062 10.7v3.455zM13.03 21.47l8.076-5.384-3.603-2.41-4.473 2.986v4.808zM12 14.866l3.643-2.437L12 9.99 8.357 12.43 12 14.866zm-5.504-3.683l4.473-2.987V3.388L2.893 8.772l3.603 2.411zm12.857 1.246l2.584 1.727v-3.455l-2.584 1.728zm-1.849-1.246l3.603-2.41-8.076-5.385v4.808l4.473 2.987zM24 8.773v7.312a.979.979 0 0 1-.455.857l-10.97 7.312c-.187.117-.379.175-.575.175-.196 0-.388-.058-.576-.175L.455 16.942A.979.979 0 0 1 0 16.085V8.772c0-.366.152-.651.455-.857L11.425.603c.187-.116.379-.174.575-.174.196 0 .388.058.576.174l10.969 7.312a.979.979 0 0 1 .455.857z" fill="#B7AE9D" fill-rule="evenodd"/></svg>