<svg width="36" height="50" viewBox="0 0 36 50" xmlns="http://www.w3.org/2000/svg"><title>css3</title><g fill="none" fill-rule="evenodd"><path d="M28.24 1.846h-2.932l3.05 3.309V6.73h-6.281V4.886h3.048l-3.048-3.309V0h6.163v1.846zm-7.408 0H17.9l3.049 3.309V6.73h-6.28V4.886h3.048l-3.049-3.309V0h6.164v1.846zm-7.336.075h-3.164V4.81h3.164v1.92H8.083V0h5.413v1.921zM3.764 45.9L.549 9.842h35.326l-3.218 36.054-14.467 4.01z" fill="#BBBDBF"/><path d="M18.27 17.205H29.352l-.106 1.186-1.07 12-.017.188.002-.024-.754 8.432-.067.747-9.05 2.509-.021.006-9.06-2.515-.619-6.944h4.439l.315 3.527 4.926 1.33h.004v-.001l4.932-1.332.516-5.735h-5.46v-4.423h5.853l.404-4.528H7.595l-.088-.995-.202-2.242-.106-1.186H18.27zm-.007 8.952v4.422H13.4l-.09-.994-.2-2.242-.106-1.186h5.259z" fill="#FFF"/></g></svg>