<svg width="75" height="12" viewBox="0 0 75 12" xmlns="http://www.w3.org/2000/svg"><title>DESIGN</title><path d="M.077 11V.512h3.227c.922 0 1.747.208 2.475.623a4.345 4.345 0 0 1 1.703 1.772c.408.766.612 1.637.612 2.611v.483c0 .975-.2 1.842-.601 2.6a4.307 4.307 0 0 1-1.696 1.765c-.73.418-1.554.63-2.471.634H.077zm2.161-8.737v7.001h1.045c.845 0 1.49-.276 1.937-.828.447-.553.675-1.342.685-2.37V5.51c0-1.066-.221-1.874-.663-2.424-.442-.55-1.088-.824-1.938-.824H2.238zm18.737 4.192h-4.15v2.81h4.87V11h-7.03V.512h7.015v1.75h-4.854v2.5h4.149v1.693zM33.4 8.248c0-.408-.144-.721-.432-.94-.288-.218-.807-.449-1.556-.691-.75-.243-1.342-.481-1.78-.717-1.19-.643-1.786-1.51-1.786-2.6 0-.567.16-1.072.48-1.516.319-.445.777-.791 1.375-1.041.598-.25 1.27-.375 2.013-.375.75 0 1.417.136 2.003.407.586.272 1.04.655 1.365 1.15.324.494.486 1.056.486 1.685h-2.16c0-.48-.152-.854-.455-1.12-.302-.267-.727-.4-1.275-.4-.528 0-.938.111-1.231.335-.293.223-.44.517-.44.882 0 .341.172.627.515.857.344.23.85.447 1.517.649 1.229.37 2.124.828 2.686 1.375.562.548.843 1.23.843 2.046 0 .908-.343 1.62-1.03 2.136s-1.611.774-2.773.774c-.807 0-1.542-.148-2.204-.443-.663-.295-1.168-.7-1.517-1.214-.348-.513-.522-1.109-.522-1.786h2.168c0 1.157.692 1.736 2.075 1.736.514 0 .915-.105 1.203-.313.288-.21.432-.501.432-.876zM44.329 11h-2.16V.512h2.16V11zm15.3-1.325c-.389.465-.938.827-1.65 1.084-.71.257-1.497.385-2.362.385-.907 0-1.703-.198-2.387-.594-.685-.396-1.213-.971-1.585-1.725-.372-.754-.563-1.64-.573-2.658v-.713c0-1.047.177-1.954.53-2.72.353-.765.862-1.351 1.527-1.757.665-.406 1.444-.609 2.337-.609 1.244 0 2.216.297 2.917.89.701.593 1.117 1.456 1.246 2.59h-2.103c-.096-.6-.308-1.04-.637-1.319-.33-.278-.782-.418-1.358-.418-.735 0-1.294.277-1.678.829-.385.552-.58 1.373-.584 2.463v.67c0 1.1.209 1.93.627 2.492.418.562 1.03.843 1.837.843.811 0 1.39-.173 1.736-.518V7.082h-1.967V5.49h4.127v4.185zM74.91 11h-2.162l-4.206-6.9V11H66.38V.512h2.16l4.214 6.915V.512h2.154V11z" fill="#B6B6B6" fill-rule="evenodd"/></svg>