<svg width="18" height="18" viewBox="0 0 18 18" xmlns="http://www.w3.org/2000/svg"><title>facebook@2x</title><g fill="none" fill-rule="evenodd"><path d="M16.963 17.952a.989.989 0 0 0 .989-.989V1.03a.988.988 0 0 0-.989-.988H1.03a.988.988 0 0 0-.988.988v15.934c0 .546.442.989.988.989h15.934z" fill="#3C5A99"/><path d="M12.4 17.952v-6.936h2.327l.349-2.703h-2.677V6.587c0-.783.217-1.316 1.34-1.316h1.431V2.852a19.135 19.135 0 0 0-2.086-.107c-2.063 0-3.476 1.26-3.476 3.573v1.994H7.274v2.703h2.334v6.936h2.791z" fill="#FFF"/></g></svg>