<svg width="21" height="21" viewBox="0 0 21 21" xmlns="http://www.w3.org/2000/svg"><title>github</title><path d="M20.571 10.429c0 2.24-.654 4.256-1.962 6.046-1.308 1.79-2.997 3.03-5.069 3.717-.24.045-.417.013-.529-.094a.534.534 0 0 1-.167-.402v-2.825c0-.867-.232-1.5-.697-1.902a9.173 9.173 0 0 0 1.373-.241 5.47 5.47 0 0 0 1.259-.523 3.743 3.743 0 0 0 1.085-.89c.29-.353.527-.822.71-1.407.183-.584.274-1.256.274-2.015 0-1.08-.352-2-1.058-2.76.33-.812.295-1.722-.107-2.731-.25-.08-.612-.031-1.085.147a7.214 7.214 0 0 0-1.232.59l-.509.32a9.505 9.505 0 0 0-2.571-.347c-.884 0-1.741.116-2.572.348a11.885 11.885 0 0 0-.569-.362c-.237-.143-.61-.315-1.118-.515-.51-.201-.893-.262-1.152-.181-.393 1.009-.424 1.92-.094 2.732-.705.759-1.058 1.678-1.058 2.759 0 .759.092 1.428.275 2.009.183.58.417 1.049.703 1.406s.645.656 1.078.897a5.47 5.47 0 0 0 1.259.523c.406.107.864.187 1.373.24-.357.322-.576.782-.657 1.38-.187.09-.388.156-.602.201a3.79 3.79 0 0 1-.764.067c-.294 0-.587-.096-.877-.288-.29-.192-.538-.47-.743-.837a2.16 2.16 0 0 0-.65-.696c-.263-.179-.484-.286-.663-.322l-.268-.04c-.187 0-.316.02-.388.06-.071.04-.094.092-.067.154a.738.738 0 0 0 .12.188.98.98 0 0 0 .175.16l.094.068c.196.089.39.258.582.508.192.25.333.478.422.683l.134.308c.116.34.312.614.59.824.276.21.575.344.897.402.321.058.631.09.93.094.3.004.547-.011.744-.047l.308-.054c0 .34.002.737.006 1.192l.007.723c0 .161-.058.295-.174.402-.116.107-.295.139-.536.094-2.071-.688-3.76-1.926-5.069-3.717C.654 14.685 0 12.67 0 10.43c0-1.867.46-3.587 1.38-5.163a10.24 10.24 0 0 1 3.743-3.744C6.699.602 8.42.142 10.286.142s3.587.46 5.163 1.38a10.24 10.24 0 0 1 3.743 3.744c.92 1.576 1.38 3.296 1.38 5.163z" fill="#B7AE9D" fill-rule="evenodd"/></svg>