<svg width="170" height="105" viewBox="0 0 170 105" xmlns="http://www.w3.org/2000/svg"><title>glasses</title><g stroke="#37342D" stroke-width="2" fill="none" fill-rule="evenodd" stroke-linecap="round" stroke-linejoin="round"><path d="M18.939 86A502.978 502.978 0 0 0 11 102.57s7.902 2.937 11.761-4.02c1.071-1.929 1.803-4.564 2.523-7.557M26.265 86.771c1.684-7.116 3.943-15.302 10.281-20.825 10.357-9.025 29.82-18.371 29.82-18.371s-5.067-3.357-10.739-2.405c-5.671.953-17.139 11.139-23.989 18.906C28.784 67.312 24.743 74.448 21 81.674M15 72.611L31.318 65M146.941 33.092c-6.431-3.478-14.044-7.239-22.384-6.183C110.928 28.634 91 36.942 91 36.942s.866-6.016 5.351-9.615c4.485-3.6 19.72-5.38 30.076-5.326 4.267.022 12.152 1.717 19.951 3.703M150.621 26a503.005 503.005 0 0 1 17.652 5.101s-3.067 7.853-10.828 6.104c-2.185-.493-4.682-1.729-7.445-3.213M143.553 15L127 22.085"/><path d="M50.928 90.263c-23.643 8.718-34.043-14.485-36.38-19.699-2.336-5.214 2.464-9.87 20.885-19.065 18.42-9.195 29.36-7.837 33.414-.888 0 0 13.175 28.187-17.92 39.652z"/><path d="M149.11 1c-22.987 5.293-40.715 13.239-51.458 19.306-10.743 6.067-10.24 9.285-13.126 14.023-2.958.386-13.386 5.06-15.643 7.01-5.456-.998-7.524-3.515-19.2.467-11.679 3.981-29.407 11.926-48.655 25.562-.396 3.308 3.505 7.821 3.505 7.821 4.09.046 6.473 1.17 7.317 2.356.845 1.187 17.142 27.069 44.22 12.742C83.146 75.96 73.223 56.613 74.455 51.678c1.232-4.935 3.75-7.003 5.053-7.587 1.304-.584 4.522-1.087 9.026 1.277 4.503 2.365 12.341 22.646 41.054 11.969 28.714-10.678 20.24-40.066 19.915-41.486-.323-1.42.423-3.946 3.111-7.03 0 0-.772-5.915-3.505-7.821z"/><path d="M133.042 53.714c22.24-11.847 11.842-35.05 9.505-40.264-2.337-5.214-9.007-4.729-28.13 2.902-19.12 7.63-25.387 16.7-22.897 24.351 0 0 12.272 28.591 41.522 13.011z"/></g></svg>