<svg width="170" height="104" viewBox="0 0 170 104" xmlns="http://www.w3.org/2000/svg"><title>glasses</title><g stroke="#898884" stroke-width="2" fill="none" fill-rule="evenodd" stroke-linecap="round" stroke-linejoin="round"><path d="M18.503 85.346a502.978 502.978 0 0 0-7.939 16.57s7.902 2.937 11.761-4.02c1.071-1.929 1.803-4.564 2.523-7.557M25.726 86.605c1.684-7.116 3.943-15.302 10.281-20.825 10.357-9.025 29.82-18.371 29.82-18.371s-5.067-3.357-10.739-2.405c-5.67.953-17.139 11.139-23.989 18.906-2.854 3.236-6.895 10.372-10.638 17.598M14.908 71.793l16.318-7.612M147.032 32.236c-6.431-3.478-14.044-7.24-22.384-6.183-13.629 1.725-33.557 10.033-33.557 10.033s.866-6.016 5.351-9.615c4.485-3.6 19.72-5.381 30.076-5.326 4.267.022 12.152 1.717 19.951 3.703M150.901 26.008a503.005 503.005 0 0 1 17.652 5.1s-3.067 7.854-10.828 6.105c-2.185-.493-4.682-1.73-7.445-3.213M143.176 14.305l-16.553 7.085"/><path d="M50.703 90.188C27.06 98.906 16.66 75.703 14.323 70.49c-2.336-5.214 2.464-9.87 20.885-19.065 18.42-9.195 29.361-7.837 33.414-.888 0 0 13.175 28.187-17.919 39.652z"/><path d="M149.11 1c-22.986 5.293-40.714 13.24-51.457 19.306-10.743 6.067-10.24 9.285-13.126 14.023-2.958.386-13.386 5.06-15.643 7.01-5.456-.998-7.524-3.515-19.201.467-11.678 3.981-29.406 11.926-48.654 25.562-.396 3.308 3.505 7.821 3.505 7.821 4.09.046 6.473 1.17 7.317 2.356.845 1.187 17.142 27.07 44.219 12.742C83.148 75.96 73.225 56.613 74.457 51.678c1.232-4.935 3.749-7.003 5.053-7.587 1.304-.584 4.522-1.087 9.026 1.277 4.503 2.365 12.34 22.646 41.054 11.97 28.714-10.679 20.239-40.067 19.915-41.487-.323-1.42.423-3.946 3.11-7.03 0 0-.771-5.915-3.504-7.82z"/><path d="M133.087 53.265c22.241-11.847 11.842-35.05 9.505-40.264-2.337-5.214-9.007-4.729-28.129 2.902-19.12 7.63-25.388 16.7-22.898 24.351 0 0 12.272 28.591 41.522 13.011z"/></g></svg>