<svg width="38" height="50" viewBox="0 0 38 50" xmlns="http://www.w3.org/2000/svg"><title>grunt</title><g fill="#BBBDBF" fill-rule="evenodd"><path d="M13.523 6.032c-.123-2.598 2.006-4.667 2.744-4.755.041.44-.04 2.157.697 2.685.215-1.402.941-2.949 3.81-3.962-.615 1.63-.083 2.994.17 3.626 1.96-1.777 3.279-1.483 3.279-1.483s-1.361 2.348-.829 3.888c-3.931-.308-9.852.418-9.87.001zM5.188 9.99c-.938-.779-.239-1.501-.313-2.385-.04-.47-.078-.915-.233-1.16-.863-1.363-2.9-1.776-2.92-1.78l-.956-.188.633-.74C1.481 3.64 4.08 1.162 8.1 2.46c2.813.907 4.895 3.983 4.973 4.108l-1.41.663C11.646 7.205 10 4.313 7.587 3.535c-1.95-.63-3.749-.03-4.519.362.819.327 1.89.922 2.534 1.94.304.481.356 1.086.405 1.673.066.776.127 1.509.698 1.983l-1.517.497zM2.682 21.35s1.182-1.465 1.532-4.317c.138-1.123-.106-3.339-.497-4.191.07 2.095-.462 4.191-.462 4.191s-.359 3.891-.573 4.318z"/><path d="M8.915 8.51c0-.004-.38-1.658-1.43-2.494-1.48-1.178-3.288-.551-3.306-.545l-.262-.812c.087-.028 2.154-.68 4.059.66 1.916 1.346 2.146 2.567 2.165 2.701l-1.226.49zM6.395 20.3s-.62-.888-.509-1.864c.056-.482.279-.977.678-1.153.741-.326 1.07.515 1.07.515s-1.044.257-1.24 2.502z"/><path d="M13.203 21.653l.039.075s-1.934 1.451-3.916-.021c-1.06-.79-.96-2.742-.636-3.57a6.38 6.38 0 0 1 2.162.94c-.758-.675-1.42-1.173-1.419-1.184l-.86-.244-1.673-.574c-.022.128-.632 2.988 1.13 4.937.78.864 4.44 2.8 6.178-.51l-1.005.15z"/><path d="M13.022 21.865c1.089 1.658 3.836.71 3.789-1.042 0 0-1.836 1.014-3.458-.852-.947-1.089-3.981-4.092-8.096-3.094 2.842.625 6.604 3.221 7.765 4.988z"/><path d="M4.873 26.543c.262.151 1.186 1.108 1.186 2.539 0 .717-.071 4.322-.426 6.524.534.347.906.42 1.438.775.266-2.55.457-6.247.368-7.74-.102-1.7-1.013-2.842-1.857-3.329a35.93 35.93 0 0 0-.82-.452c-1.446-.782-2.942-1.59-2.942-2.971 0-1.08.42-1.418.864-1.776l.048-.04c.295-.237.63-.508.827-.952.54-1.213.628-4.304 0-5.089-.313-.39-1.152-1.706-.91-2.59.091-.336.304-.586.65-.763.365-.188.86-.283 1.468-.283 1.195 0 2.52.364 3.205.58 2.443.775 5.392 3.008 6.237 3.674l.041.032.541.376-.338-.566c-.02-.036-2.163-3.558-5.994-4.85-.745-.251-2.21-.673-3.648-.673-.857 0-1.584.15-2.16.445-.7.358-1.176.93-1.373 1.655-.484 1.774 1.092 3.75 1.145 3.813.184.328.262 2.71-.162 3.663-.059.131-.219.26-.421.424-.064.051-.135.105-.21.162-.599.452-1.504 1.134-1.504 2.708 0 2.153 2.182 3.32 3.936 4.26.288.154.563.3.81.444z"/><path d="M5.188 9.99c-.938-.779-.239-1.501-.313-2.385-.04-.47-.078-.915-.233-1.16-.863-1.363-2.9-1.776-2.92-1.78l-.956-.188.633-.74C1.481 3.64 4.08 1.162 8.1 2.46c2.813.907 4.895 3.983 4.973 4.108l-1.41.663C11.646 7.205 10 4.313 7.587 3.535c-1.95-.63-3.749-.03-4.519.362.819.327 1.89.922 2.534 1.94.304.481.356 1.086.405 1.673.066.776.127 1.509.698 1.983l-1.517.497z"/><path d="M5.158 10.149l-.061-.05c-.696-.578-.572-1.146-.453-1.697.054-.253.112-.516.089-.785-.038-.453-.075-.88-.211-1.096C3.7 5.223 1.713 4.807 1.694 4.803L.5 4.57l.791-.925c.015-.017 1.683-1.701 4.508-1.701.77 0 1.56.128 2.345.382 2.936.946 5.03 4.136 5.05 4.167l.084.136-1.668.784-.067-.106C11.363 7 9.782 4.391 7.544 3.669a5.592 5.592 0 0 0-1.72-.267 6.273 6.273 0 0 0-2.405.489c.773.348 1.711.934 2.304 1.87.323.51.375 1.132.426 1.734.063.748.122 1.452.647 1.888l.198.164-1.836.602z"/><path d="M8.915 8.51c0-.004-.38-1.658-1.43-2.494-1.48-1.178-3.288-.551-3.306-.545l-.262-.812c.087-.028 2.154-.68 4.059.66 1.916 1.346 2.146 2.567 2.165 2.701l-1.226.49zM14.097 43.979c-.42 0-.848-.153-1.145-.41-.227-.195-.996-.901-1.335-1.766-.126-.324-.098-.582.086-.769.126-.127.389-.28.922-.28h2.866c.405 0 .696.087.863.258.214.22.146.5.086.649-.105.258-.537 1.1-1.27 1.883-.261.28-.643.435-1.073.435zM14.537 21.963l-1.515-.098s.387.683.638 1.566c.283 1-.26 2.46-.26 2.46s2.021-2.288 1.137-3.928zM12.645 47.98c-5.393-.414-7.291-5.51-7.291-6.572h1.409-.705.705c.007.458 1.44 4.818 5.99 5.168l-.108 1.404z"/><path d="M11.064 38.086c.006-.444.096-.874.31-1.302.016-.03.033-.058.05-.087-1.403-.012-3.018-.146-4.393-.696-1.511-.605-3.402-2.673-3.727-5.104 0 0-2.846 2.197-2.01 6.898.785 4.415 4.48 5.854 8.693 6.098.002-.029-.474-1.012-.324-1.614-2.392.174-5.067-.75-6.359-2.876-1.182-1.945-.85-5.265-.365-5.752 1.186 3.74 5.45 4.5 8.125 4.435z"/><path d="M11.505 35.409c-.758 2.225-2.306 4.025-2.306 4.025s2.13-.097 2.247-.474c.088-.278 1.924-4.577 2.629-9.613-.663 1.09-2.505 5.871-2.57 6.062zM32.046 9.99c.938-.779.24-1.501.314-2.385.04-.47.076-.915.232-1.16.863-1.363 2.9-1.776 2.92-1.78l.956-.188-.632-.74c-.082-.096-2.68-2.575-6.702-1.277-2.813.907-4.895 3.983-4.972 4.108l1.41.663c.017-.026 1.663-2.918 4.076-3.696 1.95-.63 3.748-.03 4.518.362-.818.327-1.889.922-2.534 1.94-.304.481-.355 1.086-.404 1.673-.066.776-.128 1.509-.699 1.983l1.517.497zM34.551 21.35s-1.181-1.465-1.531-4.317c-.138-1.123.106-3.339.497-4.191-.071 2.095.462 4.191.462 4.191s.36 3.891.572 4.318z"/><path d="M28.32 8.51c0-.004.379-1.658 1.429-2.494 1.48-1.178 3.288-.551 3.305-.545l.264-.812c-.088-.028-2.155-.68-4.06.66-1.916 1.346-2.145 2.567-2.166 2.701l1.227.49zM30.84 20.3s.62-.888.507-1.864c-.054-.482-.278-.977-.677-1.153-.74-.326-1.07.515-1.07.515s1.044.257 1.24 2.502z"/><path d="M24.031 21.653l-.039.075s1.934 1.451 3.916-.021c1.061-.79.96-2.742.635-3.57a6.384 6.384 0 0 0-2.16.94c.757-.675 1.42-1.173 1.417-1.184l.861-.244 1.673-.573c.022.127.632 2.988-1.13 4.936-.78.865-4.44 2.8-6.178-.51l1.005.15z"/><path d="M24.212 21.865c-1.089 1.658-3.836.71-3.788-1.042 0 0 1.835 1.014 3.457-.852.947-1.089 3.982-4.092 8.096-3.094-2.841.625-6.603 3.221-7.765 4.988z"/><path d="M32.362 26.543c-.262.151-1.187 1.108-1.187 2.539 0 .717.071 4.322.427 6.524-.534.347-.906.42-1.438.775-.267-2.55-.458-6.247-.369-7.74.102-1.7 1.013-2.842 1.857-3.329.265-.152.541-.302.82-.452 1.447-.782 2.943-1.59 2.943-2.971 0-1.08-.42-1.418-.865-1.776l-.048-.04c-.295-.237-.629-.508-.826-.952-.54-1.213-.629-4.304 0-5.089.312-.39 1.151-1.706.91-2.59-.092-.336-.305-.586-.65-.763-.366-.188-.86-.283-1.469-.283-1.194 0-2.52.364-3.204.58-2.444.775-5.392 3.008-6.238 3.674l-.041.032-.541.376.338-.566c.022-.036 2.164-3.558 5.994-4.85.745-.251 2.21-.673 3.648-.673.857 0 1.583.15 2.16.445.7.358 1.176.93 1.373 1.655.484 1.774-1.091 3.75-1.145 3.813-.184.328-.262 2.71.162 3.663.059.131.219.26.422.424.063.051.133.105.21.162.598.452 1.503 1.134 1.503 2.708 0 2.153-2.183 3.32-3.936 4.26-.288.154-.563.3-.81.444z"/><path d="M29.759 9.736c-.348-.588-1.235-1.723-3.281-2.72-2.283-1.113-4.926-1.678-7.855-1.68h-.012c-2.93.002-5.573.567-7.855 1.68-2.046.997-2.933 2.132-3.28 2.72l-.15.197 1.752.39.056-.07.029-.064c.027-.116.262-.741 2.215-1.694 2.088-1.018 4.524-1.535 7.239-1.536 2.715.001 5.15.518 7.237 1.536 1.954.953 2.19 1.578 2.216 1.694l.03.064.054.07 1.753-.39-.148-.197z"/><path d="M32.046 9.99c.938-.779.24-1.501.314-2.385.04-.47.076-.915.232-1.16.863-1.363 2.9-1.776 2.92-1.78l.956-.188-.632-.74c-.082-.096-2.68-2.575-6.702-1.277-2.813.907-4.895 3.983-4.972 4.108l1.41.663c.017-.026 1.663-2.918 4.076-3.696 1.95-.63 3.748-.03 4.518.362-.818.327-1.889.922-2.534 1.94-.304.481-.355 1.086-.404 1.673-.066.776-.128 1.509-.699 1.983l1.517.497z"/><path d="M30.24 9.547l.198-.164c.525-.436.584-1.14.648-1.888.05-.602.103-1.225.426-1.734.592-.935 1.53-1.521 2.303-1.87a6.279 6.279 0 0 0-2.404-.488c-.592 0-1.17.09-1.72.267-2.238.722-3.82 3.33-4 3.637l-.066.106-1.669-.785.085-.135c.02-.032 2.114-3.221 5.05-4.168a7.63 7.63 0 0 1 2.344-.381c2.826 0 4.494 1.684 4.509 1.7l.791.926-1.194.234c-.02.004-2.006.42-2.829 1.718-.136.216-.172.642-.21 1.095-.023.27.034.532.089.786.119.55.242 1.12-.454 1.696l-.06.05-1.837-.602z"/><path d="M28.32 8.51c0-.004.379-1.658 1.429-2.494 1.48-1.178 3.288-.551 3.305-.545l.264-.812c-.088-.028-2.155-.68-4.06.66-1.916 1.346-2.145 2.567-2.166 2.701l1.227.49z"/><path d="M26.936 8.11l.016-.11c.021-.141.261-1.417 2.225-2.798a4.838 4.838 0 0 1 2.8-.868c.776 0 1.324.171 1.385.19l.135.044-.352 1.082-.136-.045a3.788 3.788 0 0 0-1.122-.164c-.787 0-1.477.23-2.05.687-1.003.798-1.375 2.396-1.378 2.412l-.037.163-1.486-.592zm6.026-2.815l.175-.539a4.814 4.814 0 0 0-1.16-.137c-.98 0-1.866.275-2.637.816-1.611 1.133-1.996 2.156-2.084 2.498l.967.385c.127-.45.546-1.703 1.437-2.413.616-.49 1.386-.748 2.227-.748.483 0 .873.084 1.075.138zM22.064 43.544c-.732-.783-1.165-1.625-1.27-1.883-.06-.148-.128-.429.087-.65.167-.17.457-.258.863-.258h2.487l.379.001c.532 0 .795.153.921.28.184.186.213.445.086.769-.339.865-1.108 1.57-1.335 1.766-.297.257-.725.41-1.145.41-.43 0-.811-.155-1.073-.435zM22.697 21.963l1.515-.098s-.387.683-.638 1.566c-.283 1 .26 2.46.26 2.46s-2.021-2.288-1.137-3.928zM21.277 16.542c-.97.586-1.834.79-2.66.807-.825-.018-1.69-.22-2.659-.807 0 0 1.41 1.722 2.652 1.735h.014c1.241-.013 2.653-1.735 2.653-1.735zM24.589 47.98l-.108-1.404c4.55-.35 5.983-4.71 5.99-5.169h1.409c0 1.062-1.898 6.159-7.291 6.573z"/><path d="M26.17 38.086a2.927 2.927 0 0 0-.31-1.302c-.016-.03-.033-.058-.05-.087 1.403-.012 3.018-.146 4.393-.696 1.511-.605 3.402-2.673 3.727-5.104 0 0 2.846 2.197 2.01 6.898-.786 4.415-4.48 5.854-8.693 6.098-.002-.029.474-1.012.324-1.614 2.392.174 5.067-.75 6.36-2.876 1.18-1.945.85-5.265.363-5.752-1.185 3.74-5.45 4.5-8.124 4.435z"/><path d="M27.871 39.194C27.368 38.649 26.442 38 24.308 38l-5.684-.004h-.014l-5.684.004c-2.134 0-3.059.649-3.563 1.193-.733.792-.848 1.893-.34 3.27 1.348 3.666 3.243 7.39 9.587 7.395h.014c6.344-.006 8.239-3.73 9.588-7.395.507-1.377.392-2.478-.341-3.27zm-.988 3.013c-.642 1.84-2.37 6.296-8.266 6.304-5.898-.008-7.624-4.463-8.266-6.304-.356-1.02-.329-1.777.083-2.246.28-.32.927-.704 2.399-.704h1.538c1.135-.001 2.56-.003 4.246-.003 1.687 0 3.112.002 4.246.003h1.538c1.472 0 2.118.383 2.4.704.41.47.438 1.225.082 2.246z"/><path d="M25.728 35.409c.759 2.225 2.307 4.025 2.307 4.025s-2.13-.097-2.248-.474c-.086-.278-1.923-4.577-2.628-9.613.663 1.09 2.504 5.871 2.57 6.062z"/></g></svg>