<svg width="36" height="50" viewBox="0 0 36 50" xmlns="http://www.w3.org/2000/svg"><title>html5</title><g fill="none" fill-rule="evenodd"><path fill="#BBBDBF" d="M3.336 45.907L.114 9.762h35.41L32.3 45.902l-14.502 4.02z"/><path d="M17.77 21.576h-6.264l.405 4.54h16.156l-.108 1.19-1.042 11.67-.067.75-9.073 2.514-.02.007-9.08-2.521-.622-6.96H12.506l.315 3.535 4.937 1.333.004-.001 4.944-1.335.515-5.75H7.857l-1.09-12.216-.106-1.19h22.206l-.106 1.19-.202 2.248-.089.996h-10.7z" fill="#FFF"/><path fill="#BBBDBF" d="M3.328 0h2.253v2.226h2.06V0h2.254v6.74H7.642V4.483h-2.06V6.74H3.327V0zM12.93 2.235h-1.983V0h6.22v2.235h-1.984V6.74h-2.252V2.235zM18.09 0h2.35l1.444 2.368L23.328 0h2.35v6.74h-2.244V3.4l-1.55 2.396h-.039l-1.55-2.397V6.74H18.09V0zM26.78 0h2.254v4.512h3.168V6.74H26.78V0z"/></g></svg>