<svg width="159" height="192" viewBox="0 0 159 192" xmlns="http://www.w3.org/2000/svg"><title>iphone</title><g stroke="#37342D" stroke-width="2" fill="none" fill-rule="evenodd" stroke-linecap="round" stroke-linejoin="round"><path d="M7.132 34.97C1.612 38.26-.208 45.445 3.077 50.99l79.346 133.944c3.285 5.545 10.448 7.38 15.969 4.092l53.294-31.743c5.52-3.288 7.34-10.474 4.055-16.018L76.395 7.32C73.11 1.774 65.948-.061 60.427 3.227L7.132 34.97z"/><path d="M29.009 35.092a1.5 1.5 0 1 1-2.58 1.532 1.5 1.5 0 0 1 2.58-1.532zM37.335 23.785a.999.999 0 1 1-1.718 1.02.999.999 0 0 1 1.718-1.02zM44.72 26.597L33.9 33.409c-.228.144-.53.056-.67-.194l-.168-.299c-.14-.25-.07-.573.16-.716l10.819-6.811c.228-.145.53-.058.67.193l.168.298c.142.25.07.573-.16.717zM148.697 135.664L81.62 175.455 11.157 56.985l67.077-39.792 70.463 118.471zM97.316 39.953l-.963.595-6.082-10.635.962-.595 6.083 10.635zM10.873 66.328l-.9.605-3.22-6.076.9-.604 3.22 6.075zM23.077 84.206l-1.129.645-7.082-11.442 1.129-.644 7.082 11.441zM31.577 98.929l-1.129.644-7.082-11.442 1.129-.644 7.082 11.442z"/></g></svg>