<svg width="137" height="193" viewBox="0 0 137 193" xmlns="http://www.w3.org/2000/svg"><title>iphone</title><g stroke="#898884" stroke-width="2" fill="none" fill-rule="evenodd" stroke-linecap="round" stroke-linejoin="round"><path d="M8.73 22.623c-6.054 2.169-9.215 8.859-7.046 14.913l52.397 146.257c2.169 6.054 8.859 9.215 14.913 7.046L127.44 169.9c6.054-2.17 9.215-8.86 7.046-14.913L82.089 8.73c-2.168-6.054-8.858-9.214-14.912-7.046L8.73 22.623z"/><path d="M30.168 26.6a1.445 1.445 0 1 1-2.72.975 1.445 1.445 0 0 1 2.72-.974zM40.595 16.685a.958.958 0 1 1-1.803.647.958.958 0 0 1 1.803-.647zM48.033 20.909l-12.306 4.409a.504.504 0 0 1-.642-.304l-.111-.31a.503.503 0 0 1 .303-.642l12.306-4.408a.503.503 0 0 1 .642.303l.11.31a.503.503 0 0 1-.302.642zM127.993 148.13L54.742 174.37 8.297 44.727l73.251-26.243zM100.726 167.993a6.535 6.535 0 0 1-3.95 8.357 6.536 6.536 0 1 1 3.949-8.357zM96.727 45.159l-1.155.414-4.298-12 1.154-.413zM7.261 53.909l-1.155.414-2.313-6.456 1.155-.414zM14.69 74.646l-1.155.414-4.474-12.49 1.155-.413zM20.182 89.973l-1.155.414-4.474-12.489 1.155-.414z"/></g></svg>