<svg width="451" height="449" viewBox="0 0 451 449" xmlns="http://www.w3.org/2000/svg"><title>laptop</title><g stroke="#898884" stroke-width="2" fill="none" fill-rule="evenodd"><path d="M324.949 109.53L87.496 264.785c-7.111 4.65-9.106 14.183-4.457 21.293l100.985 154.45c4.65 7.111 14.183 9.106 21.293 4.457l97.106-63.49c-.348-2.21.584-4.53 2.57-5.829l34.302-22.428c1.986-1.298 4.485-1.222 6.369-.017l97.106-63.49c7.11-4.65 9.106-14.183 4.457-21.294l-100.985-154.45c-4.65-7.11-14.182-9.106-21.293-4.457z"/><path d="M140.573 262.408a2.006 2.006 0 0 1-.58 2.768l-9.013 5.894a2.005 2.005 0 0 1-2.768-.58l-1.703-2.605a2.006 2.006 0 0 1 .579-2.768l9.014-5.893a2.006 2.006 0 0 1 2.768.579l1.703 2.605zM124.293 273.052a2.006 2.006 0 0 1-.579 2.768l-9.014 5.894a2.005 2.005 0 0 1-2.768-.58l-1.703-2.605a2.006 2.006 0 0 1 .58-2.768l9.013-5.893a2.006 2.006 0 0 1 2.768.579l1.703 2.605zM156.34 252.1a2.006 2.006 0 0 1-.58 2.767l-9.013 5.894a2.005 2.005 0 0 1-2.769-.58l-1.703-2.605a2.006 2.006 0 0 1 .58-2.768l9.014-5.893a2.006 2.006 0 0 1 2.768.58l1.702 2.604zM172.106 241.79a2.006 2.006 0 0 1-.579 2.768l-9.014 5.894a2.005 2.005 0 0 1-2.768-.58l-1.703-2.605a2.006 2.006 0 0 1 .58-2.768l9.013-5.893a2.006 2.006 0 0 1 2.768.58l1.703 2.604zM187.873 231.481a2.006 2.006 0 0 1-.58 2.768l-9.013 5.894a2.005 2.005 0 0 1-2.768-.58l-1.703-2.605a2.006 2.006 0 0 1 .579-2.768l9.014-5.893a2.006 2.006 0 0 1 2.768.58l1.703 2.604zM203.64 221.173a2.006 2.006 0 0 1-.58 2.768l-9.013 5.894a2.005 2.005 0 0 1-2.768-.58l-1.703-2.605a2.006 2.006 0 0 1 .579-2.768l9.014-5.893a2.006 2.006 0 0 1 2.768.579l1.703 2.605zM219.406 210.864a2.006 2.006 0 0 1-.579 2.768l-9.014 5.894a2.005 2.005 0 0 1-2.768-.58l-1.703-2.605a2.006 2.006 0 0 1 .58-2.768l9.013-5.893a2.006 2.006 0 0 1 2.768.579l1.703 2.605zM235.173 200.555a2.006 2.006 0 0 1-.579 2.768l-9.014 5.894a2.005 2.005 0 0 1-2.768-.58l-1.703-2.605a2.006 2.006 0 0 1 .58-2.768l9.013-5.893a2.006 2.006 0 0 1 2.768.579l1.703 2.605zM250.94 190.246a2.006 2.006 0 0 1-.58 2.768l-9.013 5.894a2.005 2.005 0 0 1-2.768-.58l-1.703-2.605a2.006 2.006 0 0 1 .579-2.768l9.014-5.893a2.006 2.006 0 0 1 2.768.579l1.703 2.605zM266.707 179.937a2.006 2.006 0 0 1-.58 2.768l-9.013 5.894a2.005 2.005 0 0 1-2.768-.58l-1.703-2.605a2.006 2.006 0 0 1 .579-2.768l9.014-5.893a2.006 2.006 0 0 1 2.768.58l1.703 2.604zM282.473 169.628a2.006 2.006 0 0 1-.579 2.768l-9.014 5.894a2.005 2.005 0 0 1-2.768-.58l-1.703-2.605a2.006 2.006 0 0 1 .58-2.768l9.013-5.893a2.006 2.006 0 0 1 2.768.58l1.703 2.604zM298.24 159.32a2.006 2.006 0 0 1-.579 2.768l-9.014 5.894a2.005 2.005 0 0 1-2.768-.58l-1.703-2.605a2.006 2.006 0 0 1 .579-2.768l9.014-5.893a2.006 2.006 0 0 1 2.768.578l1.703 2.606zM314.007 149.01a2.006 2.006 0 0 1-.58 2.769l-9.013 5.894a2.005 2.005 0 0 1-2.768-.58l-1.703-2.605a2.006 2.006 0 0 1 .579-2.768l9.014-5.893a2.006 2.006 0 0 1 2.768.579l1.703 2.605zM329.774 138.702a2.006 2.006 0 0 1-.58 2.768l-9.014 5.894a2.005 2.005 0 0 1-2.767-.58l-1.704-2.605a2.006 2.006 0 0 1 .58-2.768l9.014-5.893a2.006 2.006 0 0 1 2.767.579l1.704 2.605zM149.466 277.106a2.006 2.006 0 0 1-.579 2.768l-8.558 5.596a2.006 2.006 0 0 1-2.768-.58l-5.595-8.557a2.007 2.007 0 0 1 .58-2.77l8.556-5.594a2.006 2.006 0 0 1 2.77.58l5.594 8.557zM133.233 287.72a2.006 2.006 0 0 1-.58 2.768l-8.557 5.596a2.006 2.006 0 0 1-2.768-.58l-5.595-8.557a2.007 2.007 0 0 1 .579-2.77l8.557-5.594a2.006 2.006 0 0 1 2.769.58l5.595 8.557zM164.651 267.177a2.006 2.006 0 0 1-.579 2.768l-8.558 5.596a2.006 2.006 0 0 1-2.768-.58l-5.595-8.557a2.007 2.007 0 0 1 .58-2.77l8.556-5.594a2.006 2.006 0 0 1 2.77.58l5.595 8.557zM179.837 257.248a2.006 2.006 0 0 1-.58 2.768l-8.557 5.596a2.006 2.006 0 0 1-2.768-.58l-5.595-8.557a2.007 2.007 0 0 1 .579-2.769l8.557-5.595a2.006 2.006 0 0 1 2.769.58l5.595 8.557zM195.022 247.32a2.006 2.006 0 0 1-.58 2.768l-8.557 5.595a2.005 2.005 0 0 1-2.768-.58l-5.595-8.556a2.007 2.007 0 0 1 .579-2.77l8.557-5.594a2.006 2.006 0 0 1 2.769.58l5.595 8.557zM210.207 237.391a2.006 2.006 0 0 1-.579 2.768l-8.558 5.596a2.006 2.006 0 0 1-2.768-.58l-5.595-8.557a2.007 2.007 0 0 1 .58-2.769l8.557-5.595a2.005 2.005 0 0 1 2.768.58l5.595 8.557zM225.392 227.462a2.006 2.006 0 0 1-.579 2.768l-8.558 5.596a2.006 2.006 0 0 1-2.768-.58l-5.595-8.557a2.007 2.007 0 0 1 .58-2.769l8.556-5.595a2.006 2.006 0 0 1 2.77.58l5.594 8.557zM240.577 217.534a2.006 2.006 0 0 1-.578 2.768l-8.559 5.596a2.006 2.006 0 0 1-2.767-.58l-5.596-8.557a2.007 2.007 0 0 1 .58-2.77l8.556-5.594a2.006 2.006 0 0 1 2.77.58l5.594 8.557zM255.763 207.605a2.006 2.006 0 0 1-.58 2.768l-8.557 5.596a2.006 2.006 0 0 1-2.768-.58l-5.595-8.557a2.007 2.007 0 0 1 .579-2.769l8.557-5.595a2.006 2.006 0 0 1 2.769.58l5.595 8.557zM270.948 197.677a2.006 2.006 0 0 1-.579 2.768l-8.558 5.596a2.006 2.006 0 0 1-2.768-.58l-5.595-8.558a2.007 2.007 0 0 1 .579-2.768l8.557-5.595a2.006 2.006 0 0 1 2.769.58l5.595 8.556zM286.133 187.748a2.006 2.006 0 0 1-.579 2.768l-8.558 5.595a2.005 2.005 0 0 1-2.768-.58l-5.595-8.556a2.007 2.007 0 0 1 .58-2.77l8.556-5.594a2.006 2.006 0 0 1 2.77.58l5.594 8.557zM301.318 177.82a2.006 2.006 0 0 1-.579 2.767l-8.558 5.596a2.006 2.006 0 0 1-2.768-.58l-5.595-8.557a2.007 2.007 0 0 1 .58-2.769l8.556-5.595a2.006 2.006 0 0 1 2.77.58l5.594 8.557zM316.504 167.89a2.006 2.006 0 0 1-.58 2.769l-8.557 5.595a2.005 2.005 0 0 1-2.768-.58l-5.595-8.556a2.007 2.007 0 0 1 .579-2.77l8.557-5.594a2.006 2.006 0 0 1 2.769.58l5.595 8.557zM339.169 153.071a2.006 2.006 0 0 1-.58 2.768l-16.037 10.486a2.006 2.006 0 0 1-2.768-.579l-5.595-8.558a2.006 2.006 0 0 1 .579-2.768l16.038-10.486a2.005 2.005 0 0 1 2.768.58l5.595 8.557zM166.342 286.584a2.006 2.006 0 0 1-.58 2.768l-8.557 5.596a2.006 2.006 0 0 1-2.768-.58l-5.595-8.557a2.007 2.007 0 0 1 .579-2.769l8.557-5.595a2.006 2.006 0 0 1 2.769.58l5.595 8.557zM150.488 296.95a2.006 2.006 0 0 1-.579 2.768l-16.418 10.735a2.005 2.005 0 0 1-2.768-.58l-5.595-8.557a2.005 2.005 0 0 1 .58-2.768l16.416-10.735a2.006 2.006 0 0 1 2.77.58l5.594 8.557zM181.527 276.656a2.006 2.006 0 0 1-.58 2.768l-8.557 5.596a2.006 2.006 0 0 1-2.768-.58l-5.595-8.557a2.007 2.007 0 0 1 .579-2.77l8.558-5.594a2.005 2.005 0 0 1 2.768.58l5.595 8.557zM196.712 266.727a2.006 2.006 0 0 1-.579 2.768l-8.558 5.596a2.006 2.006 0 0 1-2.768-.58l-5.595-8.557a2.007 2.007 0 0 1 .579-2.769l8.557-5.595a2.006 2.006 0 0 1 2.769.58l5.595 8.557zM211.897 256.798a2.006 2.006 0 0 1-.579 2.769l-8.558 5.596a2.006 2.006 0 0 1-2.768-.58l-5.595-8.558a2.007 2.007 0 0 1 .58-2.769l8.556-5.595a2.006 2.006 0 0 1 2.77.58l5.594 8.557zM227.082 246.87a2.006 2.006 0 0 1-.579 2.768l-8.558 5.596a2.006 2.006 0 0 1-2.768-.58l-5.595-8.557a2.007 2.007 0 0 1 .58-2.77l8.556-5.594a2.006 2.006 0 0 1 2.77.58l5.594 8.557zM242.268 236.941a2.006 2.006 0 0 1-.58 2.768l-8.557 5.596a2.006 2.006 0 0 1-2.768-.58l-5.595-8.557a2.007 2.007 0 0 1 .579-2.769l8.557-5.595a2.006 2.006 0 0 1 2.769.58l5.595 8.557zM257.453 227.013a2.006 2.006 0 0 1-.58 2.768l-8.557 5.596a2.006 2.006 0 0 1-2.768-.58l-5.595-8.557a2.007 2.007 0 0 1 .579-2.77l8.558-5.594a2.005 2.005 0 0 1 2.768.58l5.595 8.557zM272.638 217.084a2.006 2.006 0 0 1-.579 2.768l-8.558 5.595a2.005 2.005 0 0 1-2.768-.579l-5.595-8.557a2.007 2.007 0 0 1 .58-2.769l8.557-5.595a2.005 2.005 0 0 1 2.768.58l5.595 8.557zM287.823 207.155a2.006 2.006 0 0 1-.579 2.768l-8.558 5.596a2.006 2.006 0 0 1-2.768-.58l-5.595-8.557a2.007 2.007 0 0 1 .58-2.769l8.557-5.595a2.005 2.005 0 0 1 2.768.58l5.595 8.557zM303.009 197.227a2.006 2.006 0 0 1-.58 2.768l-8.557 5.596a2.006 2.006 0 0 1-2.769-.58l-5.594-8.557a2.007 2.007 0 0 1 .578-2.77l8.558-5.594a2.006 2.006 0 0 1 2.769.58l5.595 8.557zM318.194 187.298a2.006 2.006 0 0 1-.58 2.768l-8.557 5.596a2.006 2.006 0 0 1-2.768-.58l-5.595-8.557a2.007 2.007 0 0 1 .579-2.769l8.557-5.595a2.006 2.006 0 0 1 2.769.58l5.595 8.557zM333.379 177.37a2.006 2.006 0 0 1-.58 2.767l-8.557 5.595a2.005 2.005 0 0 1-2.768-.578l-5.595-8.558a2.007 2.007 0 0 1 .579-2.769l8.557-5.595a2.006 2.006 0 0 1 2.769.58l5.595 8.557zM348.564 167.44a2.006 2.006 0 0 1-.579 2.769l-8.558 5.595a2.005 2.005 0 0 1-2.768-.58l-5.595-8.556a2.007 2.007 0 0 1 .58-2.77l8.556-5.594a2.006 2.006 0 0 1 2.77.58l5.594 8.557zM179.477 298.509a2.006 2.006 0 0 1-.58 2.768l-8.557 5.596a2.006 2.006 0 0 1-2.768-.58l-5.595-8.557a2.007 2.007 0 0 1 .579-2.77l8.557-5.594a2.006 2.006 0 0 1 2.769.58l5.595 8.557zM163.832 308.738a2.006 2.006 0 0 1-.58 2.768l-20.365 13.316a2.007 2.007 0 0 1-2.77-.579l-5.594-8.558a2.005 2.005 0 0 1 .58-2.768l20.365-13.316a2.006 2.006 0 0 1 2.769.58l5.595 8.557zM194.662 288.58a2.006 2.006 0 0 1-.579 2.768l-8.558 5.595a2.005 2.005 0 0 1-2.768-.579l-5.595-8.557a2.007 2.007 0 0 1 .58-2.769l8.556-5.595a2.006 2.006 0 0 1 2.77.58l5.594 8.557zM209.847 278.651a2.006 2.006 0 0 1-.579 2.768l-8.558 5.596a2.006 2.006 0 0 1-2.768-.58l-5.595-8.557a2.007 2.007 0 0 1 .58-2.769l8.556-5.595a2.006 2.006 0 0 1 2.77.58l5.594 8.557zM225.032 268.723a2.006 2.006 0 0 1-.579 2.768l-8.558 5.596a2.006 2.006 0 0 1-2.768-.58l-5.595-8.557a2.007 2.007 0 0 1 .58-2.77l8.556-5.594a2.006 2.006 0 0 1 2.77.58l5.595 8.557zM240.218 258.794a2.006 2.006 0 0 1-.58 2.768l-8.557 5.596a2.006 2.006 0 0 1-2.768-.58l-5.595-8.557a2.007 2.007 0 0 1 .579-2.769l8.558-5.595a2.005 2.005 0 0 1 2.768.58l5.595 8.557zM255.403 248.865a2.006 2.006 0 0 1-.579 2.768l-8.558 5.596a2.006 2.006 0 0 1-2.768-.58l-5.595-8.557a2.007 2.007 0 0 1 .579-2.769l8.557-5.595a2.006 2.006 0 0 1 2.769.58l5.595 8.557zM270.588 238.937a2.006 2.006 0 0 1-.579 2.768l-8.558 5.596a2.006 2.006 0 0 1-2.768-.58l-5.595-8.557a2.007 2.007 0 0 1 .58-2.77l8.557-5.594a2.005 2.005 0 0 1 2.768.58l5.595 8.557zM285.773 229.008a2.006 2.006 0 0 1-.579 2.768l-8.558 5.596a2.006 2.006 0 0 1-2.768-.58l-5.595-8.557a2.007 2.007 0 0 1 .58-2.769l8.556-5.595a2.006 2.006 0 0 1 2.77.58l5.594 8.557zM300.959 219.08a2.006 2.006 0 0 1-.58 2.767l-8.557 5.596a2.006 2.006 0 0 1-2.768-.58l-5.595-8.556a2.007 2.007 0 0 1 .579-2.77l8.557-5.595a2.006 2.006 0 0 1 2.769.58l5.595 8.558zM316.144 209.15a2.006 2.006 0 0 1-.58 2.769l-8.557 5.596a2.006 2.006 0 0 1-2.768-.58l-5.595-8.557a2.007 2.007 0 0 1 .579-2.77l8.557-5.594a2.006 2.006 0 0 1 2.769.58l5.595 8.557zM331.329 199.222a2.006 2.006 0 0 1-.579 2.768l-8.558 5.596a2.006 2.006 0 0 1-2.768-.58l-5.595-8.557a2.007 2.007 0 0 1 .579-2.769l8.557-5.595a2.006 2.006 0 0 1 2.769.58l5.595 8.557zM357.96 181.81a2.006 2.006 0 0 1-.58 2.768l-20.003 13.08a2.005 2.005 0 0 1-2.768-.58l-5.595-8.558a2.005 2.005 0 0 1 .58-2.768l20.002-13.079a2.005 2.005 0 0 1 2.768.58l5.595 8.557zM182.072 317.324a2.006 2.006 0 0 1-.579 2.768l-29.21 19.1a2.007 2.007 0 0 1-2.77-.58l-5.595-8.557a2.006 2.006 0 0 1 .58-2.769l29.21-19.099a2.006 2.006 0 0 1 2.77.58l5.594 8.557zM197.257 307.396a2.006 2.006 0 0 1-.579 2.768l-8.558 5.596a2.006 2.006 0 0 1-2.768-.58l-5.595-8.557a2.007 2.007 0 0 1 .58-2.77l8.556-5.594a2.006 2.006 0 0 1 2.77.58l5.594 8.557zM212.443 297.467a2.006 2.006 0 0 1-.58 2.768l-8.557 5.596a2.006 2.006 0 0 1-2.768-.58l-5.595-8.557a2.007 2.007 0 0 1 .579-2.77l8.557-5.594a2.006 2.006 0 0 1 2.769.58l5.595 8.557zM227.628 287.538a2.006 2.006 0 0 1-.58 2.768l-8.557 5.596a2.006 2.006 0 0 1-2.768-.58l-5.595-8.557a2.007 2.007 0 0 1 .579-2.769l8.557-5.595a2.006 2.006 0 0 1 2.769.58l5.595 8.557zM242.813 277.61a2.006 2.006 0 0 1-.579 2.768l-8.558 5.596a2.006 2.006 0 0 1-2.768-.58l-5.595-8.557a2.007 2.007 0 0 1 .579-2.77l8.558-5.594a2.005 2.005 0 0 1 2.768.58l5.595 8.557zM257.998 267.681a2.006 2.006 0 0 1-.579 2.768l-8.558 5.596a2.006 2.006 0 0 1-2.768-.58l-5.595-8.557a2.007 2.007 0 0 1 .58-2.769l8.556-5.595a2.006 2.006 0 0 1 2.77.58l5.594 8.557zM273.183 257.752a2.006 2.006 0 0 1-.579 2.768l-8.558 5.596a2.006 2.006 0 0 1-2.767-.58l-5.595-8.557a2.007 2.007 0 0 1 .578-2.769l8.558-5.595a2.005 2.005 0 0 1 2.769.58l5.594 8.557zM288.369 247.824a2.006 2.006 0 0 1-.58 2.768l-8.557 5.596a2.006 2.006 0 0 1-2.768-.58l-5.595-8.557a2.007 2.007 0 0 1 .579-2.77l8.557-5.594a2.006 2.006 0 0 1 2.769.58l5.595 8.557zM303.554 237.895a2.006 2.006 0 0 1-.58 2.768l-8.557 5.596a2.006 2.006 0 0 1-2.768-.58l-5.595-8.557a2.007 2.007 0 0 1 .579-2.769l8.557-5.595a2.006 2.006 0 0 1 2.769.58l5.595 8.557zM318.74 227.966a2.006 2.006 0 0 1-.58 2.768l-8.558 5.596a2.006 2.006 0 0 1-2.768-.58l-5.595-8.556a2.007 2.007 0 0 1 .58-2.77l8.556-5.595a2.006 2.006 0 0 1 2.77.58l5.594 8.558zM333.924 218.038a2.006 2.006 0 0 1-.579 2.768l-8.558 5.596a2.006 2.006 0 0 1-2.768-.58l-5.595-8.557a2.007 2.007 0 0 1 .58-2.77l8.556-5.594a2.006 2.006 0 0 1 2.77.58l5.594 8.557zM367.355 196.18a2.006 2.006 0 0 1-.58 2.768l-26.802 17.525a2.005 2.005 0 0 1-2.768-.58l-5.596-8.557a2.006 2.006 0 0 1 .58-2.768l26.802-17.525a2.006 2.006 0 0 1 2.769.58l5.595 8.557zM187.048 334.584a2.006 2.006 0 0 1-.58 2.768l-8.557 5.596a2.006 2.006 0 0 1-2.768-.58l-5.595-8.557a2.007 2.007 0 0 1 .578-2.77l8.558-5.594a2.006 2.006 0 0 1 2.768.58l5.596 8.557zM170.814 345.198a2.006 2.006 0 0 1-.579 2.768l-8.558 5.596a2.006 2.006 0 0 1-2.768-.58l-5.595-8.557a2.007 2.007 0 0 1 .579-2.77l8.557-5.594a2.006 2.006 0 0 1 2.769.58l5.595 8.557zM202.233 324.655a2.006 2.006 0 0 1-.58 2.768l-8.557 5.596a2.006 2.006 0 0 1-2.768-.58l-5.595-8.557a2.007 2.007 0 0 1 .579-2.769l8.557-5.595a2.006 2.006 0 0 1 2.769.58l5.595 8.557zM221.838 311.836a2.006 2.006 0 0 1-.579 2.768l-13.389 8.755a2.006 2.006 0 0 1-2.769-.58l-5.595-8.557a2.006 2.006 0 0 1 .58-2.769l13.388-8.754a2.006 2.006 0 0 1 2.769.58l5.595 8.557zM297.764 262.193a2.006 2.006 0 0 1-.579 2.768l-69.299 45.31a2.006 2.006 0 0 1-2.768-.579l-5.595-8.558a2.006 2.006 0 0 1 .579-2.768l69.299-45.31a2.005 2.005 0 0 1 2.768.58l5.595 8.557zM360.546 330.224l-85.159 55.68-39.972-61.136 85.158-55.679zM316.01 250.264a2.006 2.006 0 0 1-.58 2.768l-11.618 7.596a2.006 2.006 0 0 1-2.768-.58l-5.595-8.557a2.006 2.006 0 0 1 .58-2.768l11.617-7.596a2.005 2.005 0 0 1 2.768.58l5.595 8.557zM331.194 240.335a2.006 2.006 0 0 1-.579 2.768l-8.558 5.596a2.006 2.006 0 0 1-2.768-.58l-5.595-8.557a2.007 2.007 0 0 1 .58-2.769l8.557-5.595a2.005 2.005 0 0 1 2.768.58l5.595 8.557zM346.38 230.407a2.006 2.006 0 0 1-.58 2.768l-8.557 5.596a2.006 2.006 0 0 1-2.768-.58l-1.778-2.72a2.005 2.005 0 0 1 .58-2.767l8.557-5.595a2.005 2.005 0 0 1 2.768.579l1.778 2.719zM361.565 220.478a2.006 2.006 0 0 1-.58 2.768l-8.557 5.596a2.006 2.006 0 0 1-2.768-.58l-5.595-8.557a2.007 2.007 0 0 1 .579-2.769l8.558-5.595a2.005 2.005 0 0 1 2.768.58l5.595 8.557zM376.75 210.55a2.006 2.006 0 0 1-.579 2.767l-8.558 5.596a2.006 2.006 0 0 1-2.768-.58l-1.778-2.719a2.005 2.005 0 0 1 .58-2.768l8.557-5.595a2.005 2.005 0 0 1 2.768.58l1.778 2.718zM82.124 270.848c-2.515-.18-5.034-1.182-6.87-2.93L4.568 200.625c-4.576-4.356-4.793-10.315-.414-13.179L287.526 2.168c4.38-2.862 9.751-.274 11.907 5.665l33.295 91.737c.865 2.386.772 5.095-.072 7.47"/><path d="M88.143 251.762c-1.397.913-3.316.64-4.66-.662l-61.06-59.14a1.645 1.645 0 0 1 .244-2.56L281.891 19.91a1.645 1.645 0 0 1 2.442.803l29.688 79.652c.654 1.755.134 3.622-1.262 4.535L88.143 251.762zM312.514 128.246L109.627 260.9l-4.848-7.416L307.666 120.83z"/></g></svg>