<svg width="396" height="449" viewBox="0 0 396 449" xmlns="http://www.w3.org/2000/svg"><title>laptop</title><g stroke="#37342D" stroke-width="2" fill="none" fill-rule="evenodd"><path d="M269.42 109.51L31.967 264.765c-7.111 4.649-9.106 14.183-4.457 21.293l100.985 154.45c4.65 7.11 14.183 9.106 21.293 4.457l97.106-63.491c-.348-2.21.584-4.53 2.57-5.828l34.302-22.428c1.986-1.298 4.485-1.222 6.369-.017l97.106-63.491c7.11-4.65 9.106-14.182 4.457-21.293l-100.985-154.45c-4.65-7.111-14.182-9.106-21.293-4.457z"/><path d="M84.388 262.508a2.006 2.006 0 0 1-.579 2.768l-9.014 5.894a2.005 2.005 0 0 1-2.768-.58l-1.703-2.605a2.006 2.006 0 0 1 .58-2.768l9.013-5.893a2.006 2.006 0 0 1 2.768.58l1.703 2.604zM68.388 273.508a2.006 2.006 0 0 1-.579 2.768l-9.014 5.894a2.005 2.005 0 0 1-2.768-.58l-1.703-2.605a2.006 2.006 0 0 1 .58-2.768l9.013-5.893a2.006 2.006 0 0 1 2.768.58l1.703 2.604zM100.388 252.508a2.006 2.006 0 0 1-.579 2.768l-9.014 5.894a2.005 2.005 0 0 1-2.768-.58l-1.703-2.605a2.006 2.006 0 0 1 .58-2.768l9.013-5.893a2.006 2.006 0 0 1 2.768.58l1.703 2.604zM116.388 241.508a2.006 2.006 0 0 1-.579 2.768l-9.014 5.894a2.005 2.005 0 0 1-2.768-.58l-1.703-2.605a2.006 2.006 0 0 1 .58-2.768l9.013-5.893a2.006 2.006 0 0 1 2.768.58l1.703 2.604zM132.388 231.508a2.006 2.006 0 0 1-.579 2.768l-9.014 5.894a2.005 2.005 0 0 1-2.768-.58l-1.703-2.605a2.006 2.006 0 0 1 .58-2.768l9.013-5.893a2.006 2.006 0 0 1 2.768.58l1.703 2.604zM147.388 221.508a2.006 2.006 0 0 1-.579 2.768l-9.014 5.894a2.005 2.005 0 0 1-2.768-.58l-1.703-2.605a2.006 2.006 0 0 1 .58-2.768l9.013-5.893a2.006 2.006 0 0 1 2.768.58l1.703 2.604zM163.388 210.508a2.006 2.006 0 0 1-.579 2.768l-9.014 5.894a2.005 2.005 0 0 1-2.768-.58l-1.703-2.605a2.006 2.006 0 0 1 .58-2.768l9.013-5.893a2.006 2.006 0 0 1 2.768.58l1.703 2.604zM179.388 200.508a2.006 2.006 0 0 1-.579 2.768l-9.014 5.894a2.005 2.005 0 0 1-2.768-.58l-1.703-2.605a2.006 2.006 0 0 1 .58-2.768l9.013-5.893a2.006 2.006 0 0 1 2.768.58l1.703 2.604zM195.388 190.508a2.006 2.006 0 0 1-.579 2.768l-9.014 5.894a2.005 2.005 0 0 1-2.768-.58l-1.703-2.605a2.006 2.006 0 0 1 .58-2.768l9.013-5.893a2.006 2.006 0 0 1 2.768.58l1.703 2.604zM210.388 179.508a2.006 2.006 0 0 1-.579 2.768l-9.014 5.894a2.005 2.005 0 0 1-2.768-.58l-1.703-2.605a2.006 2.006 0 0 1 .58-2.768l9.013-5.893a2.006 2.006 0 0 1 2.768.58l1.703 2.604zM226.388 169.508a2.006 2.006 0 0 1-.579 2.768l-9.014 5.894a2.005 2.005 0 0 1-2.768-.58l-1.703-2.605a2.006 2.006 0 0 1 .58-2.768l9.013-5.893a2.006 2.006 0 0 1 2.768.58l1.703 2.604zM242.388 159.508a2.006 2.006 0 0 1-.579 2.768l-9.014 5.894a2.005 2.005 0 0 1-2.768-.58l-1.703-2.605a2.006 2.006 0 0 1 .58-2.768l9.013-5.893a2.006 2.006 0 0 1 2.768.58l1.703 2.604zM258.388 149.508a2.006 2.006 0 0 1-.579 2.768l-9.014 5.894a2.005 2.005 0 0 1-2.768-.58l-1.703-2.605a2.006 2.006 0 0 1 .58-2.768l9.013-5.893a2.006 2.006 0 0 1 2.768.58l1.703 2.604zM273.388 138.508a2.006 2.006 0 0 1-.579 2.768l-9.014 5.894a2.005 2.005 0 0 1-2.768-.58l-1.703-2.605a2.006 2.006 0 0 1 .58-2.768l9.013-5.893a2.006 2.006 0 0 1 2.768.58l1.703 2.604zM93.824 277.461a2.006 2.006 0 0 1-.579 2.768l-8.558 5.596a2.006 2.006 0 0 1-2.768-.58l-5.595-8.557a2.007 2.007 0 0 1 .58-2.769l8.556-5.595a2.006 2.006 0 0 1 2.77.58l5.594 8.557zM76.824 287.461a2.006 2.006 0 0 1-.579 2.768l-8.558 5.596a2.006 2.006 0 0 1-2.768-.58l-5.595-8.557a2.007 2.007 0 0 1 .58-2.769l8.556-5.595a2.006 2.006 0 0 1 2.77.58l5.594 8.557zM108.824 267.461a2.006 2.006 0 0 1-.579 2.768l-8.558 5.596a2.006 2.006 0 0 1-2.768-.58l-5.595-8.557a2.007 2.007 0 0 1 .58-2.769l8.556-5.595a2.006 2.006 0 0 1 2.77.58l5.594 8.557zM123.824 257.461a2.006 2.006 0 0 1-.579 2.768l-8.558 5.596a2.006 2.006 0 0 1-2.768-.58l-5.595-8.557a2.007 2.007 0 0 1 .58-2.769l8.556-5.595a2.006 2.006 0 0 1 2.77.58l5.594 8.557zM138.824 247.461a2.006 2.006 0 0 1-.579 2.768l-8.558 5.595a2.005 2.005 0 0 1-2.768-.579l-5.595-8.557a2.007 2.007 0 0 1 .58-2.769l8.556-5.595a2.006 2.006 0 0 1 2.77.58l5.594 8.557zM153.824 237.461a2.006 2.006 0 0 1-.579 2.768l-8.558 5.596a2.006 2.006 0 0 1-2.768-.58l-5.595-8.557a2.007 2.007 0 0 1 .58-2.769l8.557-5.595a2.005 2.005 0 0 1 2.768.58l5.595 8.557zM169.824 227.461a2.006 2.006 0 0 1-.579 2.768l-8.558 5.596a2.006 2.006 0 0 1-2.768-.58l-5.595-8.557a2.007 2.007 0 0 1 .58-2.769l8.556-5.595a2.006 2.006 0 0 1 2.77.58l5.594 8.557zM184.824 217.461a2.006 2.006 0 0 1-.579 2.768l-8.558 5.596a2.006 2.006 0 0 1-2.768-.58l-5.595-8.557a2.007 2.007 0 0 1 .58-2.769l8.556-5.595a2.006 2.006 0 0 1 2.77.58l5.594 8.557zM199.824 207.461a2.006 2.006 0 0 1-.579 2.768l-8.558 5.596a2.006 2.006 0 0 1-2.768-.58l-5.595-8.557a2.007 2.007 0 0 1 .58-2.769l8.556-5.595a2.006 2.006 0 0 1 2.77.58l5.594 8.557zM214.824 197.461a2.006 2.006 0 0 1-.579 2.768l-8.558 5.596a2.006 2.006 0 0 1-2.768-.58l-5.595-8.557a2.007 2.007 0 0 1 .58-2.769l8.556-5.595a2.006 2.006 0 0 1 2.77.58l5.594 8.557zM229.824 187.461a2.006 2.006 0 0 1-.579 2.768l-8.558 5.595a2.005 2.005 0 0 1-2.768-.579l-5.595-8.557a2.007 2.007 0 0 1 .58-2.769l8.556-5.595a2.006 2.006 0 0 1 2.77.58l5.594 8.557zM245.824 177.461a2.006 2.006 0 0 1-.579 2.768l-8.558 5.596a2.006 2.006 0 0 1-2.768-.58l-5.595-8.557a2.007 2.007 0 0 1 .58-2.769l8.556-5.595a2.006 2.006 0 0 1 2.77.58l5.594 8.557zM260.824 167.461a2.006 2.006 0 0 1-.579 2.768l-8.558 5.595a2.005 2.005 0 0 1-2.768-.579l-5.595-8.557a2.007 2.007 0 0 1 .58-2.769l8.556-5.595a2.006 2.006 0 0 1 2.77.58l5.594 8.557zM283.304 153.461a2.006 2.006 0 0 1-.579 2.768l-16.038 10.486a2.006 2.006 0 0 1-2.768-.579l-5.595-8.558a2.006 2.006 0 0 1 .58-2.768l16.037-10.486a2.005 2.005 0 0 1 2.768.58l5.595 8.557zM110.824 286.461a2.006 2.006 0 0 1-.579 2.768l-8.558 5.596a2.006 2.006 0 0 1-2.768-.58l-5.595-8.557a2.007 2.007 0 0 1 .58-2.769l8.556-5.595a2.006 2.006 0 0 1 2.77.58l5.594 8.557zM94.684 297.461a2.006 2.006 0 0 1-.579 2.768l-16.418 10.735a2.005 2.005 0 0 1-2.768-.58l-5.595-8.557a2.005 2.005 0 0 1 .58-2.768l16.416-10.735a2.006 2.006 0 0 1 2.77.58l5.594 8.557zM125.824 276.461a2.006 2.006 0 0 1-.579 2.768l-8.558 5.596a2.006 2.006 0 0 1-2.768-.58l-5.595-8.557a2.007 2.007 0 0 1 .58-2.769l8.557-5.595a2.005 2.005 0 0 1 2.768.58l5.595 8.557zM140.824 266.461a2.006 2.006 0 0 1-.579 2.768l-8.558 5.596a2.006 2.006 0 0 1-2.768-.58l-5.595-8.557a2.007 2.007 0 0 1 .58-2.769l8.556-5.595a2.006 2.006 0 0 1 2.77.58l5.594 8.557zM155.824 256.461a2.006 2.006 0 0 1-.579 2.768l-8.558 5.596a2.006 2.006 0 0 1-2.768-.58l-5.595-8.557a2.007 2.007 0 0 1 .58-2.769l8.556-5.595a2.006 2.006 0 0 1 2.77.58l5.594 8.557zM170.824 246.461a2.006 2.006 0 0 1-.579 2.768l-8.558 5.596a2.006 2.006 0 0 1-2.768-.58l-5.595-8.557a2.007 2.007 0 0 1 .58-2.769l8.556-5.595a2.006 2.006 0 0 1 2.77.58l5.594 8.557zM185.824 237.461a2.006 2.006 0 0 1-.579 2.768l-8.558 5.596a2.006 2.006 0 0 1-2.768-.58l-5.595-8.557a2.007 2.007 0 0 1 .58-2.769l8.556-5.595a2.006 2.006 0 0 1 2.77.58l5.594 8.557zM201.824 227.461a2.006 2.006 0 0 1-.579 2.768l-8.558 5.596a2.006 2.006 0 0 1-2.768-.58l-5.595-8.557a2.007 2.007 0 0 1 .58-2.769l8.557-5.595a2.005 2.005 0 0 1 2.768.58l5.595 8.557zM216.824 217.461a2.006 2.006 0 0 1-.579 2.768l-8.558 5.595a2.005 2.005 0 0 1-2.768-.579l-5.595-8.557a2.007 2.007 0 0 1 .58-2.769l8.557-5.595a2.005 2.005 0 0 1 2.768.58l5.595 8.557zM231.824 207.461a2.006 2.006 0 0 1-.579 2.768l-8.558 5.596a2.006 2.006 0 0 1-2.768-.58l-5.595-8.557a2.007 2.007 0 0 1 .58-2.769l8.557-5.595a2.005 2.005 0 0 1 2.768.58l5.595 8.557zM246.824 197.461a2.006 2.006 0 0 1-.579 2.768l-8.558 5.596a2.006 2.006 0 0 1-2.768-.58l-5.595-8.557a2.007 2.007 0 0 1 .58-2.769l8.556-5.595a2.006 2.006 0 0 1 2.77.58l5.594 8.557zM261.824 187.461a2.006 2.006 0 0 1-.579 2.768l-8.558 5.596a2.006 2.006 0 0 1-2.768-.58l-5.595-8.557a2.007 2.007 0 0 1 .58-2.769l8.556-5.595a2.006 2.006 0 0 1 2.77.58l5.594 8.557zM277.824 177.461a2.006 2.006 0 0 1-.579 2.768l-8.558 5.595a2.005 2.005 0 0 1-2.768-.579l-5.595-8.557a2.007 2.007 0 0 1 .58-2.769l8.556-5.595a2.006 2.006 0 0 1 2.77.58l5.594 8.557zM292.824 167.461a2.006 2.006 0 0 1-.579 2.768l-8.558 5.595a2.005 2.005 0 0 1-2.768-.579l-5.595-8.557a2.007 2.007 0 0 1 .58-2.769l8.556-5.595a2.006 2.006 0 0 1 2.77.58l5.594 8.557zM123.824 298.461a2.006 2.006 0 0 1-.579 2.768l-8.558 5.596a2.006 2.006 0 0 1-2.768-.58l-5.595-8.557a2.007 2.007 0 0 1 .58-2.769l8.556-5.595a2.006 2.006 0 0 1 2.77.58l5.594 8.557zM107.633 308.461a2.006 2.006 0 0 1-.579 2.768l-20.366 13.316a2.007 2.007 0 0 1-2.769-.579l-5.595-8.558a2.005 2.005 0 0 1 .58-2.768l20.365-13.316a2.006 2.006 0 0 1 2.77.58l5.594 8.557zM138.824 288.461a2.006 2.006 0 0 1-.579 2.768l-8.558 5.595a2.005 2.005 0 0 1-2.768-.579l-5.595-8.557a2.007 2.007 0 0 1 .58-2.769l8.556-5.595a2.006 2.006 0 0 1 2.77.58l5.594 8.557zM153.824 278.461a2.006 2.006 0 0 1-.579 2.768l-8.558 5.596a2.006 2.006 0 0 1-2.768-.58l-5.595-8.557a2.007 2.007 0 0 1 .58-2.769l8.556-5.595a2.006 2.006 0 0 1 2.77.58l5.594 8.557zM168.824 268.461a2.006 2.006 0 0 1-.579 2.768l-8.558 5.596a2.006 2.006 0 0 1-2.768-.58l-5.595-8.557a2.007 2.007 0 0 1 .58-2.769l8.556-5.595a2.006 2.006 0 0 1 2.77.58l5.594 8.557zM183.824 258.461a2.006 2.006 0 0 1-.579 2.768l-8.558 5.596a2.006 2.006 0 0 1-2.768-.58l-5.595-8.557a2.007 2.007 0 0 1 .58-2.769l8.557-5.595a2.005 2.005 0 0 1 2.768.58l5.595 8.557zM199.824 248.461a2.006 2.006 0 0 1-.579 2.768l-8.558 5.596a2.006 2.006 0 0 1-2.768-.58l-5.595-8.557a2.007 2.007 0 0 1 .58-2.769l8.556-5.595a2.006 2.006 0 0 1 2.77.58l5.594 8.557zM214.824 239.461a2.006 2.006 0 0 1-.579 2.768l-8.558 5.596a2.006 2.006 0 0 1-2.768-.58l-5.595-8.557a2.007 2.007 0 0 1 .58-2.769l8.557-5.595a2.005 2.005 0 0 1 2.768.58l5.595 8.557zM229.824 229.461a2.006 2.006 0 0 1-.579 2.768l-8.558 5.596a2.006 2.006 0 0 1-2.768-.58l-5.595-8.557a2.007 2.007 0 0 1 .58-2.769l8.556-5.595a2.006 2.006 0 0 1 2.77.58l5.594 8.557zM244.824 219.461a2.006 2.006 0 0 1-.579 2.768l-8.558 5.596a2.006 2.006 0 0 1-2.768-.58l-5.595-8.557a2.007 2.007 0 0 1 .58-2.769l8.556-5.595a2.006 2.006 0 0 1 2.77.58l5.594 8.557zM259.824 209.461a2.006 2.006 0 0 1-.579 2.768l-8.558 5.596a2.006 2.006 0 0 1-2.768-.58l-5.595-8.557a2.007 2.007 0 0 1 .58-2.769l8.556-5.595a2.006 2.006 0 0 1 2.77.58l5.594 8.557zM275.824 199.461a2.006 2.006 0 0 1-.579 2.768l-8.558 5.596a2.006 2.006 0 0 1-2.768-.58l-5.595-8.557a2.007 2.007 0 0 1 .58-2.769l8.556-5.595a2.006 2.006 0 0 1 2.77.58l5.594 8.557zM302.27 181.461a2.006 2.006 0 0 1-.58 2.768l-20.003 13.08a2.005 2.005 0 0 1-2.768-.58l-5.595-8.558a2.005 2.005 0 0 1 .58-2.768l20.002-13.079a2.005 2.005 0 0 1 2.768.58l5.595 8.557zM126.478 317.461a2.006 2.006 0 0 1-.579 2.768l-29.21 19.1a2.007 2.007 0 0 1-2.77-.58l-5.595-8.557a2.006 2.006 0 0 1 .58-2.769l29.21-19.099a2.006 2.006 0 0 1 2.77.58l5.594 8.557zM140.824 307.461a2.006 2.006 0 0 1-.579 2.768l-8.558 5.596a2.006 2.006 0 0 1-2.768-.58l-5.595-8.557a2.007 2.007 0 0 1 .58-2.769l8.556-5.595a2.006 2.006 0 0 1 2.77.58l5.594 8.557zM156.824 297.461a2.006 2.006 0 0 1-.579 2.768l-8.558 5.596a2.006 2.006 0 0 1-2.768-.58l-5.595-8.557a2.007 2.007 0 0 1 .58-2.769l8.556-5.595a2.006 2.006 0 0 1 2.77.58l5.594 8.557zM171.824 287.461a2.006 2.006 0 0 1-.579 2.768l-8.558 5.596a2.006 2.006 0 0 1-2.768-.58l-5.595-8.557a2.007 2.007 0 0 1 .58-2.769l8.556-5.595a2.006 2.006 0 0 1 2.77.58l5.594 8.557zM186.824 277.461a2.006 2.006 0 0 1-.579 2.768l-8.558 5.596a2.006 2.006 0 0 1-2.768-.58l-5.595-8.557a2.007 2.007 0 0 1 .58-2.769l8.557-5.595a2.005 2.005 0 0 1 2.768.58l5.595 8.557zM201.824 267.461a2.006 2.006 0 0 1-.579 2.768l-8.558 5.596a2.006 2.006 0 0 1-2.768-.58l-5.595-8.557a2.007 2.007 0 0 1 .58-2.769l8.556-5.595a2.006 2.006 0 0 1 2.77.58l5.594 8.557zM216.824 257.461a2.006 2.006 0 0 1-.579 2.768l-8.558 5.596a2.006 2.006 0 0 1-2.768-.58l-5.595-8.557a2.007 2.007 0 0 1 .58-2.769l8.557-5.595a2.005 2.005 0 0 1 2.768.58l5.595 8.557zM232.824 247.461a2.006 2.006 0 0 1-.579 2.768l-8.558 5.596a2.006 2.006 0 0 1-2.768-.58l-5.595-8.557a2.007 2.007 0 0 1 .58-2.769l8.556-5.595a2.006 2.006 0 0 1 2.77.58l5.594 8.557zM247.824 237.461a2.006 2.006 0 0 1-.579 2.768l-8.558 5.596a2.006 2.006 0 0 1-2.768-.58l-5.595-8.557a2.007 2.007 0 0 1 .58-2.769l8.556-5.595a2.006 2.006 0 0 1 2.77.58l5.594 8.557zM262.824 228.461a2.006 2.006 0 0 1-.579 2.768l-8.558 5.596a2.006 2.006 0 0 1-2.768-.58l-5.595-8.557a2.007 2.007 0 0 1 .58-2.769l8.556-5.595a2.006 2.006 0 0 1 2.77.58l5.594 8.557zM277.824 218.461a2.006 2.006 0 0 1-.579 2.768l-8.558 5.596a2.006 2.006 0 0 1-2.768-.58l-5.595-8.557a2.007 2.007 0 0 1 .58-2.769l8.556-5.595a2.006 2.006 0 0 1 2.77.58l5.594 8.557zM311.07 196.461a2.006 2.006 0 0 1-.58 2.768l-26.802 17.525a2.005 2.005 0 0 1-2.768-.58l-5.596-8.557a2.006 2.006 0 0 1 .58-2.768l26.802-17.525a2.006 2.006 0 0 1 2.769.58l5.595 8.557zM130.824 334.461a2.006 2.006 0 0 1-.579 2.768l-8.558 5.596a2.006 2.006 0 0 1-2.768-.58l-5.595-8.557a2.007 2.007 0 0 1 .58-2.769l8.556-5.595a2.006 2.006 0 0 1 2.77.58l5.594 8.557zM114.824 345.461a2.006 2.006 0 0 1-.579 2.768l-8.558 5.596a2.006 2.006 0 0 1-2.768-.58l-5.595-8.557a2.007 2.007 0 0 1 .58-2.769l8.556-5.595a2.006 2.006 0 0 1 2.77.58l5.594 8.557zM145.824 324.461a2.006 2.006 0 0 1-.579 2.768l-8.558 5.596a2.006 2.006 0 0 1-2.768-.58l-5.595-8.557a2.007 2.007 0 0 1 .58-2.769l8.556-5.595a2.006 2.006 0 0 1 2.77.58l5.594 8.557zM165.656 311.461a2.006 2.006 0 0 1-.579 2.768l-13.389 8.755a2.006 2.006 0 0 1-2.769-.58l-5.595-8.557a2.006 2.006 0 0 1 .58-2.769l13.388-8.754a2.006 2.006 0 0 1 2.77.58l5.594 8.557zM241.565 262.461a2.006 2.006 0 0 1-.579 2.768l-69.299 45.31a2.006 2.006 0 0 1-2.768-.579l-5.595-8.558a2.006 2.006 0 0 1 .58-2.768l69.298-45.31a2.005 2.005 0 0 1 2.768.58l5.595 8.557zM304.131 330.135l-85.159 55.68L179 324.679 264.158 269zM259.884 250.461a2.006 2.006 0 0 1-.579 2.768l-11.618 7.596a2.006 2.006 0 0 1-2.768-.579l-5.595-8.558a2.006 2.006 0 0 1 .58-2.768l11.617-7.596a2.005 2.005 0 0 1 2.768.58l5.595 8.557zM274.824 240.461a2.006 2.006 0 0 1-.579 2.768l-8.558 5.596a2.006 2.006 0 0 1-2.768-.58l-5.595-8.557a2.007 2.007 0 0 1 .58-2.769l8.557-5.595a2.005 2.005 0 0 1 2.768.58l5.595 8.557zM290.007 230.622a2.006 2.006 0 0 1-.579 2.768l-8.558 5.596a2.006 2.006 0 0 1-2.768-.58l-1.778-2.719a2.005 2.005 0 0 1 .58-2.768l8.557-5.595a2.005 2.005 0 0 1 2.768.58l1.778 2.718zM305.824 220.461a2.006 2.006 0 0 1-.579 2.768l-8.558 5.596a2.006 2.006 0 0 1-2.768-.58l-5.595-8.557a2.007 2.007 0 0 1 .58-2.769l8.557-5.595a2.005 2.005 0 0 1 2.768.58l5.595 8.557zM321.007 210.622a2.006 2.006 0 0 1-.579 2.768l-8.558 5.596a2.006 2.006 0 0 1-2.768-.58l-1.778-2.719a2.005 2.005 0 0 1 .58-2.768l8.557-5.595a2.005 2.005 0 0 1 2.768.58l1.778 2.718zM26.124 270.848c-2.515-.18-5.034-1.181-6.87-2.93l-70.685-67.292c-4.576-4.356-4.793-10.316-.414-13.18L231.526 2.17c4.38-2.863 9.751-.274 11.907 5.665l33.295 91.737c.865 2.385.772 5.094-.072 7.47"/><path d="M32.22 252.12c-1.396.914-3.315.642-4.66-.661l-61.06-59.14a1.645 1.645 0 0 1 .245-2.56L225.969 20.27a1.645 1.645 0 0 1 2.442.803l29.688 79.652c.654 1.755.134 3.622-1.262 4.535L32.22 252.12zM256.735 128.415L53.848 261.07 49 253.654 251.887 121z"/></g></svg>