<svg width="694" height="399" viewBox="0 0 694 399" xmlns="http://www.w3.org/2000/svg" xmlns:xlink="http://www.w3.org/1999/xlink"><title>laptop-full</title><defs><path id="a" d="M0 398.121h693.238V0H0z"/></defs><g fill="none" fill-rule="evenodd"><path d="M66.697 374.988V16.863C66.697 8.14 73.835 1 82.558 1h527.199c8.724 0 15.862 7.14 15.862 15.863v358.125H66.697z" stroke="#898884" stroke-width="2"/><mask id="b" fill="#fff"><use xlink:href="#a"/></mask><path stroke="#898884" stroke-width="2" mask="url(#b)" d="M85.94 352.803h521.358V25.344H85.94zM1 386.779h691.238v-11.791H1zM607.154 397.121s84.94-.209 84.94-10.342H1c0 10.133 84.94 10.342 84.94 10.342h521.214z"/><path d="M411.114 381.228H281.98a4.817 4.817 0 0 1-4.817-4.817v-1.423h138.768v1.423a4.817 4.817 0 0 1-4.817 4.817zM342.856 367.285l7.383-7.383M342.856 359.902l7.383 7.383" stroke="#898884" stroke-width="2" mask="url(#b)"/></g></svg>