<svg width="31" height="36" viewBox="0 0 31 36" xmlns="http://www.w3.org/2000/svg"><title>mobile-nav</title><g fill="#FFF" fill-rule="evenodd"><circle cx="26.333" cy="34" r="2"/><circle cx="15.667" cy="34" r="2"/><circle cx="5" cy="34" r="2"/><path d="M8.23 21.67V15h-2l-1.62 4.03L2.99 15H1v6.67h1.42V17l1.88 4.67h.62L6.8 17v4.67h1.43zm6.358 0v-1.25h-3.3v-1.51h3.23v-1.25h-3.23v-1.41h3.3V15h-4.72v6.67h4.72zm7.398 0V15h-1.42v4.19L17.476 15h-1.46v6.67h1.42v-4.35l3.18 4.35h1.37zm4.649.12c2.03 0 3.01-1.13 3.01-2.79v-4h-1.45v3.96c0 .93-.53 1.57-1.56 1.57s-1.57-.64-1.57-1.57V15h-1.44v4.01c0 1.64.98 2.78 3.01 2.78zM3.5 6.9c1.52 0 2.36-.81 2.84-1.64l-1.22-.59c-.28.55-.88.97-1.62.97-1.16 0-2.04-.93-2.04-2.19 0-1.26.88-2.19 2.04-2.19.74 0 1.34.43 1.62.97l1.22-.6C5.87.8 5.02 0 3.5 0 1.55 0 0 1.4 0 3.45 0 5.5 1.55 6.9 3.5 6.9zm3.69-.12h4.24V5.53H8.61V.11H7.19v6.67zm4.91-3.33c0 2.01 1.47 3.45 3.48 3.45 2.02 0 3.49-1.44 3.49-3.45C19.07 1.44 17.6 0 15.58 0c-2.01 0-3.48 1.44-3.48 3.45zm5.51 0c0 1.24-.8 2.19-2.03 2.19-1.23 0-2.02-.95-2.02-2.19 0-1.25.79-2.19 2.02-2.19s2.03.94 2.03 2.19zm2.01 2.39c.62.63 1.54 1.06 2.82 1.06 1.8 0 2.67-.92 2.67-2.14 0-1.48-1.4-1.81-2.5-2.06-.77-.18-1.33-.32-1.33-.77 0-.4.34-.68.98-.68.65 0 1.37.23 1.91.73l.79-1.04c-.66-.61-1.54-.93-2.6-.93-1.57 0-2.53.9-2.53 2.01 0 1.49 1.4 1.79 2.49 2.04.77.18 1.35.35 1.35.85 0 .38-.38.75-1.16.75-.92 0-1.65-.41-2.12-.9l-.77 1.08zm6.45.94h4.72V5.55h-3.3V4h3.23V2.78h-3.23V1.33h3.3V.11h-4.72v6.67z"/></g></svg>