<svg width="30" height="21" viewBox="0 0 30 21" xmlns="http://www.w3.org/2000/svg"><title>mobile-nav</title><g fill="#FFF" fill-rule="evenodd"><path d="M7.89 7V.33h-2L4.27 4.36 2.65.33H.66V7h1.42V2.33L3.96 7h.62l1.88-4.67V7h1.43zm6.358 0V5.75h-3.3V4.24h3.23V2.99h-3.23V1.58h3.3V.33h-4.72V7h4.72zm7.398 0V.33h-1.42v4.19L17.136.33h-1.46V7h1.42V2.65L20.276 7h1.37zm4.649.12c2.03 0 3.01-1.13 3.01-2.79v-4h-1.45v3.96c0 .93-.53 1.57-1.56 1.57s-1.57-.64-1.57-1.57V.33h-1.44v4.01c0 1.64.98 2.78 3.01 2.78z"/><circle cx="4" cy="19" r="2"/><circle cx="14.667" cy="19" r="2"/><circle cx="25.333" cy="19" r="2"/></g></svg>