<svg width="62" height="61" viewBox="0 0 62 61" xmlns="http://www.w3.org/2000/svg"><title>sketch</title><g stroke-width="2" stroke="#37342D" fill="none" fill-rule="evenodd"><path d="M25.999 31.361L8.236 21.071 9.86 59.22"/><path d="M39.26 8.467L28.996 2.52l-12.35-1.336-8.41 19.888 35.824 2.081"/><path d="M34.097 17.382l-9.962-5.771L43.793 41.67M25.999 31.361l17.763 10.29L9.86 59.22"/><path d="M44.06 23.153L59.55 38.216l-2.72-13.753-12.772-1.31-.298 18.498 15.79-3.435L9.861 59.22l-6.5-53.555 4.875 15.407 15.898-9.461-7.489-10.427-13.284 4.48 20.773 5.947"/><path d="M39.26 8.467l10.267 5.947 7.303 10.048-13.07 17.19-19.625-30.04"/><path d="M34.097 17.382l9.962 5.77-35.855-2.098"/></g></svg>