<svg width="24" height="20" viewBox="0 0 24 20" xmlns="http://www.w3.org/2000/svg"><title>twitter</title><path d="M23.902 2.4c-.87.381-1.807.639-2.789.755A4.815 4.815 0 0 0 23.248.507a9.8 9.8 0 0 1-3.084 1.16 4.884 4.884 0 0 0-3.545-1.51c-2.683 0-4.857 2.142-4.857 4.786 0 .375.043.74.126 1.09a13.858 13.858 0 0 1-10.012-5 4.708 4.708 0 0 0-.657 2.406c0 1.66.857 3.125 2.16 3.984a4.886 4.886 0 0 1-2.2-.6v.06c0 2.32 1.674 4.254 3.896 4.694a4.925 4.925 0 0 1-2.193.082c.618 1.901 2.412 3.285 4.537 3.324a9.842 9.842 0 0 1-6.033 2.049c-.392 0-.779-.023-1.159-.067a13.9 13.9 0 0 0 7.446 2.15c8.934 0 13.819-7.293 13.819-13.618 0-.207-.005-.413-.014-.618A9.812 9.812 0 0 0 23.901 2.4" fill="#55ACEE" fill-rule="evenodd"/></svg>