<svg width="18" height="15" viewBox="0 0 18 15" xmlns="http://www.w3.org/2000/svg"><title>twitter</title><path d="M17.927 1.8a7.368 7.368 0 0 1-2.092.566A3.612 3.612 0 0 0 17.436.38a7.35 7.35 0 0 1-2.313.871A3.663 3.663 0 0 0 12.464.118c-2.012 0-3.642 1.607-3.642 3.589 0 .281.031.555.094.818A10.394 10.394 0 0 1 1.407.775a3.53 3.53 0 0 0-.493 1.804c0 1.245.643 2.344 1.62 2.988a3.664 3.664 0 0 1-1.65-.45v.046c0 1.74 1.256 3.19 2.922 3.52a3.694 3.694 0 0 1-1.645.061 3.64 3.64 0 0 0 3.403 2.493 7.381 7.381 0 0 1-4.525 1.537c-.293 0-.584-.017-.869-.05a10.425 10.425 0 0 0 5.585 1.612c6.7 0 10.364-5.47 10.364-10.213 0-.156-.004-.31-.01-.464A7.359 7.359 0 0 0 17.925 1.8" fill="#55ACEE" fill-rule="evenodd"/></svg>