<svg width="123" height="117" viewBox="0 0 123 117" xmlns="http://www.w3.org/2000/svg"><title>wacom</title><g stroke="#898884" stroke-width="2" fill="none" fill-rule="evenodd" stroke-linecap="round" stroke-linejoin="round"><path d="M119.32 113.674l1.031-1.084-7.406-14.333-4.67 4.91-4.67 4.909 14.684 6.68z"/><path d="M112.945 98.258s-.155-1.848-1.488-2.904c-1.334-1.055-9.408-5.973-18.333-14.463L54.522 44.17l-1.2-.08-.691-1.507-38.572-37.87s-1.917-.22-5.525 3.574C4.926 12.08 5.24 13.983 5.24 13.983l39.748 36.633 1.54.615.139 1.195 38.602 36.72c8.926 8.49 14.24 16.309 15.36 17.588 1.122 1.279 2.976 1.342 2.976 1.342M10.586 6.129C5.752 1.53 3.656-.176 1.747 1.83c-1.909 2.006-.099 4.015 4.734 8.613M121.346 115.6a.866.866 0 0 0-.031-1.224l-1.398-1.33-.597.628-.597.628 1.398 1.33a.867.867 0 0 0 1.225-.031z"/><path d="M96.625 92.085c1.185-1.246 1.683-2.214-1.819-4.693-3.082-2.182-12.923-11.966-14.217-13.197-1.924-1.83-3.137-.35-3.137-.35s-1.419 1.287.505 3.117c1.294 1.23 11.557 10.57 13.89 13.54 2.651 3.375 3.593 2.829 4.778 1.583zM46.529 51.23c1.129-2.516 3.329-4.692 6.792-7.14"/></g></svg>