<svg width="50" height="50" viewBox="0 0 50 50" xmlns="http://www.w3.org/2000/svg"><title>wordpress</title><g fill="#BBBDBF" fill-rule="evenodd"><path d="M3.713 24.902c0 8.457 4.914 15.764 12.04 19.227L5.563 16.21a21.282 21.282 0 0 0-1.85 8.693zM39.499 23.824c0-2.64-.949-4.468-1.762-5.891-1.083-1.76-2.098-3.25-2.098-5.01 0-1.964 1.49-3.792 3.587-3.792.095 0 .185.012.277.017A21.285 21.285 0 0 0 25.077 3.54c-7.464 0-14.03 3.83-17.85 9.63.501.014.974.025 1.375.025 2.234 0 5.693-.271 5.693-.271 1.152-.068 1.288 1.623.137 1.76 0 0-1.157.136-2.445.203l7.78 23.14 4.675-14.021-3.328-9.12c-1.15-.067-2.24-.203-2.24-.203-1.152-.068-1.017-1.828.134-1.76 0 0 3.528.27 5.628.27 2.234 0 5.693-.27 5.693-.27 1.152-.068 1.288 1.623.137 1.76 0 0-1.16.136-2.445.203l7.72 22.965 2.131-7.12c.924-2.955 1.627-5.078 1.627-6.907z"/><path d="M25.451 26.771l-6.41 18.626a21.363 21.363 0 0 0 13.13-.34 1.876 1.876 0 0 1-.152-.295l-6.568-17.99zM43.822 14.653c.092.68.144 1.41.144 2.197 0 2.167-.405 4.604-1.624 7.652l-6.526 18.867c6.351-3.704 10.623-10.585 10.623-18.466 0-3.714-.948-7.207-2.617-10.25z"/><path d="M25.077 0C11.345 0 .173 11.171.173 24.902c0 13.733 11.172 24.904 24.904 24.904 13.73 0 24.904-11.17 24.904-24.904C49.981 11.172 38.807 0 25.077 0zm0 48.665c-13.102 0-23.762-10.66-23.762-23.763 0-13.101 10.66-23.76 23.762-23.76 13.1 0 23.76 10.659 23.76 23.76 0 13.103-10.66 23.763-23.76 23.763z"/></g></svg>