<svg width="24px" height="30px" viewBox="0 0 24 30" xmlns="http://www.w3.org/2000/svg">

    <g id="Page-1" stroke="none" stroke-width="1" fill="none" fill-rule="evenodd">

       <path d="M11,25.1167658 L11,1.0304971 C11,0.737511642 11.4477153,0.5 12,0.5 C12.5522847,0.5 13,0.737511642 13,1.0304971 L13,25.0899297 L21.9217544,15.3254678 C22.2942883,14.9177461 22.9268104,14.8892207 23.3345321,15.2617546 C23.7422538,15.6342885 23.7707791,16.2668105 23.3982453,16.6745322 L12.7557706,28.3222456 L12.0302073,29.1163422 L11.2910386,28.3348941 L0.273513459,16.6871807 C-0.106005959,16.2859533 -0.0884081312,15.6530329 0.312819306,15.2735135 C0.714046744,14.893994 1.34696712,14.9115919 1.72648654,15.3128193 L11,25.1167658 Z M11.7295576,26.4803722 C11.8155762,26.4931609 11.9062826,26.5 12,26.5 C12.0998865,26.5 12.1963526,26.4922309 12.287368,26.4777695 L12.7440117,26.9605327 L11.2792798,26.9731811 L11.7295576,26.4803722 Z" id="arrow-sm"></path>

    </g>
</svg>