<?xml version="1.0" encoding="UTF-8" standalone="no"?>
<svg width="24px" height="53px" viewBox="0 0 24 53" version="1.1" xmlns="http://www.w3.org/2000/svg" xmlns:xlink="http://www.w3.org/1999/xlink">
    <!-- Generator: Sketch 3.8.2 (29753) - http://www.bohemiancoding.com/sketch -->
    <title>Group</title>
    <desc>Created with Sketch.</desc>
    <defs></defs>
    <g id="Page-1" stroke="none" stroke-width="1" fill="none" fill-rule="evenodd">
        <g id="Home-Page" transform="translate(-708.000000, -660.000000)" fill="#951D1D">
            <g id="Group" transform="translate(708.000000, 660.000000)">
                <path d="M11,48.1167658 L11,1.5 C11,0.94771525 11.4477153,0.5 12,0.5 C12.5522847,0.5 13,0.94771525 13,1.5 L13,48.0899297 L21.9217544,38.3254678 C22.2942883,37.9177461 22.9268104,37.8892207 23.3345321,38.2617546 C23.7422538,38.6342885 23.7707791,39.2668105 23.3982453,39.6745322 L12.7557706,51.3222456 L12.0302073,52.1163422 L11.2910386,51.3348941 L0.273513459,39.6871807 C-0.106005959,39.2859533 -0.0884081312,38.6530329 0.312819306,38.2735135 C0.714046744,37.893994 1.34696712,37.9115919 1.72648654,38.3128193 L11,48.1167658 Z M11.7344672,49.4749988 C11.8190252,49.4982289 11.9080638,49.5106354 12,49.5106354 C12.0974459,49.5106354 12.1916364,49.4966973 12.2806866,49.470706 L12.7440117,49.9605327 L11.2792798,49.9731811 L11.7344672,49.4749988 Z" id="arrow"></path>
            </g>
        </g>
    </g>
</svg>