<?xml version="1.0" encoding="UTF-8" standalone="no"?>
<svg width="44px" height="52px" viewBox="0 0 44 52" version="1.1" xmlns="http://www.w3.org/2000/svg" xmlns:xlink="http://www.w3.org/1999/xlink">
    <!-- Generator: Sketch 39.1 (31720) - http://www.bohemiancoding.com/sketch -->
    <title>backbone</title>
    <desc>Created with Sketch.</desc>
    <defs></defs>
    <g id="Page-1" stroke="none" stroke-width="1" fill="none" fill-rule="evenodd" stroke-linecap="round" stroke-linejoin="round">
        <g id="backbone" transform="translate(1.428842, 1.000000)" stroke="#BBBDBF" stroke-width="2">
            <path d="M26.8600038,34.7430088 L33.7940507,31.0370013 M40.2585465,27.5822236 L41.0140974,1.43281162 L21.1069512,12.0719778 M21.1069512,12.0719778 L1.1993394,22.7114127 L0.444254086,48.8605559 L20.3514003,38.2213897 M34.33809,12.2147888 L34.1121697,20.0202576 M30.8229472,25.4113291 L7.12026157,38.0785787 L7.45252027,26.5830999 L20.9479281,19.3707353 M27.404043,15.9207962 L34.33809,12.2147888" id="Stroke-1"></path>
            <path d="M7.34594181,30.2731243 L14.0543373,34.3730513 M20.6637111,30.9563063 L20.3516259,38.2211353 L39.6114066,49.9918819 L40.3667607,23.8432044 L21.1067112,12.0719922 L20.9959698,19.4608275 L33.900418,27.3474714 L33.5686249,38.8426814 M21.1067112,12.0719922 L1.84693056,0.301245577 L1.19936821,22.7118928 M33.5686249,38.8426814 L20.6641767,30.9560375 M20.6641767,30.9560375 L10.636992,24.8282291 M7.66406078,19.2563806 L7.88998102,11.4509117 L14.5986454,15.5513043" id="Stroke-3"></path>
        </g>
    </g>
</svg>