<?xml version="1.0" encoding="UTF-8" standalone="no"?>
<svg width="112px" height="118px" viewBox="0 0 112 118" version="1.1" xmlns="http://www.w3.org/2000/svg" xmlns:xlink="http://www.w3.org/1999/xlink">
    <!-- Generator: Sketch 3.8.2 (29753) - http://www.bohemiancoding.com/sketch -->
    <title>backbone</title>
    <desc>Created with Sketch.</desc>
    <defs></defs>
    <g id="Page-1" stroke="none" stroke-width="1" fill="none" fill-rule="evenodd" stroke-linecap="round" stroke-linejoin="round">
        <g id="backbone" transform="translate(1.000000, 1.000000)" stroke="#898884" stroke-width="2">
            <path d="M55.6803,78.7409 L70.2963,79.2199 M83.9223,79.6669 L109.4583,38.2479 L67.4973,36.8719 M67.4973,36.8719 L25.5353,35.4959 L0.0003,76.9149 L41.9613,78.2909 M88.6773,49.4069 L81.0543,61.7699 M70.7423,67.3949 L20.7813,65.7559 L32.0073,47.5479 L60.4533,48.4809 M74.0613,48.9279 L88.6773,49.4069" id="Stroke-1"></path>
            <path d="M28.4039,53.3927 L35.3969,66.2357 M49.2209,66.8787 L41.9619,78.2907 L62.0389,115.1627 L87.5739,73.7447 L67.4969,36.8717 L60.4469,48.6707 L73.8989,73.3757 L62.6739,91.5837 M67.4969,36.8717 L47.4199,-0.0003 L25.5349,35.4967 M62.6739,91.5837 L49.2219,66.8787 M49.2219,66.8787 L38.7689,47.6827 M39.1619,35.9427 L46.7849,23.5797 L53.7779,36.4237" id="Stroke-3"></path>
        </g>
    </g>
</svg>