<?xml version="1.0" encoding="UTF-8" standalone="no"?>
<svg width="50px" height="51px" viewBox="0 0 50 51" version="1.1" xmlns="http://www.w3.org/2000/svg" xmlns:xlink="http://www.w3.org/1999/xlink">
    <!-- Generator: Sketch 39.1 (31720) - http://www.bohemiancoding.com/sketch -->
    <title>bootstrap</title>
    <desc>Created with Sketch.</desc>
    <defs></defs>
    <g id="Page-1" stroke="none" stroke-width="1" fill="none" fill-rule="evenodd">
        <g id="bootstrap" transform="translate(-0.183099, -0.120000)" fill="#BBBDBF">
            <path d="M15.5247108,12.2790979 L15.5247108,39.1897362 C19.9604915,39.1897362 24.2480252,39.2273532 28.5326521,39.1781617 C32.0033743,39.1347574 34.8898292,36.8661617 35.7357087,33.6368851 C36.6862331,30.011183 35.4682829,27.2419915 32.0702307,25.2916936 C31.8871022,25.1875234 31.7417621,25.0052255 31.5644471,24.843183 C34.465436,22.5659064 35.392706,20.1931404 34.5468265,17.2705872 C33.6544381,14.1859915 31.3289961,12.5539915 28.3553371,12.3514383 C24.1550075,12.0649702 19.9197962,12.2790979 15.5247108,12.2790979 M0.432592149,25.5236936 C0.432592149,19.9766298 0.412244531,14.429566 0.438405754,8.88250213 C0.461660174,4.07041702 3.53415043,1.02054468 8.38851064,1.01186383 C19.4692418,0.994502128 30.549973,0.994502128 41.6307042,1.01765106 C46.8164399,1.02922553 49.8540485,4.0675234 49.8598622,9.22684255 C49.8743962,20.1299915 49.8743962,31.0331404 49.8598622,41.9362894 C49.8540485,47.1708426 46.7873719,50.2062468 41.4795505,50.2178213 C30.5267186,50.2380766 19.5738867,50.2380766 8.62105484,50.2178213 C3.45275996,50.2091404 0.429685346,47.1361191 0.429685346,41.9739064 C0.429685346,36.4905021 0.429685346,31.0070979 0.432592149,25.5236936" id="Fill-1"></path>
            <path d="M19.3457027,26.9549447 C22.1769284,26.9549447 24.7959574,26.8854979 27.4120797,26.9723064 C30.5078244,27.0764766 32.1937699,28.7692426 32.161795,31.5471149 C32.1269134,34.3278809 30.4118999,35.913583 27.2870872,35.9627745 C24.6796853,36.0032851 22.0722835,35.9714553 19.3457027,35.9714553 L19.3457027,26.9549447 Z" id="Fill-3"></path>
            <path d="M19.380003,15.3055319 C22.339128,15.4733617 25.1994216,15.4791489 28.0073929,15.8524255 C30.0566886,16.1244255 31.0391879,17.6377872 31.0159335,19.6459574 C30.9897723,21.5788936 30.0421546,23.0401702 28.0684357,23.306383 C25.2546509,23.691234 22.3885436,23.7028085 19.380003,23.8851064 L19.380003,15.3055319 Z" id="Fill-5"></path>
        </g>
    </g>
</svg>