<?xml version="1.0" encoding="UTF-8" standalone="no"?>
<svg width="56px" height="50px" viewBox="0 0 56 50" version="1.1" xmlns="http://www.w3.org/2000/svg" xmlns:xlink="http://www.w3.org/1999/xlink">
    <!-- Generator: Sketch 39.1 (31720) - http://www.bohemiancoding.com/sketch -->
    <title>bower</title>
    <desc>Created with Sketch.</desc>
    <defs></defs>
    <g id="Page-1" stroke="none" stroke-width="1" fill="none" fill-rule="evenodd">
        <g id="bower" fill="#BBBDBF">
            <path d="M29.8591155,23.714336 C29.9465521,23.542976 30.0339887,23.368896 30.1159606,23.194816 C30.0339887,23.368896 29.9465521,23.542976 29.8591155,23.714336 L29.8591155,23.714336 Z" id="Fill-14"></path>
            <path d="M43.8989775,26.636976 L43.8989775,26.636976 C47.3472592,27.297936 50.6479915,27.958896 51.6863014,28.222736 C50.997738,29.340656 49.4293437,30.129456 47.0630901,29.582736 C48.3418507,31.315376 45.8608366,33.393456 42.4043577,32.248336 C43.1666958,33.948336 40.0872873,35.479696 36.5925549,33.708976 C36.6362732,35.408976 32.2535127,35.604816 30.5211746,33.725296 C30.5211746,33.728016 30.5211746,33.733456 30.523907,33.736176 C30.4719915,33.624656 30.4173437,33.507696 30.3654282,33.388016 C30.5293718,33.785136 30.6687239,34.122416 30.7288366,34.296496 C31.3572873,36.037296 28.4882732,42.619696 22.0124986,42.619696 C14.3262732,42.619696 7.38052676,37.960336 4.38582254,30.978096 C4.43227324,31.002576 4.48145634,31.021616 4.52790704,31.043376 L4.52790704,31.043376 C4.48145634,31.021616 4.43227324,31.002576 4.38582254,30.978096 C3.3857662,28.647056 2.82562535,26.060336 2.82562535,23.299536 C2.82562535,11.638896 11.4818507,2.937616 21.9277944,2.937616 C27.9144704,2.937616 30.6168085,7.626896 31.1742169,9.403056 C27.5619915,13.047856 28.9883014,17.655536 30.3025831,19.739056 C28.4336254,22.834416 24.7558225,24.953296 20.4850901,25.918896 C24.0454,25.918896 26.6548366,25.225296 28.4855408,24.267856 C28.7041324,24.088336 28.9418507,23.952336 29.1959634,23.859856 C29.5347803,23.644976 29.8408085,23.421936 30.1167803,23.193456 C30.9283014,22.529776 31.3928085,21.906896 31.6441887,21.536976 C37.1035127,21.890576 45.0083296,23.315856 48.8801324,24.292336 L48.8828648,24.292336 C51.1043014,24.888016 51.8119915,25.266096 52.071569,26.593456 C47.9757099,26.022256 41.3605831,25.429296 37.3603577,25.124656 L37.3576254,25.124656 C36.1417099,25.029456 35.1662451,24.964176 34.5787803,24.931536 C35.5487803,25.070256 39.8249775,25.853616 43.8989775,26.636976 M41.0682169,15.008976 C39.682893,14.464976 37.923231,14.122256 36.6909211,14.122256 C34.6224986,14.122256 33.2153155,15.721616 30.4009493,14.875696 C31.7343577,16.246576 34.0623577,15.251056 35.2974,14.957296 C35.311062,15.169456 35.3356535,15.376176 35.3657099,15.585616 C33.4830901,16.031696 31.507569,17.225776 30.9337662,17.535856 C29.6632028,14.739696 30.7561606,12.095856 31.7671465,10.874576 C36.2974563,10.885456 39.9534,13.983536 41.0682169,15.008976 M47.0876817,4.357456 C44.3197662,6.857136 45.3034282,12.049616 43.0273437,14.796816 C42.3770338,14.146736 40.8824141,12.890096 40.1200761,12.356976 C41.2540197,10.118416 42.6803296,7.673136 44.4782451,6.158096 C42.4972592,6.952336 40.5408648,9.329616 39.385062,11.870096 C38.7948648,11.497456 38.1964704,11.162896 37.5953437,10.871856 C39.2074563,7.444656 42.9563014,4.580496 47.0876817,4.357456 M37.3439634,17.133296 C37.0379352,16.475056 36.7291746,15.381616 36.7674282,14.739696 C37.2811183,14.726096 38.2675127,14.919216 38.4259915,14.957296 C38.3658789,15.256496 38.3330901,15.920176 38.3303577,16.004496 C38.4287239,15.838576 38.699231,15.259216 38.8112592,15.033456 C39.7976535,15.221136 41.0955408,15.533936 41.8578789,15.887536 C40.9643859,16.464176 39.4451746,17.089776 37.3439634,17.133296 M54.7793718,24.251536 C51.9322169,21.526096 37.6882451,19.826096 33.1934563,19.331056 C33.4120479,18.819696 33.5951183,18.289296 33.7481324,17.742576 C34.3629211,17.476016 35.0241606,17.228496 35.7072592,17.021776 C35.7919634,17.266576 36.1826958,18.202256 36.4067521,18.648336 C45.4455127,18.895856 45.9100197,11.962576 46.2761606,10.061296 C46.6368366,8.206256 46.6177099,6.411056 49.7189775,3.128016 C45.0984986,1.789776 38.4560479,5.206096 36.2318789,10.289776 C35.3957662,9.979696 34.5596535,9.748496 33.7290056,9.607056 C33.1360761,7.221616 30.0430056,0.576656 21.9277944,0.576656 C11.6539915,0.576656 0.456639437,9.016816 0.456639437,23.299536 C0.456639437,35.305616 8.68934366,45.829296 13.3426113,45.829296 C15.3755127,45.829296 17.1242451,44.314256 17.5341042,42.956976 C17.8783859,43.887216 18.9330901,46.781296 19.2801042,47.518416 C19.791062,48.606416 22.1627803,49.550256 23.1983577,48.418736 C24.5317662,49.155856 26.9772592,49.601936 28.3106676,47.635376 C30.8791183,48.173936 33.149738,46.650736 33.1989211,44.831056 C34.4585549,44.765776 35.0760761,43.003216 34.8028366,41.602416 C34.597907,40.568816 32.4338507,36.864176 31.5868085,35.583056 C33.2617662,36.940336 37.4969775,37.323856 38.0134,35.585776 C40.7102732,37.693776 44.9126958,36.586736 45.2460479,34.873136 C48.5249211,35.719056 52.2846958,33.858576 51.6671746,31.603696 C56.9324986,31.241936 56.2575972,25.663216 54.7793718,24.251536" id="Fill-16"></path>
            <path d="M21.8638563,10.70512 C22.7928704,10.70512 23.5470113,11.17024 23.5470113,11.74688 C23.5470113,12.32352 22.7928704,12.78864 21.8638563,12.78864 C20.9348423,12.78864 20.1807014,12.32352 20.1807014,11.74688 C20.1807014,11.17024 20.9348423,10.70512 21.8638563,10.70512 M21.8638563,15.8976 C23.4595746,15.8976 24.7519972,14.61104 24.7519972,13.02256 C24.7519972,11.43408 23.4595746,10.14752 21.8638563,10.14752 C20.268138,10.14752 18.9757155,11.43408 18.9757155,13.02256 C18.9757155,14.61104 20.268138,15.8976 21.8638563,15.8976" id="Fill-18"></path>
        </g>
    </g>
</svg>