<?xml version="1.0" encoding="UTF-8" standalone="no"?>
<svg width="21px" height="21px" viewBox="0 0 21 21" version="1.1" xmlns="http://www.w3.org/2000/svg" xmlns:xlink="http://www.w3.org/1999/xlink">
    <!-- Generator: Sketch 39.1 (31720) - http://www.bohemiancoding.com/sketch -->
    <title>github</title>
    <desc>Created with Sketch.</desc>
    <defs></defs>
    <g id="Page-1" stroke="none" stroke-width="1" fill="none" fill-rule="evenodd">
        <g id="About-+-Contact" transform="translate(-1126.000000, -657.000000)" fill="#B7AE9D">
            <path d="M1146.57143,667.428571 C1146.57143,669.669654 1145.91742,671.685259 1144.60938,673.475446 C1143.30133,675.265634 1141.61162,676.504461 1139.54018,677.191964 C1139.29911,677.236607 1139.12277,677.205358 1139.01116,677.098214 C1138.89955,676.991071 1138.84375,676.857144 1138.84375,676.696429 L1138.84375,673.870536 C1138.84375,673.00446 1138.61161,672.370538 1138.14732,671.96875 C1138.65625,671.915178 1139.11384,671.834822 1139.52009,671.727679 C1139.92634,671.620535 1140.34598,671.44643 1140.77902,671.205357 C1141.21206,670.964285 1141.57366,670.667412 1141.86384,670.314732 C1142.15402,669.962052 1142.39062,669.493306 1142.57366,668.908482 C1142.7567,668.323658 1142.84821,667.65179 1142.84821,666.892857 C1142.84821,665.812495 1142.49554,664.892861 1141.79018,664.133929 C1142.12054,663.321425 1142.08482,662.410719 1141.68304,661.401786 C1141.43303,661.321428 1141.07143,661.370535 1140.59821,661.549107 C1140.125,661.727679 1139.71429,661.924106 1139.36607,662.138393 L1138.85714,662.459821 C1138.02678,662.227677 1137.16965,662.111607 1136.28571,662.111607 C1135.40178,662.111607 1134.54465,662.227677 1133.71429,662.459821 C1133.57143,662.361607 1133.3817,662.241072 1133.14509,662.098214 C1132.90848,661.955356 1132.53572,661.783483 1132.02679,661.582589 C1131.51785,661.381695 1131.13393,661.321428 1130.875,661.401786 C1130.48214,662.410719 1130.45089,663.321425 1130.78125,664.133929 C1130.07589,664.892861 1129.72321,665.812495 1129.72321,666.892857 C1129.72321,667.65179 1129.81473,668.321426 1129.99777,668.901786 C1130.1808,669.482146 1130.41518,669.950891 1130.70089,670.308036 C1130.98661,670.66518 1131.34598,670.964285 1131.77902,671.205357 C1132.21206,671.44643 1132.63169,671.620535 1133.03795,671.727679 C1133.4442,671.834822 1133.90178,671.915178 1134.41071,671.96875 C1134.05357,672.29018 1133.83482,672.749997 1133.75446,673.348214 C1133.56696,673.4375 1133.36607,673.504464 1133.15179,673.549107 C1132.9375,673.59375 1132.68304,673.616071 1132.38839,673.616071 C1132.09375,673.616071 1131.80134,673.52009 1131.51116,673.328125 C1131.22098,673.13616 1130.97322,672.857145 1130.76786,672.491071 C1130.59821,672.205356 1130.3817,671.973215 1130.1183,671.794643 C1129.85491,671.616071 1129.63393,671.508929 1129.45536,671.473214 L1129.1875,671.433036 C1129,671.433036 1128.87054,671.453125 1128.79911,671.493304 C1128.72768,671.533482 1128.70536,671.584821 1128.73214,671.647321 C1128.75893,671.709822 1128.79911,671.772321 1128.85268,671.834821 C1128.90625,671.897322 1128.96429,671.950893 1129.02679,671.995536 L1129.12054,672.0625 C1129.31697,672.151786 1129.51116,672.321427 1129.70312,672.571429 C1129.89509,672.82143 1130.03571,673.049106 1130.125,673.254464 L1130.25893,673.5625 C1130.375,673.901787 1130.57143,674.176338 1130.84821,674.386161 C1131.125,674.595983 1131.42411,674.72991 1131.74554,674.787946 C1132.06697,674.845982 1132.37723,674.877232 1132.67634,674.881696 C1132.97545,674.886161 1133.22321,674.870536 1133.41964,674.834821 L1133.72768,674.78125 C1133.72768,675.120537 1133.72991,675.517855 1133.73438,675.973214 C1133.73884,676.428574 1133.74107,676.669643 1133.74107,676.696429 C1133.74107,676.857144 1133.68304,676.991071 1133.56696,677.098214 C1133.45089,677.205358 1133.27232,677.236607 1133.03125,677.191964 C1130.95981,676.504461 1129.2701,675.265634 1127.96205,673.475446 C1126.65401,671.685259 1126,669.669654 1126,667.428571 C1126,665.562491 1126.45982,663.841526 1127.37946,662.265625 C1128.29911,660.689724 1129.54687,659.441969 1131.12277,658.522321 C1132.69867,657.602674 1134.41963,657.142857 1136.28571,657.142857 C1138.1518,657.142857 1139.87276,657.602674 1141.44866,658.522321 C1143.02456,659.441969 1144.27232,660.689724 1145.19196,662.265625 C1146.11161,663.841526 1146.57143,665.562491 1146.57143,667.428571 L1146.57143,667.428571 Z" id="github"></path>
        </g>
    </g>
</svg>