<?xml version="1.0" encoding="UTF-8" standalone="no"?>
<svg width="170px" height="104px" viewBox="0 0 170 104" version="1.1" xmlns="http://www.w3.org/2000/svg" xmlns:xlink="http://www.w3.org/1999/xlink">
    <!-- Generator: Sketch 3.8.2 (29753) - http://www.bohemiancoding.com/sketch -->
    <title>glasses</title>
    <desc>Created with Sketch.</desc>
    <defs></defs>
    <g id="Page-1" stroke="none" stroke-width="1" fill="none" fill-rule="evenodd" stroke-linecap="round" stroke-linejoin="round">
        <g id="glasses" transform="translate(1.000000, 1.000000)" stroke="#898884" stroke-width="2">
            <path d="M17.5031,84.3461 C13.1141,93.0711 9.5641,100.9161 9.5641,100.9161 C9.5641,100.9161 17.4661,103.8531 21.3251,96.8961 C22.3961,94.9671 23.1281,92.3321 23.8481,89.3391" id="Stroke-1"></path>
            <path d="M24.7261,85.6049 C26.4101,78.4889 28.6691,70.3029 35.0071,64.7799 C45.3641,55.7549 64.8271,46.4089 64.8271,46.4089 C64.8271,46.4089 59.7601,43.0519 54.0881,44.0039 C48.4171,44.9569 36.9491,55.1429 30.0991,62.9099 C27.2451,66.1459 23.2041,73.2819 19.4611,80.5079" id="Stroke-3"></path>
            <path d="M13.9079,70.7925 L30.2259,63.1815" id="Stroke-5"></path>
            <path d="M146.032,31.2359 C139.601,27.7579 131.988,23.9969 123.648,25.0529 C110.019,26.7779 90.091,35.0859 90.091,35.0859 C90.091,35.0859 90.957,29.0699 95.442,25.4709 C99.927,21.8709 115.162,20.0899 125.518,20.1449 C129.785,20.1669 137.67,21.8619 145.469,23.8479" id="Stroke-7"></path>
            <path d="M149.9012,25.0077 C159.3342,27.5377 167.5532,30.1087 167.5532,30.1087 C167.5532,30.1087 164.4862,37.9617 156.7252,36.2127 C154.5402,35.7197 152.0432,34.4837 149.2802,32.9997" id="Stroke-9"></path>
            <path d="M142.1764,13.3047 L125.6234,20.3897" id="Stroke-11"></path>
            <path d="M49.7032,89.1881 C26.0602,97.9061 15.6602,74.7031 13.3232,69.4891 C10.9872,64.2751 15.7872,59.6181 34.2082,50.4241 C52.6282,41.2291 63.5692,42.5871 67.6222,49.5361 C67.6222,49.5361 80.7972,77.7231 49.7032,89.1881 L49.7032,89.1881 Z" id="Stroke-13"></path>
            <path d="M148.1106,0.0004 C125.1236,5.2934 107.3956,13.2394 96.6526,19.3064 C85.9096,25.3734 86.4126,28.5914 83.5266,33.3294 C80.5686,33.7154 70.1406,38.3894 67.8836,40.3394 C62.4276,39.3414 60.3596,36.8244 48.6826,40.8064 C37.0046,44.7874 19.2766,52.7324 0.0286,66.3684 C-0.3674,69.6764 3.5336,74.1894 3.5336,74.1894 C7.6236,74.2354 10.0066,75.3594 10.8506,76.5454 C11.6956,77.7324 27.9926,103.6144 55.0696,89.2874 C82.1476,74.9604 72.2246,55.6134 73.4566,50.6784 C74.6886,45.7434 77.2056,43.6754 78.5096,43.0914 C79.8136,42.5074 83.0316,42.0044 87.5356,44.3684 C92.0386,46.7334 99.8766,67.0144 128.5896,56.3374 C157.3036,45.6594 148.8286,16.2714 148.5046,14.8514 C148.1816,13.4314 148.9276,10.9054 151.6156,7.8214 C151.6156,7.8214 150.8436,1.9064 148.1106,0.0004 L148.1106,0.0004 Z" id="Stroke-15"></path>
            <path d="M132.0871,52.265 C154.3281,40.418 143.9291,17.215 141.5921,12.001 C139.2551,6.787 132.5851,7.272 113.4631,14.903 C94.3421,22.533 88.0751,31.603 90.5651,39.254 C90.5651,39.254 102.8371,67.845 132.0871,52.265 L132.0871,52.265 Z" id="Stroke-17"></path>
        </g>
    </g>
</svg>