<?xml version="1.0" encoding="UTF-8" standalone="no"?>
<svg width="170px" height="105px" viewBox="0 0 170 105" version="1.1" xmlns="http://www.w3.org/2000/svg" xmlns:xlink="http://www.w3.org/1999/xlink">
    <!-- Generator: Sketch 39.1 (31720) - http://www.bohemiancoding.com/sketch -->
    <title>glasses</title>
    <desc>Created with Sketch.</desc>
    <defs></defs>
    <g id="Page-1" stroke="none" stroke-width="1" fill="none" fill-rule="evenodd" stroke-linecap="round" stroke-linejoin="round">
        <g id="Home" transform="translate(-1200.000000, -1093.000000)" stroke="#37342D" stroke-width="2">
            <g id="glasses" transform="translate(1201.000000, 1094.000000)">
                <path d="M17.939,85 C13.55,93.725 10,101.57 10,101.57 C10,101.57 17.902,104.507 21.761,97.55 C22.832,95.621 23.564,92.986 24.284,89.993" id="Stroke-1"></path>
                <path d="M25.265,85.770995 C26.949,78.654995 29.208,70.468995 35.546,64.945995 C45.903,55.920995 65.366,46.574995 65.366,46.574995 C65.366,46.574995 60.299,43.217995 54.627,44.169995 C48.956,45.122995 37.488,55.308995 30.638,63.075995 C27.784,66.311995 23.743,73.447995 20,80.673995" id="Stroke-3"></path>
                <path d="M14,71.611 L30.318,64" id="Stroke-5"></path>
                <path d="M145.941,32.0922358 C139.51,28.6142358 131.897,24.8532358 123.557,25.9092358 C109.928,27.6342358 90,35.9422358 90,35.9422358 C90,35.9422358 90.866,29.9262358 95.351,26.3272358 C99.836,22.7272358 115.071,20.9462358 125.427,21.0012358 C129.694,21.0232358 137.579,22.7182358 145.378,24.7042358" id="Stroke-7"></path>
                <path d="M149.621,25 C159.054,27.53 167.273,30.101 167.273,30.101 C167.273,30.101 164.206,37.954 156.445,36.205 C154.26,35.712 151.763,34.476 149,32.992" id="Stroke-9"></path>
                <path d="M142.553,14 L126,21.085" id="Stroke-11"></path>
                <path d="M49.9278576,89.2632809 C26.2848576,97.9812809 15.8848576,74.7782809 13.5478576,69.5642809 C11.2118576,64.3502809 16.0118576,59.6932809 34.4328576,50.4992809 C52.8528576,41.3042809 63.7938576,42.6622809 67.8468576,49.6112809 C67.8468576,49.6112809 81.0218576,77.7982809 49.9278576,89.2632809 L49.9278576,89.2632809 Z" id="Stroke-13"></path>
                <path d="M148.110231,0 C125.123231,5.293 107.395231,13.239 96.6522309,19.306 C85.9092309,25.373 86.4122309,28.591 83.5262309,33.329 C80.5682309,33.715 70.1402309,38.389 67.8832309,40.339 C62.4272309,39.341 60.3592309,36.824 48.6822309,40.806 C37.0042309,44.787 19.2762309,52.732 0.0282308543,66.368 C-0.367769146,69.676 3.53323085,74.189 3.53323085,74.189 C7.62323085,74.235 10.0062309,75.359 10.8502309,76.545 C11.6952309,77.732 27.9922309,103.614 55.0692309,89.287 C82.1472309,74.96 72.2242309,55.613 73.4562309,50.678 C74.6882309,45.743 77.2052309,43.675 78.5092309,43.091 C79.8132309,42.507 83.0312309,42.004 87.5352309,44.368 C92.0382309,46.733 99.8762309,67.014 128.589231,56.337 C157.303231,45.659 148.828231,16.271 148.504231,14.851 C148.181231,13.431 148.927231,10.905 151.615231,7.821 C151.615231,7.821 150.843231,1.906 148.110231,0 L148.110231,0 Z" id="Stroke-15"></path>
                <path d="M132.04179,52.7140216 C154.28279,40.8670216 143.88379,17.6640216 141.54679,12.4500216 C139.20979,7.23602159 132.53979,7.72102159 113.41779,15.3520216 C94.2967898,22.9820216 88.0297898,32.0520216 90.5197898,39.7030216 C90.5197898,39.7030216 102.79179,68.2940216 132.04179,52.7140216 L132.04179,52.7140216 Z" id="Stroke-17"></path>
            </g>
        </g>
    </g>
</svg>