<?xml version="1.0" encoding="UTF-8" standalone="no"?>
<svg width="145px" height="146px" viewBox="0 0 145 146" version="1.1" xmlns="http://www.w3.org/2000/svg" xmlns:xlink="http://www.w3.org/1999/xlink">
    <!-- Generator: Sketch 39.1 (31720) - http://www.bohemiancoding.com/sketch -->
    <title>graph</title>
    <desc>Created with Sketch.</desc>
    <defs>
        <path d="M63.5,145 C98.5700816,145 127,116.570082 127,81.5 C127,46.4299184 98.5700816,18 63.5,18 C28.4299184,18 0,46.4299184 0,81.5 C0,116.570082 28.4299184,145 63.5,145 Z" id="path-1"></path>
        <mask id="mask-2" maskContentUnits="userSpaceOnUse" maskUnits="objectBoundingBox" x="0" y="0" width="127" height="127" fill="white">
            <use xlink:href="#path-1"></use>
        </mask>
        <path d="M122.100363,137.134385 C135.919263,122.680835 144.40725,103.087735 144.40725,81.5121579 C144.40725,45.8148909 121.171867,15.5445385 89,5" id="path-3"></path>
        <mask id="mask-4" maskContentUnits="userSpaceOnUse" maskUnits="objectBoundingBox" x="0" y="0" width="55.4072502" height="132.134385" fill="white">
            <use xlink:href="#path-3"></use>
        </mask>
    </defs>
    <g id="Page-1" stroke="none" stroke-width="1" fill="none" fill-rule="evenodd">
        <g id="Home" transform="translate(-952.000000, -965.000000)" stroke="#37342D">
            <g id="graph" transform="translate(952.000000, 966.000000)">
                <use id="Oval" mask="url(#mask-2)" stroke-width="4" opacity="0.600000024" xlink:href="#path-1"></use>
                <use id="Oval" mask="url(#mask-4)" stroke-width="4" stroke-dasharray="8,4" opacity="0.600000024" xlink:href="#path-3"></use>
                <path d="M86.5,10.5 L90.5,0.5" id="Line" stroke-width="2" stroke-linecap="square"></path>
                <path d="M117,133 L123.806959,141.346575" id="Line" stroke-width="2" stroke-linecap="square"></path>
            </g>
        </g>
    </g>
</svg>