<?xml version="1.0" encoding="UTF-8" standalone="no"?>
<svg width="38px" height="50px" viewBox="0 0 38 50" version="1.1" xmlns="http://www.w3.org/2000/svg" xmlns:xlink="http://www.w3.org/1999/xlink">
    <!-- Generator: Sketch 39.1 (31720) - http://www.bohemiancoding.com/sketch -->
    <title>grunt</title>
    <desc>Created with Sketch.</desc>
    <defs></defs>
    <g id="Page-1" stroke="none" stroke-width="1" fill="none" fill-rule="evenodd">
        <g id="grunt" fill="#BBBDBF">
            <path d="M13.5232,6.03207442 C13.3995163,3.43397209 15.5293767,1.36468837 16.2673116,1.27657674 C16.308093,1.71683721 16.2262326,3.43412093 16.9640186,3.96219535 C17.1787907,2.55955349 17.9051163,1.01313488 20.7732093,0 C20.1589581,1.62917209 20.6912,2.99386047 20.9446698,3.6264186 C22.9032186,1.84870698 24.2228093,2.14251163 24.2228093,2.14251163 C24.2228093,2.14251163 22.8619907,4.49071628 23.3942326,6.03147907 C19.4625488,5.72323721 13.5424,6.44926512 13.5232,6.03207442 L13.5232,6.03207442 L13.5232,6.03207442 L13.5232,6.03207442 Z" id="Shape"></path>
            <path d="M5.1880186,9.98950698 C4.24989767,9.21123721 4.94913488,8.48893023 4.87501395,7.60468837 C4.83467907,7.13421395 4.79746977,6.69023256 4.6423814,6.44539535 C3.77912558,5.08219535 1.74258605,4.66857674 1.72219535,4.66426047 L0.766362791,4.47702326 L1.39906977,3.73685581 C1.48107907,3.64100465 4.07947907,1.16182326 8.10046512,2.4599814 C10.9131907,3.36714419 12.9954233,6.44331163 13.0729674,6.5675907 L11.662586,7.2308093 C11.6460651,7.20461395 9.99992558,4.31315349 7.58682791,3.53503256 C5.63616744,2.9056 3.83836279,3.50437209 3.06827907,3.89685581 C3.88688372,4.22370233 4.95717209,4.81890233 5.60208372,5.83709767 C5.90630698,6.3179907 5.95765581,6.92346047 6.0072186,7.50973023 C6.07255814,8.28591628 6.13373023,9.01864186 6.70496744,9.49313488 L5.1880186,9.98950698 L5.1880186,9.98950698 L5.1880186,9.98950698 Z" id="Shape"></path>
            <path d="M2.68249302,21.3506977 C2.68249302,21.3506977 3.8644093,19.8850977 4.21447442,17.0332279 C4.352,15.9099535 4.10775814,13.6943628 3.71691163,12.8419721 C3.78790698,14.9374512 3.2552186,17.0332279 3.2552186,17.0332279 C3.2552186,17.0332279 2.89607442,20.9244279 2.68249302,21.3506977 L2.68249302,21.3506977 L2.68249302,21.3506977 L2.68249302,21.3506977 Z" id="Shape"></path>
            <path d="M8.91475349,8.50932093 C8.91415814,8.50619535 8.53551628,6.85157209 7.48576744,6.01629767 C6.00498605,4.8384 4.19691163,5.46500465 4.17949767,5.47051163 L3.91694884,4.65949767 C4.00446512,4.63106977 6.07106977,3.97990698 7.9755907,5.31869767 C9.89157209,6.66507907 10.1215256,7.88554419 10.1414698,8.0203907 L8.91475349,8.50932093 L8.91475349,8.50932093 L8.91475349,8.50932093 Z" id="Shape"></path>
            <path d="M6.39464186,20.2996093 C6.39464186,20.2996093 5.77458605,19.4119442 5.88606512,18.4357209 C5.9415814,17.9536372 6.16498605,17.4587535 6.56386977,17.2831256 C7.30507907,16.9574698 7.63356279,17.7976558 7.63356279,17.7976558 C7.63356279,17.7976558 6.59036279,18.0551442 6.39464186,20.2996093 L6.39464186,20.2996093 L6.39464186,20.2996093 L6.39464186,20.2996093 Z" id="Shape"></path>
            <path d="M13.2029023,21.6525395 C13.2288,21.7009116 13.2420465,21.728 13.2420465,21.728 C13.2420465,21.728 11.3080558,23.1794605 9.3259907,21.7065674 C8.26507907,20.9174326 8.36524651,18.9654326 8.69030698,18.1376 C9.53555349,18.3291535 10.2525023,18.6744558 10.8517209,19.0776558 C10.0944372,18.401786 9.43151628,17.9042233 9.43330233,17.8927628 L8.57257674,17.6491163 L6.89964651,17.0754977 C6.87821395,17.2030512 6.2679814,20.0632558 8.02932093,22.0121302 C8.80997209,22.8762791 12.4698791,24.8114605 14.2075535,21.5025116 L13.2029023,21.6525395 L13.2029023,21.6525395 L13.2029023,21.6525395 Z" id="Shape"></path>
            <path d="M13.0217674,21.8652279 C14.1106605,23.5225302 16.8580465,22.5754791 16.8107163,20.8233674 C16.8107163,20.8233674 14.9749581,21.8365023 13.3530791,19.9711256 C12.4061767,18.8820837 9.3719814,15.879293 5.25722791,16.8772465 C8.09882791,17.5020651 11.8606884,20.0982326 13.0217674,21.8652279 L13.0217674,21.8652279 L13.0217674,21.8652279 L13.0217674,21.8652279 Z" id="Shape"></path>
            <path d="M4.8727814,26.542586 C5.13473488,26.6939535 6.05856744,27.6506791 6.05916279,29.0816 C6.05916279,29.7991442 5.98772093,33.4038326 5.63259535,35.6060279 C6.16677209,35.9531163 6.53886512,36.0269395 7.0708093,36.3807256 C7.33707907,33.8302512 7.52803721,30.1337302 7.43903256,28.6414884 C7.33722791,26.9404279 6.42649302,25.7988465 5.58184186,25.312 C5.31735814,25.1598884 5.04096744,25.010307 4.76264186,24.8598326 C3.31594419,24.0781395 1.8199814,23.269507 1.8199814,21.8887442 C1.8199814,20.8086326 2.23985116,20.4707721 2.68442791,20.1126698 L2.73235349,20.0738233 C3.02734884,19.8355349 3.3611907,19.5652465 3.55899535,19.121414 C4.09867907,17.9079442 4.18693953,14.816893 3.55899535,14.0322233 C3.2459907,13.6412279 2.40729302,12.3264 2.6484093,11.4429023 C2.74024186,11.1056372 2.95263256,10.8557395 3.2983814,10.6786233 C3.66422326,10.4912372 4.15851163,10.3962791 4.76695814,10.3962791 C5.96212093,10.3962791 7.28766512,10.7600372 7.97157209,10.9765953 C10.4153302,11.7511442 13.364093,13.9842977 14.2093395,14.6503442 C14.2336,14.6689488 14.2478884,14.679814 14.2504186,14.6816 L14.791293,15.0577116 L14.452986,14.4916837 C14.4321488,14.4564093 12.289786,10.9337302 8.45916279,9.64212093 C7.71393488,9.39088372 6.24982326,8.96922791 4.81101395,8.96922791 C3.95430698,8.96922791 3.22738605,9.1188093 2.65183256,9.41350698 C1.95036279,9.77235349 1.47527442,10.3449302 1.27791628,11.0687256 C0.794195349,12.843014 2.36963721,14.8185302 2.42336744,14.8816372 C2.60703256,15.2095256 2.68487442,17.5913674 2.26053953,18.5446698 C2.20219535,18.6762419 2.04219535,18.8055814 1.83962791,18.9690047 C1.77622326,19.0203535 1.70522791,19.0736372 1.63006512,19.1306419 C1.03144186,19.5825116 0.126213953,20.2652279 0.126213953,21.8388837 C0.126213953,23.9921116 2.30846512,25.1595907 4.06221395,26.098307 C4.34991628,26.2530977 4.62452093,26.3995535 4.8727814,26.542586 L4.8727814,26.542586 L4.8727814,26.542586 L4.8727814,26.542586 Z" id="Shape"></path>
            <path d="M5.1880186,9.98950698 C4.24989767,9.21123721 4.94913488,8.48893023 4.87501395,7.60468837 C4.83467907,7.13421395 4.79746977,6.69023256 4.6423814,6.44539535 C3.77912558,5.08219535 1.74258605,4.66857674 1.72219535,4.66426047 L0.766362791,4.47702326 L1.39906977,3.73685581 C1.48107907,3.64100465 4.07947907,1.16182326 8.10046512,2.4599814 C10.9131907,3.36714419 12.9954233,6.44331163 13.0729674,6.5675907 L11.662586,7.2308093 C11.6460651,7.20461395 9.99992558,4.31315349 7.58682791,3.53503256 C5.63616744,2.9056 3.83836279,3.50437209 3.06827907,3.89685581 C3.88688372,4.22370233 4.95717209,4.81890233 5.60208372,5.83709767 C5.90630698,6.3179907 5.95765581,6.92346047 6.0072186,7.50973023 C6.07255814,8.28591628 6.13373023,9.01864186 6.70496744,9.49313488 L5.1880186,9.98950698 L5.1880186,9.98950698 L5.1880186,9.98950698 Z" id="Shape"></path>
            <path d="M5.15750698,10.1489116 L5.09693023,10.0987535 C4.40126512,9.52141395 4.52465116,8.95270698 4.64416744,8.40245581 C4.69849302,8.14853953 4.75579535,7.8859907 4.73257674,7.61674419 C4.69462326,7.1639814 4.65815814,6.7368186 4.52182326,6.52115349 C3.69979535,5.22329302 1.71326512,4.80744186 1.6936186,4.80342326 L0.499795349,4.56930233 L1.29116279,3.64413023 C1.3056,3.62686512 2.97391628,1.94277209 5.79944186,1.94277209 C6.56967442,1.94277209 7.3588093,2.07092093 8.14392558,2.32453953 C11.0795907,3.27114419 13.1738791,6.46057674 13.1936744,6.49213023 L13.2783628,6.62757209 L11.6100465,7.41224186 L11.5430698,7.30597209 C11.3635721,6.99996279 9.78173023,4.39129302 7.54396279,3.66943256 C6.99430698,3.4920186 6.41533023,3.4024186 5.82340465,3.4024186 C4.75133023,3.4024186 3.88197209,3.69458605 3.41938605,3.89075349 C4.19244651,4.23888372 5.12997209,4.82485581 5.72323721,5.76044651 C6.04576744,6.27006512 6.0980093,6.89294884 6.1492093,7.49469767 C6.2120186,8.24305116 6.27140465,8.94675349 6.79635349,9.38254884 L6.99445581,9.54686512 L5.15750698,10.1489116 L5.15750698,10.1489116 L5.15750698,10.1489116 Z" id="Shape"></path>
            <path d="M8.91475349,8.50932093 C8.91415814,8.50619535 8.53551628,6.85157209 7.48576744,6.01629767 C6.00498605,4.8384 4.19691163,5.46500465 4.17949767,5.47051163 L3.91694884,4.65949767 C4.00446512,4.63106977 6.07106977,3.97990698 7.9755907,5.31869767 C9.89157209,6.66507907 10.1215256,7.88554419 10.1414698,8.0203907 L8.91475349,8.50932093 L8.91475349,8.50932093 L8.91475349,8.50932093 Z" id="Shape"></path>
            <path d="M14.0971163,43.9787163 L14.0971163,43.9787163 C13.6773953,43.9787163 13.2490419,43.8264558 12.9521116,43.569414 C12.7248372,43.3735442 11.9562419,42.6676093 11.6173395,41.8027163 C11.4908279,41.479293 11.5192558,41.220614 11.7027721,41.0344186 C11.8292837,40.9068651 12.0918326,40.754307 12.6248186,40.754307 L13.0040558,40.7537116 C13.4559256,40.7532651 14.2167814,40.7532651 14.8670512,40.7532651 L15.4905302,40.7532651 C15.8959628,40.7532651 16.1866419,40.8409302 16.353786,41.0117953 C16.5684093,41.2323721 16.4996465,41.5129302 16.4396651,41.6605767 C16.3351814,41.9192558 15.9028093,42.7610791 15.1708279,43.5436651 C14.9087256,43.8240744 14.5272558,43.9787163 14.0971163,43.9787163 L14.0971163,43.9787163 L14.0971163,43.9787163 L14.0971163,43.9787163 Z" id="Shape"></path>
            <path d="M14.5370791,21.9627163 L13.0216186,21.8652279 C13.0216186,21.8652279 13.4090419,22.548093 13.6599814,23.431293 C13.9433674,24.4302884 13.4008558,25.8902326 13.4008558,25.8902326 C13.4008558,25.8902326 15.4214698,23.6026047 14.5370791,21.9627163 L14.5370791,21.9627163 L14.5370791,21.9627163 L14.5370791,21.9627163 Z" id="Shape"></path>
            <path d="M12.6453581,47.9802047 C7.25164651,47.565693 5.35397209,42.4690605 5.35397209,41.4075535 L6.76256744,41.4081488 L6.05826977,41.4075535 L6.76256744,41.4075535 C6.76956279,41.8664186 8.20301395,46.2261581 12.7532651,46.5760744 L12.6453581,47.9802047 L12.6453581,47.9802047 L12.6453581,47.9802047 Z" id="Shape"></path>
            <path d="M11.0639628,38.0862512 C11.0696186,37.6422698 11.1602605,37.2122791 11.3748837,36.7837767 C11.3899163,36.754307 11.4073302,36.7260279 11.4234047,36.6973023 C10.0212093,36.6852465 8.40632558,36.5509953 7.0312186,36.0005953 C5.51977674,35.3960186 3.62909767,33.3276279 3.30418605,30.897414 C3.30418605,30.897414 0.457674419,33.0939535 1.29413953,37.7954233 C2.07925581,42.2102326 5.77354419,43.6494884 9.98682791,43.892986 C9.98906047,43.8644093 9.51293023,42.880893 9.66340465,42.2788465 C7.27099535,42.4526884 4.59564651,41.5284093 3.30418605,39.4033116 C2.12182326,37.458307 2.45343256,34.1376 2.93938605,33.6510512 C4.12472558,37.3911814 8.38980465,38.1514419 11.0639628,38.0862512 L11.0639628,38.0862512 L11.0639628,38.0862512 L11.0639628,38.0862512 Z" id="Shape"></path>
            <path d="M11.505414,35.4086698 C10.7472372,37.6336372 9.19858605,39.4342698 9.19858605,39.4342698 C9.19858605,39.4342698 11.328893,39.3373767 11.4464744,38.9603721 C11.5335442,38.682493 13.3700465,34.3833302 14.0749395,29.3471256 C13.4118698,30.4364651 11.570307,35.2181581 11.505414,35.4086698 L11.505414,35.4086698 L11.505414,35.4086698 L11.505414,35.4086698 Z" id="Shape"></path>
            <path d="M32.0459907,9.98950698 C32.9841116,9.21123721 32.2854698,8.48893023 32.3595907,7.60468837 C32.3991814,7.13421395 32.4363907,6.69023256 32.5916279,6.44539535 C33.4550326,5.08219535 35.4914233,4.66857674 35.5124093,4.66426047 L36.4683907,4.47702326 L35.8355349,3.73685581 C35.7535256,3.64100465 33.1551256,1.16182326 29.1335442,2.4599814 C26.3212651,3.36714419 24.2390326,6.44331163 24.1616372,6.5675907 L25.5714233,7.2308093 C25.5885395,7.20461395 27.2348279,4.31315349 29.6479256,3.53503256 C31.5984372,2.9056 33.3962419,3.50437209 34.1658791,3.89685581 C33.3477209,4.22370233 32.276986,4.81890233 31.6320744,5.83709767 C31.3278512,6.3179907 31.2769488,6.92346047 31.2275349,7.50973023 C31.1621953,8.28591628 31.1004279,9.01864186 30.5290419,9.49313488 L32.0459907,9.98950698 L32.0459907,9.98950698 L32.0459907,9.98950698 Z" id="Shape"></path>
            <path d="M34.5510698,21.3506977 C34.5510698,21.3506977 33.3697488,19.8850977 33.0196837,17.0332279 C32.8821581,15.9099535 33.1259535,13.6943628 33.5166512,12.8419721 C33.4456558,14.9374512 33.9787907,17.0332279 33.9787907,17.0332279 C33.9787907,17.0332279 34.3380837,20.9244279 34.5510698,21.3506977 L34.5510698,21.3506977 L34.5510698,21.3506977 L34.5510698,21.3506977 Z" id="Shape"></path>
            <path d="M28.3194047,8.50932093 C28.32,8.50619535 28.6986419,6.85157209 29.7485395,6.01629767 C31.2291721,4.8384 33.0373953,5.46500465 33.054214,5.47051163 L33.317507,4.65949767 C33.229693,4.63106977 31.163386,3.97990698 29.2582698,5.31869767 C27.3422884,6.66507907 27.1129302,7.88554419 27.0923907,8.0203907 L28.3194047,8.50932093 L28.3194047,8.50932093 L28.3194047,8.50932093 Z" id="Shape"></path>
            <path d="M30.8395163,20.2996093 C30.8395163,20.2996093 31.4595721,19.4119442 31.3474977,18.4357209 C31.2925767,17.9536372 31.0691721,17.4587535 30.6702884,17.2831256 C29.9290791,16.9574698 29.6004465,17.7976558 29.6004465,17.7976558 C29.6004465,17.7976558 30.6437953,18.0551442 30.8395163,20.2996093 L30.8395163,20.2996093 L30.8395163,20.2996093 L30.8395163,20.2996093 Z" id="Shape"></path>
            <path d="M24.0314047,21.6525395 C24.005507,21.7009116 23.9921116,21.728 23.9921116,21.728 C23.9921116,21.728 25.925507,23.1794605 27.9075721,21.7065674 C28.9692279,20.9174326 28.8689116,18.9654326 28.5432558,18.1376 C27.6984558,18.3291535 26.9816558,18.6744558 26.3821395,19.0776558 C27.1395721,18.401786 27.802493,17.9042233 27.8001116,17.8927628 L28.6614326,17.6491163 L30.334214,17.0757953 C30.3556465,17.2033488 30.9657302,20.0635535 29.2037953,22.0124279 C28.423293,22.8765767 24.763386,24.8117581 23.0261581,21.5028093 L24.0314047,21.6525395 L24.0314047,21.6525395 L24.0314047,21.6525395 Z" id="Shape"></path>
            <path d="M24.2119442,21.8652279 C23.1230512,23.5225302 20.3764093,22.5754791 20.4238884,20.8233674 C20.4238884,20.8233674 22.2590512,21.8365023 23.8809302,19.9711256 C24.8278326,18.8820837 27.8626233,15.879293 31.9772279,16.8772465 C29.1357767,17.5020651 25.3736186,20.0982326 24.2119442,21.8652279 L24.2119442,21.8652279 L24.2119442,21.8652279 L24.2119442,21.8652279 Z" id="Shape"></path>
            <path d="M32.3618233,26.542586 C32.0997209,26.6939535 31.1754419,27.6506791 31.1754419,29.0816 C31.1748465,29.7991442 31.2464372,33.4038326 31.6020093,35.6060279 C31.0676837,35.9531163 30.6955907,36.0269395 30.1636465,36.3807256 C29.8973767,33.8302512 29.7058233,30.1337302 29.7954233,28.6414884 C29.8970791,26.9404279 30.8075163,25.7988465 31.6520186,25.312 C31.9165023,25.1598884 32.1930419,25.010307 32.4719628,24.8598326 C33.9186605,24.0781395 35.4146233,23.269507 35.4146233,21.8887442 C35.4146233,20.8086326 34.994307,20.4707721 34.5497302,20.1126698 L34.5024,20.0738233 C34.2074047,19.8355349 33.8729674,19.5652465 33.6757581,19.121414 C33.1359256,17.9079442 33.0473674,14.816893 33.6751628,14.0322233 C33.9881674,13.6412279 34.8274605,12.3264 34.5863442,11.4429023 C34.4939163,11.1056372 34.2813767,10.8557395 33.9357767,10.6786233 C33.569786,10.4912372 33.0762419,10.3962791 32.4672,10.3962791 C31.2727814,10.3962791 29.946493,10.7600372 29.2631814,10.9765953 C26.8194233,11.7511442 23.8706605,13.9842977 23.0248186,14.6503442 C23.000707,14.6689488 22.9867163,14.679814 22.9840372,14.6816 L22.4428651,15.0577116 L22.7811721,14.4916837 C22.8026047,14.4564093 24.9445209,10.9337302 28.7749953,9.64212093 C29.5203721,9.39088372 30.9843349,8.96922791 32.423293,8.96922791 C33.28,8.96922791 34.0061767,9.1188093 34.5823256,9.41350698 C35.2839442,9.77235349 35.7587349,10.3449302 35.9563907,11.0687256 C36.4401116,12.843014 34.8645209,14.8185302 34.8107907,14.8816372 C34.6271256,15.2095256 34.5494326,17.5913674 34.9731721,18.5446698 C35.0315163,18.6762419 35.1915163,18.8055814 35.3945302,18.9690047 C35.4579349,19.0203535 35.5283349,19.0736372 35.604093,19.1306419 C36.2028651,19.5825116 37.1076465,20.2652279 37.1076465,21.8388837 C37.1076465,23.9921116 34.9253953,25.1595907 33.1722419,26.098307 C32.8842419,26.2530977 32.6093395,26.3995535 32.3618233,26.542586 L32.3618233,26.542586 L32.3618233,26.542586 L32.3618233,26.542586 Z" id="Shape"></path>
            <path d="M29.7585116,9.73618605 C29.4114233,9.14827907 28.5237581,8.01309767 26.4778419,7.0155907 C24.1946791,5.90273488 21.5522233,5.33789767 18.6226605,5.33655814 L18.6226605,5.33596279 L18.6170047,5.33596279 L18.6113488,5.33596279 L18.6113488,5.33626047 C15.6813395,5.33774884 13.0384372,5.90258605 10.7558698,7.01529302 C8.70995349,8.01294884 7.82258605,9.1479814 7.4752,9.73588837 L7.32621395,9.93309767 L9.07817674,10.3230512 L9.13369302,10.2529488 L9.16301395,10.1886512 C9.19010233,10.0728558 9.42496744,9.44773953 11.378307,8.4951814 C13.466493,7.47668837 15.9020651,6.96037209 18.616707,6.95947907 C21.3316465,6.96037209 23.7661767,7.47668837 25.854214,8.4951814 C27.8077023,9.44773953 28.0433116,10.0728558 28.0701023,10.1886512 L28.0992744,10.2529488 L28.1541953,10.3230512 L29.9067535,9.93309767 L29.7585116,9.73618605 L29.7585116,9.73618605 L29.7585116,9.73618605 Z" id="Shape"></path>
            <path d="M32.0459907,9.98950698 C32.9841116,9.21123721 32.2854698,8.48893023 32.3595907,7.60468837 C32.3991814,7.13421395 32.4363907,6.69023256 32.5916279,6.44539535 C33.4550326,5.08219535 35.4914233,4.66857674 35.5124093,4.66426047 L36.4683907,4.47702326 L35.8355349,3.73685581 C35.7535256,3.64100465 33.1551256,1.16182326 29.1335442,2.4599814 C26.3212651,3.36714419 24.2390326,6.44331163 24.1616372,6.5675907 L25.5714233,7.2308093 C25.5885395,7.20461395 27.2348279,4.31315349 29.6479256,3.53503256 C31.5984372,2.9056 33.3962419,3.50437209 34.1658791,3.89685581 C33.3477209,4.22370233 32.276986,4.81890233 31.6320744,5.83709767 C31.3278512,6.3179907 31.2769488,6.92346047 31.2275349,7.50973023 C31.1621953,8.28591628 31.1004279,9.01864186 30.5290419,9.49313488 L32.0459907,9.98950698 L32.0459907,9.98950698 L32.0459907,9.98950698 Z" id="Shape"></path>
            <path d="M30.2404465,9.54746047 L30.4378047,9.38314419 C30.9632,8.94734884 31.0221395,8.24349767 31.0855442,7.49529302 C31.1364465,6.89324651 31.188986,6.27036279 31.5115163,5.76104186 C32.104186,4.82574884 33.0424558,4.23962791 33.8153674,3.8912 C33.3526326,3.6951814 32.4831256,3.40301395 31.4109023,3.40301395 C30.8186791,3.40301395 30.2407442,3.49261395 29.6909395,3.67002791 C27.4525767,4.39188837 25.8708837,7.00055814 25.6918326,7.30656744 L25.624707,7.41268837 L23.9563907,6.62816744 L24.0412279,6.49272558 C24.0608744,6.46117209 26.1545674,3.27173953 29.0903814,2.32513488 C29.8754977,2.07151628 30.6644837,1.94351628 31.4354605,1.94351628 C34.2608372,1.94351628 35.9293023,3.62790698 35.9435907,3.64487442 L36.7349581,4.57004651 L35.540986,4.80416744 C35.5211907,4.80818605 33.5348093,5.22373953 32.712186,6.52189767 C32.5758512,6.73771163 32.5401302,7.16442791 32.5014326,7.61748837 C32.4789581,7.88688372 32.5355163,8.14943256 32.590586,8.4032 C32.7099535,8.95345116 32.8331907,9.52260465 32.1372279,10.0994977 L32.0768,10.1496558 L30.2404465,9.54746047 L30.2404465,9.54746047 L30.2404465,9.54746047 Z" id="Shape"></path>
            <path d="M28.3194047,8.50932093 C28.32,8.50619535 28.6986419,6.85157209 29.7485395,6.01629767 C31.2291721,4.8384 33.0373953,5.46500465 33.054214,5.47051163 L33.317507,4.65949767 C33.229693,4.63106977 31.163386,3.97990698 29.2582698,5.31869767 C27.3422884,6.66507907 27.1129302,7.88554419 27.0923907,8.0203907 L28.3194047,8.50932093 L28.3194047,8.50932093 L28.3194047,8.50932093 Z" id="Shape"></path>
            <path d="M26.935814,8.11088372 L26.9523349,7.99955349 C26.9731721,7.85875349 27.2130977,6.58277209 29.176707,5.20230698 C29.9845953,4.63464186 30.9526326,4.33428837 31.976186,4.33428837 C32.7525209,4.33428837 33.300986,4.50500465 33.3617116,4.52450233 L33.4965581,4.56811163 L33.1445581,5.6500093 L33.0086698,5.60491163 C32.9579163,5.58779535 32.5012837,5.44089302 31.8868837,5.44089302 C31.0995349,5.44089302 30.4099721,5.67188837 29.8378419,6.12777674 C28.833786,6.92628837 28.4621395,8.52420465 28.4587163,8.5399814 L28.4218047,8.70251163 L26.935814,8.11088372 L26.935814,8.11088372 L26.935814,8.11088372 L26.935814,8.11088372 L26.935814,8.11088372 Z M32.9622326,5.29503256 L33.1371163,4.7563907 C32.9308279,4.704 32.5131907,4.61886512 31.976186,4.61886512 C30.9977302,4.61886512 30.1108093,4.8936186 29.3404279,5.43508837 C27.7288186,6.56788837 27.3436279,7.59144186 27.2562605,7.93257674 L28.2232558,8.3176186 C28.3497674,7.8679814 28.7685953,6.61462326 29.6604279,5.90496744 C30.2758698,5.41588837 31.045507,5.1572093 31.8867349,5.1572093 C32.3704558,5.1572093 32.7601116,5.24070698 32.9622326,5.29503256 L32.9622326,5.29503256 L32.9622326,5.29503256 L32.9622326,5.29503256 L32.9622326,5.29503256 L32.9622326,5.29503256 Z" id="Shape"></path>
            <path d="M22.0639256,43.5436651 C21.332093,42.7612279 20.8991256,41.9192558 20.794493,41.6605767 C20.7346605,41.5132279 20.666493,41.2323721 20.8811163,41.0117953 C21.0484093,40.8409302 21.3383442,40.7532651 21.7437767,40.7532651 L22.3677023,40.7532651 C23.0179721,40.7532651 23.7783814,40.7532651 24.2305488,40.7537116 L24.609786,40.754307 C25.1424744,40.754307 25.4048744,40.9067163 25.5312372,41.0344186 C25.7149023,41.2203163 25.7436279,41.4789953 25.6171163,41.8027163 C25.278214,42.6677581 24.5094698,43.373693 24.2821953,43.569414 C23.9845209,43.8264558 23.5572093,43.9787163 23.1374884,43.9787163 L23.1374884,43.9787163 C22.7072,43.9787163 22.3260279,43.8240744 22.0639256,43.5436651 L22.0639256,43.5436651 L22.0639256,43.5436651 L22.0639256,43.5436651 Z" id="Shape"></path>
            <path d="M22.6973767,21.9627163 L24.2119442,21.8652279 C24.2119442,21.8652279 23.8251163,22.548093 23.5741767,23.431293 C23.2907907,24.4302884 23.8333023,25.8902326 23.8333023,25.8902326 C23.8333023,25.8902326 21.8125395,23.6026047 22.6973767,21.9627163 L22.6973767,21.9627163 L22.6973767,21.9627163 L22.6973767,21.9627163 Z" id="Shape"></path>
            <path d="M21.2765767,16.5419163 C20.3077953,17.128186 19.4426047,17.3313488 18.6173023,17.3493581 C17.7918512,17.3313488 16.9269581,17.128186 15.9580279,16.5419163 C15.9580279,16.5419163 17.3688558,18.2635163 18.6101581,18.2767628 L18.6101581,18.2778047 C18.6123907,18.2778047 18.6146233,18.2772093 18.6171535,18.2772093 C18.619386,18.2772093 18.6216186,18.2778047 18.6241488,18.2778047 L18.6241488,18.2767628 C19.8651535,18.2635163 21.2765767,16.5419163 21.2765767,16.5419163 L21.2765767,16.5419163 L21.2765767,16.5419163 L21.2765767,16.5419163 Z" id="Shape"></path>
            <path d="M24.5889488,47.9802047 L24.480893,46.5759256 C29.0301023,46.2260093 30.4635535,41.8662698 30.4709953,41.4074047 L31.8795907,41.4074047 C31.880186,42.4687628 29.9819163,47.565693 24.5889488,47.9802047 L24.5889488,47.9802047 L24.5889488,47.9802047 L24.5889488,47.9802047 Z" id="Shape"></path>
            <path d="M26.1696,38.0862512 C26.1645395,37.6422698 26.0733023,37.2122791 25.8592744,36.7837767 C25.844093,36.754307 25.8266791,36.7260279 25.8107535,36.6973023 C27.2128,36.6852465 28.8278326,36.5509953 30.2029395,36.0005953 C31.7142326,35.3960186 33.6049116,33.3276279 33.9299721,30.897414 C33.9299721,30.897414 36.7764837,33.0939535 35.9400186,37.7954233 C35.154307,42.2102326 31.4604651,43.6494884 27.2473302,43.892986 C27.2450977,43.8644093 27.7213767,42.880893 27.5707535,42.2788465 C29.9625674,42.4526884 32.6379163,41.5284093 33.9301209,39.4033116 C35.1117395,37.458307 34.7802791,34.1376 34.2943256,33.6510512 C33.1094326,37.3911814 28.843907,38.1514419 26.1696,38.0862512 L26.1696,38.0862512 L26.1696,38.0862512 L26.1696,38.0862512 Z" id="Shape"></path>
            <path d="M27.8709581,39.1936 C27.3675907,38.6494512 26.4421209,38.0008186 24.3082419,38.0008186 C24.3082419,38.0008186 20.2625488,37.9984372 18.6244465,37.9973953 L18.6244465,37.9973953 L18.6174512,37.9973953 L18.6104558,37.9973953 C16.9725023,37.998586 12.9257674,38.0008186 12.9257674,38.0008186 C10.7924837,38.0008186 9.86701395,38.6496 9.36334884,39.1936 C8.62973023,39.9855628 8.51467907,41.0872558 9.02221395,42.4642977 C10.3708279,46.1295628 12.2659721,49.8533209 18.6101581,49.8585302 L18.6101581,49.8591256 C18.6125395,49.8591256 18.6146233,49.8585302 18.6171535,49.8585302 C18.619386,49.8585302 18.6216186,49.8591256 18.6241488,49.8591256 L18.6241488,49.8585302 C24.9677395,49.8530233 26.8628837,46.1295628 28.2119442,42.4642977 C28.7194791,41.0872558 28.6041302,39.9855628 27.8709581,39.1936 L27.8709581,39.1936 L27.8709581,39.1936 L27.8709581,39.1936 L27.8709581,39.1936 L27.8709581,39.1936 Z M26.8832744,42.2072558 C26.2407442,44.0477767 24.5139349,48.5027721 18.6170047,48.5105116 C12.7193302,48.5027721 10.9931163,44.0479256 10.350586,42.2072558 C9.99501395,41.1860837 10.0221023,40.4304372 10.433786,39.9610047 C10.7149395,39.6401116 11.360893,39.2571535 12.8330419,39.2571535 L14.3709767,39.2565581 C15.5055628,39.2555163 16.9300837,39.2543256 18.6171535,39.2537302 C20.3036279,39.2543256 21.728893,39.2555163 22.8631814,39.2565581 L24.4005209,39.2571535 C25.8731163,39.2571535 26.5189209,39.6399628 26.8002233,39.9610047 C27.2114605,40.4308837 27.2388465,41.1860837 26.8832744,42.2072558 L26.8832744,42.2072558 L26.8832744,42.2072558 L26.8832744,42.2072558 L26.8832744,42.2072558 L26.8832744,42.2072558 Z" id="Shape"></path>
            <path d="M25.7284465,35.4086698 C26.4866233,37.6336372 28.0351256,39.4342698 28.0351256,39.4342698 C28.0351256,39.4342698 25.9049674,39.3373767 25.7872372,38.9603721 C25.7007628,38.682493 23.8641116,34.3833302 23.1592186,29.3471256 C23.8218419,30.4364651 25.6634047,35.2181581 25.7284465,35.4086698 L25.7284465,35.4086698 L25.7284465,35.4086698 L25.7284465,35.4086698 Z" id="Shape"></path>
        </g>
    </g>
</svg>