<?xml version="1.0" encoding="UTF-8" standalone="no"?>
<svg width="22px" height="49px" viewBox="0 0 22 49" version="1.1" xmlns="http://www.w3.org/2000/svg" xmlns:xlink="http://www.w3.org/1999/xlink">
    <!-- Generator: Sketch 39.1 (31720) - http://www.bohemiancoding.com/sketch -->
    <title>gulp</title>
    <desc>Created with Sketch.</desc>
    <defs></defs>
    <g id="Page-1" stroke="none" stroke-width="1" fill="none" fill-rule="evenodd">
        <g id="gulp" fill="#BBBDBF">
            <path d="M21.5335106,13.7812776 C21.3336788,15.5370985 21.1440425,17.2381134 20.9482888,18.9370985 C20.7117532,20.9770985 20.4364747,23.0130388 20.2488774,25.0591284 C20.1775089,25.8223522 19.9103868,26.3805612 19.284383,26.8149493 C18.8215073,27.1356657 18.4034917,27.5172776 17.8733256,27.7811582 C18.2587156,27.2757254 18.6726529,26.7885612 19.0254173,26.2628299 C19.386338,25.7208597 19.7839626,25.1362627 19.2415619,24.4887403 C18.8337419,24.003606 18.0915094,24.0462328 17.3105339,24.5516657 C17.1576014,24.6490985 17.0087471,24.7546507 16.8598928,24.8541134 C16.2298108,24.1578746 15.866851,24.2390687 15.4855392,25.1484418 C14.9410994,26.4475463 14.2906264,27.1478448 12.9917196,27.7446209 C13.0753227,27.4076657 13.1059092,27.1458149 13.2017469,26.9103522 C13.8766891,25.2479045 14.5638659,23.5895164 15.2469645,21.9290985 C15.3162939,21.7606209 15.4590309,21.5880836 15.4447572,21.4277254 C15.4182489,21.1049791 15.3081375,20.7903522 15.2326908,20.4736955 C14.9145911,20.6259343 14.4313244,20.6969791 14.3089783,20.9446209 C13.8379462,21.8986507 13.4811036,22.9074866 13.0855182,23.8980537 C12.7001282,24.8642627 12.3575594,25.8487403 11.9252701,26.7926209 C11.7295165,27.2229493 11.3665567,27.5761433 11.0790435,27.9638448 C10.9750494,27.9171582 10.8710553,27.8704716 10.7650221,27.8237851 C10.824156,27.4949493 10.8404688,27.1498746 10.9485411,26.8393075 C11.1422556,26.275009 11.4644335,25.7452179 11.5908577,25.1707701 C11.6540698,24.8764418 11.4093778,24.5171582 11.3033445,24.1862925 C11.0341833,24.3750687 10.6671453,24.507009 10.5121736,24.7648 C10.1145491,25.430591 9.86577885,26.1877254 9.4477633,26.8372776 C9.19491486,27.2330985 8.7361173,27.499009 8.37111835,27.8217552 C8.28751524,27.7628896 8.20391213,27.701994 8.11826992,27.6431284 C8.21410763,27.2818149 8.27120244,26.9042627 8.40986126,26.5612179 C8.61581038,26.0578149 8.92575363,25.5909493 9.09703805,25.077397 C9.17452386,24.8439642 9.10723355,24.3852179 8.95430103,24.2979343 C8.7565083,24.1883224 8.20595123,24.2695164 8.15089552,24.4075463 C7.63704225,25.6701134 7.10279798,26.9408 6.77654194,28.2581731 C6.62972672,28.8549493 7.2638869,29.2568597 7.88377339,29.1370985 C8.47511247,29.021397 9.02974774,28.7169194 9.61700862,28.491606 C10.0900799,29.3299343 10.3001072,29.3644418 11.6499916,28.7027104 C12.3963023,29.5308896 13.1691213,29.0904119 14.1356548,28.5220537 C13.793086,29.2812179 13.5320811,29.8455164 13.2873891,30.4159045 C13.163004,30.7021134 12.9978369,30.9964418 12.9835632,31.2928 C12.9713286,31.5627701 13.1364957,31.8408597 13.224177,32.1169194 C13.5402375,32.0012179 13.9378621,31.9667104 14.1499285,31.7515463 C14.3885033,31.509994 14.4537545,31.101994 14.6005697,30.7711284 C15.1613223,29.5126209 15.6772146,28.2338149 16.3032184,27.0098149 C16.6498655,26.3298149 17.1616796,25.7208597 18.2118163,25.4224716 C17.8957557,25.8730985 17.7081585,26.1613373 17.5001703,26.4333373 C17.2330481,26.7865313 16.9353395,27.117397 16.6784129,27.4766806 C16.3868215,27.8887403 16.0483309,28.4205612 16.5091675,28.8001433 C16.8252281,29.0599642 17.4655056,29.1756657 17.8549737,29.0457552 C18.5482678,28.8123224 19.162037,28.3434269 19.8757221,27.933397 C19.7594934,29.0904119 19.6575384,30.2372776 19.5270359,31.3800836 C19.3598297,32.8253373 19.1232941,34.2645015 19.0070654,35.7138149 C18.9356969,36.6028896 18.4972903,37.1387701 17.7040803,37.3600239 C16.6274354,37.6604418 15.5365167,37.9588299 14.4313244,38.1029493 C10.9322283,38.555606 7.44128863,38.4926806 4.01356107,37.5812776 C2.28236494,37.1205015 2.21303553,36.9540537 2.0458293,35.1738746 C1.87250578,33.3368597 1.67267395,31.5018746 1.48711583,29.6648597 C1.47488123,29.5430687 1.48507673,29.4172179 1.48507673,29.5085612 C2.51074417,29.0701134 3.41406559,28.6824119 4.2827223,28.3109493 C4.18076729,28.694591 3.98093546,29.2061134 3.93607526,29.7318448 C3.91364515,29.9997851 4.16853269,30.2900537 4.29903511,30.5701731 C4.53557074,30.3996657 4.86386588,30.2778746 4.988251,30.0464716 C5.20439563,29.6384716 5.29615514,29.1655164 5.43889216,28.7209791 C5.781461,27.6573373 6.12402985,26.5936955 6.4665987,25.5320836 C6.55428001,25.2600836 6.68478243,24.9921433 6.71740803,24.7140537 C6.77450284,24.2512478 7.03346857,23.6301134 6.33609628,23.4717851 C5.7223271,23.3337552 5.57143368,23.9000836 5.45316586,24.3547701 C5.10651881,25.7086806 4.2806832,26.7175164 3.16733445,27.5091582 C2.95730713,27.6573373 2.58415178,27.7913075 2.40063275,27.701994 C2.21711373,27.6126806 2.07437671,27.2229493 2.09476771,26.9793672 C2.28848224,24.6815761 3.23258566,22.7288597 4.9902901,21.214591 C5.58570738,20.7010388 5.94662813,20.8228299 6.40542569,21.486591 C6.64603952,21.8357254 6.81120664,22.3594269 7.40458482,22.085397 C7.81036578,21.8966209 7.83075678,21.2125612 7.48003153,20.6929194 C6.79489384,19.6800239 5.7100925,19.3755463 4.60286105,19.9317254 C3.07149674,20.7010388 2.23546563,22.0813373 1.49527223,23.5347104 C1.36884801,23.7864119 1.2566975,24.044203 1.00180996,24.2918448 C0.66943662,20.8553075 0.337063275,17.4187701 0.000611730082,13.9193075 C7.225144,15.667009 14.3334476,15.7806806 21.5335106,13.7812776" id="Fill-7"></path>
            <g id="Group-11" transform="translate(2.785369, 37.552549)">
                <path d="M0.225158713,0.252214925 C5.29232289,1.52290149 10.255493,1.58785672 15.2166239,0.244095522 C15.2227412,0.26439403 15.2635232,0.327319403 15.2472104,0.34761791 C14.2378558,1.5432 14.1583309,2.98236418 14.1093925,4.44994627 C14.0563759,5.98045373 13.9625773,7.51096119 13.8259575,9.0353791 C13.7994492,9.33985672 13.5731091,9.72552836 13.3202607,9.89197612 C9.88641581,12.1349612 5.65528274,11.7797373 2.27445449,9.79048358 C2.04607526,9.65651343 1.88498634,9.25257313 1.85847803,8.96027463 C1.69535001,7.14964776 1.55873029,5.33496119 1.45881438,3.52230448 C1.40783687,2.59466269 1.26509985,1.72385672 0.653369771,0.980931343 C0.49431995,0.788095522 0.396443136,0.548573134 0.225158713,0.252214925" id="Fill-9"></path>
            </g>
            <path d="M11.5080702,12.8400358 C12.1524259,13.4753791 13.516584,13.4591403 14.0283982,12.8400358 L11.5080702,12.8400358 Z M0.0442484759,12.5883343 C0.59888375,12.4097075 1.14128442,12.1701851 1.7101934,12.0605731 C4.80146941,11.4658269 7.92944923,11.342006 11.0655855,11.408991 C11.8098571,11.4252299 12.2319508,11.2587821 12.3481795,10.4630806 C12.439939,9.82367761 12.7274522,9.21269254 12.8151335,8.57328955 C13.0414736,6.9230209 13.8713874,5.66045373 15.0663002,4.52576716 C16.4957095,3.16576716 17.8170465,1.69209552 19.2260647,0.226543284 C19.6889405,0.563498507 20.1008388,0.863916418 20.5779882,1.2110209 C20.268045,1.57233433 20.0090793,1.88696119 19.7358398,2.19143881 C19.0038028,3.0033791 18.3410952,3.90057313 17.5111814,4.59884179 C15.5312151,6.26534925 14.8093736,8.52863284 14.2628947,10.9015284 C14.2343473,11.0253493 14.2363864,11.1552597 14.2200736,11.3460657 C16.7036977,11.7621851 19.3035506,11.5328119 21.6383204,12.606603 C21.6525941,12.7060657 21.6689069,12.8075582 21.6852197,12.9070209 C21.2916733,13.1120358 20.9205571,13.4185433 20.5025415,13.503797 C18.5368489,13.9016478 16.5731953,14.3766328 14.5850725,14.5674388 C10.486481,14.9612299 6.39604583,14.7765134 2.36678369,13.8448119 C1.56133908,13.6580657 0.792598276,13.3028418 0.00754467101,13.0247522 C0.0197792727,12.878603 0.0320138743,12.7344836 0.0442484759,12.5883343 L0.0442484759,12.5883343 Z" id="Fill-12"></path>
        </g>
    </g>
</svg>