<?xml version="1.0" encoding="UTF-8" standalone="no"?>
<svg width="36px" height="50px" viewBox="0 0 36 50" version="1.1" xmlns="http://www.w3.org/2000/svg" xmlns:xlink="http://www.w3.org/1999/xlink">
    <!-- Generator: Sketch 39.1 (31720) - http://www.bohemiancoding.com/sketch -->
    <title>html5</title>
    <desc>Created with Sketch.</desc>
    <defs></defs>
    <g id="Page-1" stroke="none" stroke-width="1" fill="none" fill-rule="evenodd">
        <g id="html5" transform="translate(0.113787, 0.000000)">
            <polygon id="Shape" fill="#BBBDBF" points="3.22261905 45.9071429 0 9.76190476 35.4107143 9.76190476 32.1847619 45.9013095 17.6836905 49.9214286"></polygon>
            <path d="M17.6560119,21.5760714 L11.392381,21.5760714 L11.797619,26.1155952 L17.6560119,26.1155952 L26.7583333,26.1155952 L27.9528571,26.1155952 L27.8447619,27.3059524 L26.8029762,38.9767857 L26.7364286,39.7255952 L17.6636905,42.2401485 L17.6636905,42.2408333 L17.6432143,42.2465476 L8.5625,39.7255952 L7.94142857,32.7652381 L9.9925,32.7652381 L12.3914286,32.7652381 L12.7071429,36.3007143 L17.6442857,37.6339286 L17.6483333,37.6327863 L17.6483333,37.6322619 L22.592619,36.2977381 L23.1071429,30.5484524 L17.6560119,30.5484524 L7.74333333,30.5484524 L6.65380952,18.3322619 L6.54761905,17.1428571 L17.6483333,17.1428571 L17.6560119,17.1428571 L28.7532143,17.1428571 L28.6471429,18.3322619 L28.4452381,20.5796429 L28.3563095,21.5760714 L28.3420238,21.5760714 L17.6560119,21.5760714 Z" id="Combined-Shape" fill="#FFFFFF"></path>
            <polygon id="Shape" fill="#BBBDBF" points="3.21428571 0 5.46714286 0 5.46714286 2.22571429 7.52797619 2.22571429 7.52797619 0 9.78095238 0 9.78095238 6.7402381 7.52809524 6.7402381 7.52809524 4.48333333 5.46738095 4.48333333 5.46738095 6.7402381 3.21428571 6.7402381 3.21428571 0"></polygon>
            <polygon id="Shape" fill="#BBBDBF" points="12.8166667 2.23511905 10.8333333 2.23511905 10.8333333 0 17.0538095 0 17.0538095 2.23511905 15.0696429 2.23511905 15.0696429 6.7402381 12.8167857 6.7402381 12.8167857 2.23511905 12.8166667 2.23511905"></polygon>
            <polygon id="Shape" fill="#BBBDBF" points="17.9763095 0 20.3254762 0 21.7703571 2.36833333 23.2140476 0 25.5639286 0 25.5639286 6.7402381 23.3203571 6.7402381 23.3203571 3.39940476 21.7702381 5.79583333 21.7315476 5.79583333 20.1805952 3.39940476 20.1805952 6.7402381 17.9761905 6.7402381 17.9761905 0"></polygon>
            <polygon id="Shape" fill="#BBBDBF" points="26.6667857 0 28.9202381 0 28.9202381 4.5122619 32.0883333 4.5122619 32.0883333 6.74011905 26.6666667 6.74011905 26.6666667 0"></polygon>
        </g>
    </g>
</svg>