<?xml version="1.0" encoding="UTF-8" standalone="no"?>
<svg width="137px" height="193px" viewBox="0 0 137 193" version="1.1" xmlns="http://www.w3.org/2000/svg" xmlns:xlink="http://www.w3.org/1999/xlink">
    <!-- Generator: Sketch 3.8.2 (29753) - http://www.bohemiancoding.com/sketch -->
    <title>iphone</title>
    <desc>Created with Sketch.</desc>
    <defs></defs>
    <g id="Page-1" stroke="none" stroke-width="1" fill="none" fill-rule="evenodd" stroke-linecap="round" stroke-linejoin="round">
        <g id="iphone" transform="translate(1.000000, 1.000000)" stroke="#898884" stroke-width="2">
            <path d="M7.73,21.6226 C1.676,23.7916 -1.485,30.4816 0.684,36.5356 L53.081,182.7926 C55.25,188.8466 61.94,192.0076 67.994,189.8386 L126.44,168.9006 C132.494,166.7316 135.655,160.0416 133.486,153.9876 L81.089,7.7296 C78.921,1.6756 72.231,-1.4844 66.177,0.6836 L7.73,21.6226 L7.73,21.6226 Z" id="Stroke-1"></path>
            <path d="M29.168,25.6008 C29.437,26.3518 29.046,27.1788 28.295,27.4478 C27.544,27.7168 26.717,27.3268 26.448,26.5748 C26.179,25.8238 26.57,24.9968 27.321,24.7278 C28.072,24.4588 28.899,24.8498 29.168,25.6008 L29.168,25.6008 Z" id="Stroke-3"></path>
            <path d="M39.5949,15.6852 C39.7739,16.1832 39.5139,16.7322 39.0159,16.9102 C38.5179,17.0892 37.9689,16.8302 37.7909,16.3312 C37.6119,15.8332 37.8709,15.2852 38.3699,15.1062 C38.8679,14.9272 39.4159,15.1872 39.5949,15.6852 L39.5949,15.6852 Z" id="Stroke-5"></path>
            <path d="M47.0327,19.909 L34.7267,24.318 C34.4667,24.411 34.1777,24.274 34.0847,24.014 L33.9737,23.704 C33.8807,23.444 34.0167,23.155 34.2767,23.062 L46.5827,18.654 C46.8427,18.56 47.1317,18.697 47.2247,18.957 L47.3357,19.267 C47.4297,19.527 47.2927,19.816 47.0327,19.909 L47.0327,19.909 Z" id="Stroke-7"></path>
            <polygon id="Stroke-9" points="126.993 147.1294 53.742 173.3714 7.297 43.7274 80.548 17.4844"></polygon>
            <path d="M99.7256,166.9925 C100.9426,170.3905 99.1756,174.1325 95.7766,175.3495 C92.3786,176.5675 88.6366,174.7995 87.4196,171.4015 C86.2016,168.0025 87.9696,164.2615 91.3686,163.0435 C94.7666,161.8265 98.5086,163.5945 99.7256,166.9925 L99.7256,166.9925 Z" id="Stroke-11"></path>
            <polygon id="Stroke-13" points="95.7269 44.1587 94.5719 44.5727 90.2739 32.5737 91.4279 32.1597"></polygon>
            <polygon id="Stroke-15" points="6.2614 52.9086 5.1064 53.3226 2.7934 46.8666 3.9484 46.4526"></polygon>
            <polygon id="Stroke-17" points="13.6904 73.6456 12.5354 74.0596 8.0614 61.5706 9.2164 61.1566"></polygon>
            <polygon id="Stroke-19" points="19.1816 88.9734 18.0266 89.3874 13.5526 76.8984 14.7076 76.4844"></polygon>
        </g>
    </g>
</svg>