<?xml version="1.0" encoding="UTF-8" standalone="no"?>
<svg width="159px" height="192px" viewBox="0 0 159 192" version="1.1" xmlns="http://www.w3.org/2000/svg" xmlns:xlink="http://www.w3.org/1999/xlink">
    <!-- Generator: Sketch 39.1 (31720) - http://www.bohemiancoding.com/sketch -->
    <title>iphone</title>
    <desc>Created with Sketch.</desc>
    <defs></defs>
    <g id="Page-1" stroke="none" stroke-width="1" fill="none" fill-rule="evenodd" stroke-linecap="round" stroke-linejoin="round">
        <g id="Home" transform="translate(-84.000000, -1077.000000)" stroke="#37342D" stroke-width="2">
            <g id="iphone" transform="translate(162.971143, 1173.442286) rotate(-30.000000) translate(-162.971143, -1173.442286) translate(117.971143, 1083.442286)">
                <path d="M13.5217802,0.844528509 C7.09694635,0.932005644 1.9284475,6.24555261 2.00074942,12.6893205 L3.74435363,168.361547 C3.81665554,174.805315 9.10245182,179.976873 15.5272856,179.889396 L77.5527793,179.046561 C83.9776131,178.959083 89.1461119,173.645536 89.07381,167.201769 L87.3305322,11.5285939 C87.2591746,5.08515118 81.9730519,-0.085458854 75.5485445,0.0010703945 L13.5217802,0.844528509 L13.5217802,0.844528509 L13.5217802,0.844528509 Z" id="Stroke-1"></path>
                <path d="M32.3184318,11.4010432 C32.5976779,12.1806193 32.1917849,13.0390871 31.4121797,13.3183227 C30.6325745,13.5975583 29.7740744,13.1927186 29.4948284,12.4121045 C29.2155823,11.6325285 29.6214753,10.7740607 30.4010805,10.4948251 C31.1806857,10.2155894 32.0391857,10.6214672 32.3184318,11.4010432 L32.3184318,11.4010432 Z" id="Stroke-3" transform="translate(30.906630, 11.906630) rotate(19.000000) translate(-30.906630, -11.906630) "></path>
                <path d="M45.2120704,5.93409061 C45.3987954,6.45358252 45.1275748,7.02627542 44.6080829,7.21195727 C44.0885909,7.39868227 43.515898,7.12850475 43.3302162,6.60796968 C43.1434912,6.08847776 43.4136687,5.51682802 43.9342038,5.33010302 C44.4536957,5.14337801 45.0253454,5.41459869 45.2120704,5.93409061 L45.2120704,5.93409061 Z" id="Stroke-5" transform="translate(44.271087, 6.271087) rotate(19.000000) translate(-44.271087, -6.271087) "></path>
                <path d="M50.2598197,12.386405 L37.4842609,12.8763224 C37.2143923,12.8865218 36.9964711,12.6595738 37.0000433,12.3725042 L37.0041968,12.0301926 C37.0077691,11.7431231 37.2309726,11.4995222 37.5008412,11.4893229 L50.2760587,11.0003967 C50.5462686,10.9892061 50.7641898,11.2161541 50.7606176,11.5032236 L50.7564641,11.8455352 C50.7538077,12.1329201 50.5296883,12.3762057 50.2598197,12.386405 L50.2598197,12.386405 L50.2598197,12.386405 Z" id="Stroke-7"></path>
                <polygon id="Stroke-9" points="85.773428 158.83003 7.78758945 159.751553 6 21.922469 83.9861643 21 85.773428 158.83003"></polygon>
                <polygon id="Stroke-13" points="89.1316522 50.2511485 88 50.2847763 88.0502758 38.0339263 89.181061 38 89.1316522 50.2511485"></polygon>
                <polygon id="Stroke-15" points="1.08203639 29.871196 0 29.9447615 0.249786271 23.0735654 1.33182266 23 1.08203639 29.871196"></polygon>
                <polygon id="Stroke-17" points="2.71232241 51.4563756 1.41247281 51.449948 1 38 2.2998496 38.0064275 2.71232241 51.4563756"></polygon>
                <polygon id="Stroke-19" points="2.71232241 68.4563756 1.41247281 68.449948 1 55 2.2998496 55.0064275 2.71232241 68.4563756"></polygon>
            </g>
        </g>
    </g>
</svg>