<?xml version="1.0" encoding="UTF-8" standalone="no"?>
<svg width="451px" height="449px" viewBox="0 0 451 449" version="1.1" xmlns="http://www.w3.org/2000/svg" xmlns:xlink="http://www.w3.org/1999/xlink">
    <!-- Generator: Sketch 3.8.2 (29753) - http://www.bohemiancoding.com/sketch -->
    <title>laptop</title>
    <desc>Created with Sketch.</desc>
    <defs></defs>
    <g id="Page-1" stroke="none" stroke-width="1" fill="none" fill-rule="evenodd">
        <g id="laptop" transform="translate(1.000000, 1.000000)" stroke="#898884" stroke-width="2">
            <path d="M323.9488,108.5302 L86.4958,263.7852 C79.3848,268.4342 77.3898,277.9682 82.0388,285.0782 L183.0238,439.5282 C187.6738,446.6392 197.2068,448.6342 204.3168,443.9852 L301.4228,380.4942 C301.0748,378.2842 302.0068,375.9642 303.9928,374.6662 L338.2948,352.2382 C340.2808,350.9402 342.7798,351.0162 344.6638,352.2212 L441.7698,288.7302 C448.8808,284.0812 450.8758,274.5482 446.2268,267.4372 L345.2418,112.9872 C340.5928,105.8762 331.0598,103.8812 323.9488,108.5302 L323.9488,108.5302 Z" id="Stroke-3"></path>
            <path d="M139.5727,261.408 C140.1747,262.329 139.9137,263.574 138.9937,264.176 L129.9797,270.07 C129.0597,270.672 127.8137,270.411 127.2117,269.49 L125.5087,266.885 C124.9067,265.965 125.1677,264.719 126.0877,264.117 L135.1017,258.224 C136.0217,257.622 137.2677,257.883 137.8697,258.803 L139.5727,261.408 L139.5727,261.408 Z" id="Stroke-5"></path>
            <path d="M123.2934,272.052 C123.8954,272.973 123.6344,274.218 122.7144,274.82 L113.7004,280.714 C112.7804,281.316 111.5344,281.055 110.9324,280.134 L109.2294,277.529 C108.6274,276.609 108.8884,275.363 109.8084,274.761 L118.8224,268.868 C119.7424,268.266 120.9884,268.527 121.5904,269.447 L123.2934,272.052 L123.2934,272.052 Z" id="Stroke-7"></path>
            <path d="M155.3395,251.0991 C155.9415,252.0201 155.6805,253.2651 154.7605,253.8671 L145.7465,259.7611 C144.8265,260.3631 143.5805,260.1021 142.9785,259.1811 L141.2755,256.5761 C140.6735,255.6561 140.9345,254.4101 141.8545,253.8081 L150.8685,247.9151 C151.7885,247.3131 153.0345,247.5741 153.6365,248.4941 L155.3395,251.0991 L155.3395,251.0991 Z" id="Stroke-9"></path>
            <path d="M171.1062,240.7903 C171.7082,241.7113 171.4472,242.9563 170.5272,243.5583 L161.5132,249.4523 C160.5932,250.0543 159.3472,249.7933 158.7452,248.8723 L157.0422,246.2673 C156.4402,245.3473 156.7012,244.1013 157.6212,243.4993 L166.6352,237.6063 C167.5552,237.0043 168.8012,237.2653 169.4032,238.1853 L171.1062,240.7903 L171.1062,240.7903 Z" id="Stroke-11"></path>
            <path d="M186.8729,230.4814 C187.4749,231.4024 187.2139,232.6474 186.2939,233.2494 L177.2799,239.1434 C176.3599,239.7454 175.1139,239.4844 174.5119,238.5634 L172.8089,235.9584 C172.2069,235.0384 172.4679,233.7924 173.3879,233.1904 L182.4019,227.2974 C183.3219,226.6954 184.5679,226.9564 185.1699,227.8764 L186.8729,230.4814 L186.8729,230.4814 Z" id="Stroke-13"></path>
            <path d="M202.6397,220.1726 C203.2417,221.0936 202.9807,222.3386 202.0607,222.9406 L193.0467,228.8346 C192.1267,229.4366 190.8807,229.1756 190.2787,228.2546 L188.5757,225.6496 C187.9737,224.7296 188.2347,223.4836 189.1547,222.8816 L198.1687,216.9886 C199.0887,216.3866 200.3347,216.6476 200.9367,217.5676 L202.6397,220.1726 L202.6397,220.1726 Z" id="Stroke-15"></path>
            <path d="M218.4064,209.8637 C219.0084,210.7847 218.7474,212.0297 217.8274,212.6317 L208.8134,218.5257 C207.8934,219.1277 206.6474,218.8667 206.0454,217.9457 L204.3424,215.3407 C203.7404,214.4207 204.0014,213.1747 204.9214,212.5727 L213.9354,206.6797 C214.8554,206.0777 216.1014,206.3387 216.7034,207.2587 L218.4064,209.8637 L218.4064,209.8637 Z" id="Stroke-17"></path>
            <path d="M234.1731,199.5549 C234.7751,200.4759 234.5141,201.7209 233.5941,202.3229 L224.5801,208.2169 C223.6601,208.8189 222.4141,208.5579 221.8121,207.6369 L220.1091,205.0319 C219.5071,204.1119 219.7681,202.8659 220.6881,202.2639 L229.7021,196.3709 C230.6221,195.7689 231.8681,196.0299 232.4701,196.9499 L234.1731,199.5549 L234.1731,199.5549 Z" id="Stroke-19"></path>
            <path d="M249.9398,189.246 C250.5418,190.167 250.2808,191.412 249.3608,192.014 L240.3468,197.908 C239.4268,198.51 238.1808,198.249 237.5788,197.328 L235.8758,194.723 C235.2738,193.803 235.5348,192.557 236.4548,191.955 L245.4688,186.062 C246.3888,185.46 247.6348,185.721 248.2368,186.641 L249.9398,189.246 L249.9398,189.246 Z" id="Stroke-21"></path>
            <path d="M265.7066,178.9372 C266.3086,179.8582 266.0476,181.1032 265.1276,181.7052 L256.1136,187.5992 C255.1936,188.2012 253.9476,187.9402 253.3456,187.0192 L251.6426,184.4142 C251.0406,183.4942 251.3016,182.2482 252.2216,181.6462 L261.2356,175.7532 C262.1556,175.1512 263.4016,175.4122 264.0036,176.3322 L265.7066,178.9372 L265.7066,178.9372 Z" id="Stroke-23"></path>
            <path d="M281.4733,168.6283 C282.0753,169.5493 281.8143,170.7943 280.8943,171.3963 L271.8803,177.2903 C270.9603,177.8923 269.7143,177.6313 269.1123,176.7103 L267.4093,174.1053 C266.8073,173.1853 267.0683,171.9393 267.9883,171.3373 L277.0023,165.4443 C277.9223,164.8423 279.1683,165.1033 279.7703,166.0233 L281.4733,168.6283 L281.4733,168.6283 Z" id="Stroke-25"></path>
            <path d="M297.24,158.3195 C297.842,159.2405 297.581,160.4855 296.661,161.0875 L287.647,166.9815 C286.727,167.5835 285.481,167.3225 284.879,166.4015 L283.176,163.7965 C282.574,162.8765 282.835,161.6305 283.755,161.0285 L292.769,155.1355 C293.689,154.5335 294.935,154.7945 295.537,155.7145 L297.24,158.3195 L297.24,158.3195 Z" id="Stroke-27"></path>
            <path d="M313.0068,148.0106 C313.6088,148.9316 313.3478,150.1766 312.4278,150.7786 L303.4138,156.6726 C302.4938,157.2746 301.2478,157.0136 300.6458,156.0926 L298.9428,153.4876 C298.3408,152.5676 298.6018,151.3216 299.5218,150.7196 L308.5358,144.8266 C309.4558,144.2246 310.7018,144.4856 311.3038,145.4056 L313.0068,148.0106 L313.0068,148.0106 Z" id="Stroke-29"></path>
            <path d="M328.7735,137.7018 C329.3755,138.6228 329.1145,139.8678 328.1945,140.4698 L319.1805,146.3638 C318.2605,146.9658 317.0145,146.7048 316.4125,145.7838 L314.7095,143.1788 C314.1075,142.2588 314.3685,141.0128 315.2885,140.4108 L324.3025,134.5178 C325.2225,133.9158 326.4685,134.1768 327.0705,135.0968 L328.7735,137.7018 L328.7735,137.7018 Z" id="Stroke-31"></path>
            <path d="M148.4663,276.1056 C149.0683,277.0266 148.8073,278.2716 147.8873,278.8736 L139.3293,284.4696 C138.4093,285.0706 137.1633,284.8106 136.5613,283.8896 L130.9663,275.3326 C130.3643,274.4116 130.6253,273.1656 131.5453,272.5636 L140.1023,266.9686 C141.0233,266.3666 142.2693,266.6276 142.8713,267.5486 L148.4663,276.1056 L148.4663,276.1056 Z" id="Stroke-33"></path>
            <path d="M132.2328,286.7196 C132.8348,287.6406 132.5738,288.8856 131.6538,289.4876 L123.0958,295.0836 C122.1758,295.6846 120.9298,295.4246 120.3278,294.5036 L114.7328,285.9466 C114.1308,285.0256 114.3918,283.7796 115.3118,283.1776 L123.8688,277.5826 C124.7898,276.9806 126.0358,277.2416 126.6378,278.1626 L132.2328,286.7196 L132.2328,286.7196 Z" id="Stroke-35"></path>
            <path d="M163.6515,266.1769 C164.2535,267.0979 163.9925,268.3429 163.0725,268.9449 L154.5145,274.5409 C153.5945,275.1419 152.3485,274.8819 151.7465,273.9609 L146.1515,265.4039 C145.5495,264.4829 145.8105,263.2369 146.7305,262.6349 L155.2875,257.0399 C156.2085,256.4379 157.4545,256.6989 158.0565,257.6199 L163.6515,266.1769 L163.6515,266.1769 Z" id="Stroke-37"></path>
            <path d="M178.8367,256.2483 C179.4387,257.1693 179.1777,258.4143 178.2577,259.0163 L169.6997,264.6123 C168.7797,265.2133 167.5337,264.9533 166.9317,264.0323 L161.3367,255.4753 C160.7347,254.5543 160.9957,253.3083 161.9157,252.7063 L170.4727,247.1113 C171.3937,246.5093 172.6397,246.7703 173.2417,247.6913 L178.8367,256.2483 L178.8367,256.2483 Z" id="Stroke-39"></path>
            <path d="M194.0219,246.3197 C194.6239,247.2407 194.3629,248.4857 193.4429,249.0877 L184.8849,254.6827 C183.9649,255.2847 182.7189,255.0247 182.1169,254.1037 L176.5219,245.5467 C175.9199,244.6257 176.1809,243.3797 177.1009,242.7777 L185.6579,237.1827 C186.5789,236.5807 187.8249,236.8417 188.4269,237.7627 L194.0219,246.3197 L194.0219,246.3197 Z" id="Stroke-41"></path>
            <path d="M209.2071,236.3911 C209.8091,237.3121 209.5481,238.5571 208.6281,239.1591 L200.0701,244.7551 C199.1501,245.3561 197.9041,245.0961 197.3021,244.1751 L191.7071,235.6181 C191.1051,234.6971 191.3661,233.4511 192.2861,232.8491 L200.8441,227.2541 C201.7641,226.6521 203.0101,226.9131 203.6121,227.8341 L209.2071,236.3911 L209.2071,236.3911 Z" id="Stroke-43"></path>
            <path d="M224.3923,226.4624 C224.9943,227.3834 224.7333,228.6284 223.8133,229.2304 L215.2553,234.8264 C214.3353,235.4274 213.0893,235.1674 212.4873,234.2464 L206.8923,225.6894 C206.2903,224.7684 206.5513,223.5224 207.4713,222.9204 L216.0283,217.3254 C216.9493,216.7234 218.1953,216.9844 218.7973,217.9054 L224.3923,226.4624 L224.3923,226.4624 Z" id="Stroke-45"></path>
            <path d="M239.5775,216.5338 C240.1795,217.4548 239.9185,218.6998 238.9985,219.3018 L230.4405,224.8978 C229.5205,225.4988 228.2745,225.2388 227.6725,224.3178 L222.0775,215.7608 C221.4755,214.8398 221.7365,213.5938 222.6565,212.9918 L231.2135,207.3968 C232.1345,206.7948 233.3805,207.0558 233.9825,207.9768 L239.5775,216.5338 L239.5775,216.5338 Z" id="Stroke-47"></path>
            <path d="M254.7628,206.6052 C255.3648,207.5262 255.1038,208.7712 254.1838,209.3732 L245.6258,214.9692 C244.7058,215.5702 243.4598,215.3102 242.8578,214.3892 L237.2628,205.8322 C236.6608,204.9112 236.9218,203.6652 237.8418,203.0632 L246.3988,197.4682 C247.3198,196.8662 248.5658,197.1272 249.1678,198.0482 L254.7628,206.6052 L254.7628,206.6052 Z" id="Stroke-49"></path>
            <path d="M269.948,196.6765 C270.55,197.5975 270.289,198.8425 269.369,199.4445 L260.811,205.0405 C259.891,205.6415 258.645,205.3815 258.043,204.4605 L252.448,195.9035 C251.846,194.9825 252.107,193.7365 253.027,193.1345 L261.584,187.5395 C262.505,186.9375 263.751,187.1985 264.353,188.1195 L269.948,196.6765 L269.948,196.6765 Z" id="Stroke-51"></path>
            <path d="M285.1332,186.7479 C285.7352,187.6689 285.4742,188.9139 284.5542,189.5159 L275.9962,195.1109 C275.0762,195.7129 273.8302,195.4529 273.2282,194.5319 L267.6332,185.9749 C267.0312,185.0539 267.2922,183.8079 268.2122,183.2059 L276.7692,177.6109 C277.6902,177.0089 278.9362,177.2699 279.5382,178.1909 L285.1332,186.7479 L285.1332,186.7479 Z" id="Stroke-53"></path>
            <path d="M300.3184,176.8192 C300.9204,177.7402 300.6594,178.9852 299.7394,179.5872 L291.1814,185.1832 C290.2614,185.7842 289.0154,185.5242 288.4134,184.6032 L282.8184,176.0462 C282.2164,175.1252 282.4774,173.8792 283.3974,173.2772 L291.9544,167.6822 C292.8754,167.0802 294.1214,167.3412 294.7234,168.2622 L300.3184,176.8192 L300.3184,176.8192 Z" id="Stroke-55"></path>
            <path d="M315.5036,166.8906 C316.1056,167.8116 315.8446,169.0566 314.9246,169.6586 L306.3666,175.2536 C305.4466,175.8556 304.2006,175.5956 303.5986,174.6746 L298.0036,166.1176 C297.4016,165.1966 297.6626,163.9506 298.5826,163.3486 L307.1396,157.7536 C308.0606,157.1516 309.3066,157.4126 309.9086,158.3336 L315.5036,166.8906 L315.5036,166.8906 Z" id="Stroke-57"></path>
            <path d="M338.1688,152.0713 C338.7708,152.9923 338.5098,154.2373 337.5898,154.8393 L321.5518,165.3253 C320.6318,165.9273 319.3858,165.6663 318.7838,164.7463 L313.1888,156.1883 C312.5868,155.2683 312.8478,154.0223 313.7678,153.4203 L329.8058,142.9343 C330.7258,142.3323 331.9718,142.5933 332.5738,143.5143 L338.1688,152.0713 L338.1688,152.0713 Z" id="Stroke-59"></path>
            <path d="M165.3416,285.5844 C165.9436,286.5054 165.6826,287.7504 164.7626,288.3524 L156.2046,293.9484 C155.2846,294.5494 154.0386,294.2894 153.4366,293.3684 L147.8416,284.8114 C147.2396,283.8904 147.5006,282.6444 148.4206,282.0424 L156.9776,276.4474 C157.8986,275.8454 159.1446,276.1064 159.7466,277.0274 L165.3416,285.5844 L165.3416,285.5844 Z" id="Stroke-61"></path>
            <path d="M149.4882,295.95 C150.0902,296.871 149.8292,298.116 148.9092,298.718 L132.4912,309.453 C131.5702,310.055 130.3252,309.794 129.7232,308.873 L124.1282,300.316 C123.5262,299.395 123.7862,298.149 124.7072,297.548 L141.1242,286.813 C142.0452,286.211 143.2912,286.472 143.8932,287.393 L149.4882,295.95 L149.4882,295.95 Z" id="Stroke-63"></path>
            <path d="M180.5268,275.6558 C181.1288,276.5768 180.8678,277.8218 179.9478,278.4238 L171.3898,284.0198 C170.4698,284.6208 169.2238,284.3608 168.6218,283.4398 L163.0268,274.8828 C162.4248,273.9618 162.6858,272.7158 163.6058,272.1138 L172.1638,266.5188 C173.0838,265.9168 174.3298,266.1778 174.9318,267.0988 L180.5268,275.6558 L180.5268,275.6558 Z" id="Stroke-65"></path>
            <path d="M195.712,265.7271 C196.314,266.6481 196.053,267.8931 195.133,268.4951 L186.575,274.0911 C185.655,274.6921 184.409,274.4321 183.807,273.5111 L178.212,264.9541 C177.61,264.0331 177.871,262.7871 178.791,262.1851 L187.348,256.5901 C188.269,255.9881 189.515,256.2491 190.117,257.1701 L195.712,265.7271 L195.712,265.7271 Z" id="Stroke-67"></path>
            <path d="M210.8972,255.7985 C211.4992,256.7195 211.2382,257.9645 210.3182,258.5665 L201.7602,264.1625 C200.8402,264.7635 199.5942,264.5035 198.9922,263.5825 L193.3972,255.0255 C192.7952,254.1045 193.0562,252.8585 193.9762,252.2565 L202.5332,246.6615 C203.4542,246.0595 204.7002,246.3205 205.3022,247.2415 L210.8972,255.7985 L210.8972,255.7985 Z" id="Stroke-69"></path>
            <path d="M226.0824,245.8699 C226.6844,246.7909 226.4234,248.0359 225.5034,248.6379 L216.9454,254.2339 C216.0254,254.8349 214.7794,254.5749 214.1774,253.6539 L208.5824,245.0969 C207.9804,244.1759 208.2414,242.9299 209.1614,242.3279 L217.7184,236.7329 C218.6394,236.1309 219.8854,236.3919 220.4874,237.3129 L226.0824,245.8699 L226.0824,245.8699 Z" id="Stroke-71"></path>
            <path d="M241.2677,235.9412 C241.8697,236.8622 241.6087,238.1072 240.6887,238.7092 L232.1307,244.3052 C231.2107,244.9062 229.9647,244.6462 229.3627,243.7252 L223.7677,235.1682 C223.1657,234.2472 223.4267,233.0012 224.3467,232.3992 L232.9037,226.8042 C233.8247,226.2022 235.0707,226.4632 235.6727,227.3842 L241.2677,235.9412 L241.2677,235.9412 Z" id="Stroke-73"></path>
            <path d="M256.4529,226.0126 C257.0549,226.9336 256.7939,228.1786 255.8739,228.7806 L247.3159,234.3766 C246.3959,234.9776 245.1499,234.7176 244.5479,233.7966 L238.9529,225.2396 C238.3509,224.3186 238.6119,223.0726 239.5319,222.4706 L248.0899,216.8756 C249.0099,216.2736 250.2559,216.5346 250.8579,217.4556 L256.4529,226.0126 L256.4529,226.0126 Z" id="Stroke-75"></path>
            <path d="M271.6381,216.084 C272.2401,217.005 271.9791,218.25 271.0591,218.852 L262.5011,224.447 C261.5811,225.049 260.3351,224.789 259.7331,223.868 L254.1381,215.311 C253.5361,214.39 253.7971,213.144 254.7171,212.542 L263.2751,206.947 C264.1951,206.345 265.4411,206.606 266.0431,207.527 L271.6381,216.084 L271.6381,216.084 Z" id="Stroke-77"></path>
            <path d="M286.8233,206.1554 C287.4253,207.0764 287.1643,208.3214 286.2443,208.9234 L277.6863,214.5194 C276.7663,215.1204 275.5203,214.8604 274.9183,213.9394 L269.3233,205.3824 C268.7213,204.4614 268.9823,203.2154 269.9023,202.6134 L278.4603,197.0184 C279.3803,196.4164 280.6263,196.6774 281.2283,197.5984 L286.8233,206.1554 L286.8233,206.1554 Z" id="Stroke-79"></path>
            <path d="M302.0085,196.2267 C302.6105,197.1477 302.3495,198.3927 301.4295,198.9947 L292.8715,204.5907 C291.9515,205.1917 290.7055,204.9317 290.1035,204.0107 L284.5085,195.4537 C283.9065,194.5327 284.1675,193.2867 285.0875,192.6847 L293.6445,187.0897 C294.5655,186.4877 295.8115,186.7487 296.4135,187.6697 L302.0085,196.2267 L302.0085,196.2267 Z" id="Stroke-81"></path>
            <path d="M317.1937,186.2981 C317.7957,187.2191 317.5347,188.4641 316.6147,189.0661 L308.0567,194.6621 C307.1367,195.2631 305.8907,195.0031 305.2887,194.0821 L299.6937,185.5251 C299.0917,184.6041 299.3527,183.3581 300.2727,182.7561 L308.8297,177.1611 C309.7507,176.5591 310.9967,176.8201 311.5987,177.7411 L317.1937,186.2981 L317.1937,186.2981 Z" id="Stroke-83"></path>
            <path d="M332.3789,176.3695 C332.9809,177.2905 332.7199,178.5355 331.7999,179.1375 L323.2419,184.7325 C322.3219,185.3345 321.0759,185.0745 320.4739,184.1535 L314.8789,175.5965 C314.2769,174.6755 314.5379,173.4295 315.4579,172.8275 L324.0149,167.2325 C324.9359,166.6305 326.1819,166.8915 326.7839,167.8125 L332.3789,176.3695 L332.3789,176.3695 Z" id="Stroke-85"></path>
            <path d="M347.5641,166.4408 C348.1661,167.3618 347.9051,168.6068 346.9851,169.2088 L338.4271,174.8038 C337.5071,175.4058 336.2611,175.1458 335.6591,174.2248 L330.0641,165.6678 C329.4621,164.7468 329.7231,163.5008 330.6431,162.8988 L339.2001,157.3038 C340.1211,156.7018 341.3671,156.9628 341.9691,157.8838 L347.5641,166.4408 L347.5641,166.4408 Z" id="Stroke-87"></path>
            <path d="M178.4769,297.5086 C179.0789,298.4296 178.8179,299.6746 177.8979,300.2766 L169.3399,305.8726 C168.4199,306.4736 167.1739,306.2136 166.5719,305.2926 L160.9769,296.7356 C160.3749,295.8146 160.6359,294.5686 161.5559,293.9666 L170.1129,288.3716 C171.0339,287.7696 172.2799,288.0306 172.8819,288.9516 L178.4769,297.5086 L178.4769,297.5086 Z" id="Stroke-89"></path>
            <path d="M162.8317,307.738 C163.4337,308.659 163.1727,309.904 162.2527,310.506 L141.8867,323.822 C140.9657,324.424 139.7197,324.163 139.1177,323.243 L133.5227,314.685 C132.9207,313.765 133.1817,312.519 134.1027,311.917 L154.4677,298.601 C155.3887,297.999 156.6347,298.26 157.2367,299.181 L162.8317,307.738 L162.8317,307.738 Z" id="Stroke-91"></path>
            <path d="M193.6621,287.58 C194.2641,288.501 194.0031,289.746 193.0831,290.348 L184.5251,295.943 C183.6051,296.545 182.3591,296.285 181.7571,295.364 L176.1621,286.807 C175.5601,285.886 175.8211,284.64 176.7411,284.038 L185.2981,278.443 C186.2191,277.841 187.4651,278.102 188.0671,279.023 L193.6621,287.58 L193.6621,287.58 Z" id="Stroke-93"></path>
            <path d="M208.8473,277.6513 C209.4493,278.5723 209.1883,279.8173 208.2683,280.4193 L199.7103,286.0153 C198.7903,286.6163 197.5443,286.3563 196.9423,285.4353 L191.3473,276.8783 C190.7453,275.9573 191.0063,274.7113 191.9263,274.1093 L200.4833,268.5143 C201.4043,267.9123 202.6503,268.1733 203.2523,269.0943 L208.8473,277.6513 L208.8473,277.6513 Z" id="Stroke-95"></path>
            <path d="M224.0325,267.7227 C224.6345,268.6437 224.3735,269.8887 223.4535,270.4907 L214.8955,276.0867 C213.9755,276.6877 212.7295,276.4277 212.1275,275.5067 L206.5325,266.9497 C205.9305,266.0287 206.1915,264.7827 207.1115,264.1807 L215.6685,258.5857 C216.5895,257.9837 217.8355,258.2447 218.4375,259.1657 L224.0325,267.7227 L224.0325,267.7227 Z" id="Stroke-97"></path>
            <path d="M239.2177,257.7941 C239.8197,258.7151 239.5587,259.9601 238.6387,260.5621 L230.0807,266.1581 C229.1607,266.7591 227.9147,266.4991 227.3127,265.5781 L221.7177,257.0211 C221.1157,256.1001 221.3767,254.8541 222.2967,254.2521 L230.8547,248.6571 C231.7747,248.0551 233.0207,248.3161 233.6227,249.2371 L239.2177,257.7941 L239.2177,257.7941 Z" id="Stroke-99"></path>
            <path d="M254.403,247.8654 C255.005,248.7864 254.744,250.0314 253.824,250.6334 L245.266,256.2294 C244.346,256.8304 243.1,256.5704 242.498,255.6494 L236.903,247.0924 C236.301,246.1714 236.562,244.9254 237.482,244.3234 L246.039,238.7284 C246.96,238.1264 248.206,238.3874 248.808,239.3084 L254.403,247.8654 L254.403,247.8654 Z" id="Stroke-101"></path>
            <path d="M269.5882,237.9368 C270.1902,238.8578 269.9292,240.1028 269.0092,240.7048 L260.4512,246.3008 C259.5312,246.9018 258.2852,246.6418 257.6832,245.7208 L252.0882,237.1638 C251.4862,236.2428 251.7472,234.9968 252.6672,234.3948 L261.2252,228.7998 C262.1452,228.1978 263.3912,228.4588 263.9932,229.3798 L269.5882,237.9368 L269.5882,237.9368 Z" id="Stroke-103"></path>
            <path d="M284.7734,228.0082 C285.3754,228.9292 285.1144,230.1742 284.1944,230.7762 L275.6364,236.3722 C274.7164,236.9732 273.4704,236.7132 272.8684,235.7922 L267.2734,227.2352 C266.6714,226.3142 266.9324,225.0682 267.8524,224.4662 L276.4094,218.8712 C277.3304,218.2692 278.5764,218.5302 279.1784,219.4512 L284.7734,228.0082 L284.7734,228.0082 Z" id="Stroke-105"></path>
            <path d="M299.9586,218.0795 C300.5606,219.0005 300.2996,220.2455 299.3796,220.8475 L290.8216,226.4435 C289.9016,227.0445 288.6556,226.7845 288.0536,225.8635 L282.4586,217.3065 C281.8566,216.3855 282.1176,215.1395 283.0376,214.5375 L291.5946,208.9425 C292.5156,208.3405 293.7616,208.6015 294.3636,209.5225 L299.9586,218.0795 L299.9586,218.0795 Z" id="Stroke-107"></path>
            <path d="M315.1438,208.1509 C315.7458,209.0719 315.4848,210.3169 314.5648,210.9189 L306.0068,216.5149 C305.0868,217.1159 303.8408,216.8559 303.2388,215.9349 L297.6438,207.3779 C297.0418,206.4569 297.3028,205.2109 298.2228,204.6089 L306.7798,199.0139 C307.7008,198.4119 308.9468,198.6729 309.5488,199.5939 L315.1438,208.1509 L315.1438,208.1509 Z" id="Stroke-109"></path>
            <path d="M330.329,198.2223 C330.931,199.1433 330.67,200.3883 329.75,200.9903 L321.192,206.5863 C320.272,207.1873 319.026,206.9273 318.424,206.0063 L312.829,197.4493 C312.227,196.5283 312.488,195.2823 313.408,194.6803 L321.965,189.0853 C322.886,188.4833 324.132,188.7443 324.734,189.6653 L330.329,198.2223 L330.329,198.2223 Z" id="Stroke-111"></path>
            <path d="M356.9594,180.8103 C357.5614,181.7313 357.3004,182.9763 356.3804,183.5783 L336.3774,196.6573 C335.4564,197.2593 334.2114,196.9983 333.6094,196.0773 L328.0144,187.5203 C327.4124,186.5993 327.6724,185.3543 328.5934,184.7523 L348.5964,171.6733 C349.5164,171.0713 350.7624,171.3323 351.3644,172.2533 L356.9594,180.8103 L356.9594,180.8103 Z" id="Stroke-113"></path>
            <path d="M181.0722,316.3242 C181.6742,317.2452 181.4132,318.4902 180.4932,319.0922 L151.2822,338.1922 C150.3612,338.7932 149.1152,338.5332 148.5132,337.6122 L142.9182,329.0552 C142.3162,328.1342 142.5772,326.8882 143.4982,326.2862 L172.7082,307.1872 C173.6292,306.5852 174.8752,306.8462 175.4772,307.7672 L181.0722,316.3242 L181.0722,316.3242 Z" id="Stroke-115"></path>
            <path d="M196.2574,306.3956 C196.8594,307.3166 196.5984,308.5616 195.6784,309.1636 L187.1204,314.7596 C186.2004,315.3606 184.9544,315.1006 184.3524,314.1796 L178.7574,305.6226 C178.1554,304.7016 178.4164,303.4556 179.3364,302.8536 L187.8934,297.2586 C188.8144,296.6566 190.0604,296.9176 190.6624,297.8386 L196.2574,306.3956 L196.2574,306.3956 Z" id="Stroke-117"></path>
            <path d="M211.4426,296.4669 C212.0446,297.3879 211.7836,298.6329 210.8636,299.2349 L202.3056,304.8309 C201.3856,305.4319 200.1396,305.1719 199.5376,304.2509 L193.9426,295.6939 C193.3406,294.7729 193.6016,293.5269 194.5216,292.9249 L203.0786,287.3299 C203.9996,286.7279 205.2456,286.9889 205.8476,287.9099 L211.4426,296.4669 L211.4426,296.4669 Z" id="Stroke-119"></path>
            <path d="M226.6279,286.5383 C227.2299,287.4593 226.9689,288.7043 226.0489,289.3063 L217.4909,294.9023 C216.5709,295.5033 215.3249,295.2433 214.7229,294.3223 L209.1279,285.7653 C208.5259,284.8443 208.7869,283.5983 209.7069,282.9963 L218.2639,277.4013 C219.1849,276.7993 220.4309,277.0603 221.0329,277.9813 L226.6279,286.5383 L226.6279,286.5383 Z" id="Stroke-121"></path>
            <path d="M241.813,276.6097 C242.415,277.5307 242.154,278.7757 241.234,279.3777 L232.676,284.9737 C231.756,285.5747 230.51,285.3147 229.908,284.3937 L224.313,275.8367 C223.711,274.9157 223.972,273.6697 224.892,273.0677 L233.45,267.4727 C234.37,266.8707 235.616,267.1317 236.218,268.0527 L241.813,276.6097 L241.813,276.6097 Z" id="Stroke-123"></path>
            <path d="M256.9983,266.681 C257.6003,267.602 257.3393,268.847 256.4193,269.449 L247.8613,275.045 C246.9413,275.646 245.6953,275.386 245.0933,274.465 L239.4983,265.908 C238.8963,264.987 239.1573,263.741 240.0773,263.139 L248.6343,257.544 C249.5553,256.942 250.8013,257.203 251.4033,258.124 L256.9983,266.681 L256.9983,266.681 Z" id="Stroke-125"></path>
            <path d="M272.1835,256.7524 C272.7855,257.6734 272.5245,258.9184 271.6045,259.5204 L263.0465,265.1164 C262.1265,265.7174 260.8805,265.4574 260.2785,264.5364 L254.6835,255.9794 C254.0815,255.0584 254.3425,253.8124 255.2625,253.2104 L263.8205,247.6154 C264.7405,247.0134 265.9865,247.2744 266.5885,248.1954 L272.1835,256.7524 L272.1835,256.7524 Z" id="Stroke-127"></path>
            <path d="M287.3687,246.8238 C287.9707,247.7448 287.7097,248.9898 286.7897,249.5918 L278.2317,255.1878 C277.3117,255.7888 276.0657,255.5288 275.4637,254.6078 L269.8687,246.0508 C269.2667,245.1298 269.5277,243.8838 270.4477,243.2818 L279.0047,237.6868 C279.9257,237.0848 281.1717,237.3458 281.7737,238.2668 L287.3687,246.8238 L287.3687,246.8238 Z" id="Stroke-129"></path>
            <path d="M302.5539,236.8951 C303.1559,237.8161 302.8949,239.0611 301.9749,239.6631 L293.4169,245.2591 C292.4969,245.8601 291.2509,245.6001 290.6489,244.6791 L285.0539,236.1221 C284.4519,235.2011 284.7129,233.9551 285.6329,233.3531 L294.1899,227.7581 C295.1109,227.1561 296.3569,227.4171 296.9589,228.3381 L302.5539,236.8951 L302.5539,236.8951 Z" id="Stroke-131"></path>
            <path d="M317.7391,226.9665 C318.3411,227.8875 318.0801,229.1325 317.1601,229.7345 L308.6021,235.3305 C307.6821,235.9315 306.4361,235.6715 305.8341,234.7505 L300.2391,226.1935 C299.6371,225.2725 299.8981,224.0265 300.8181,223.4245 L309.3751,217.8295 C310.2961,217.2275 311.5421,217.4885 312.1441,218.4095 L317.7391,226.9665 L317.7391,226.9665 Z" id="Stroke-133"></path>
            <path d="M332.9243,217.0379 C333.5263,217.9589 333.2653,219.2039 332.3453,219.8059 L323.7873,225.4019 C322.8673,226.0029 321.6213,225.7429 321.0193,224.8219 L315.4243,216.2649 C314.8223,215.3439 315.0833,214.0979 316.0033,213.4959 L324.5603,207.9009 C325.4813,207.2989 326.7273,207.5599 327.3293,208.4809 L332.9243,217.0379 L332.9243,217.0379 Z" id="Stroke-135"></path>
            <path d="M366.3547,195.1799 C366.9567,196.1009 366.6957,197.3459 365.7757,197.9479 L338.9727,215.4729 C338.0517,216.0749 336.8067,215.8139 336.2047,214.8929 L330.6087,206.3359 C330.0077,205.4149 330.2677,204.1699 331.1887,203.5679 L357.9907,186.0429 C358.9117,185.4409 360.1577,185.7019 360.7597,186.6229 L366.3547,195.1799 L366.3547,195.1799 Z" id="Stroke-137"></path>
            <path d="M186.0475,333.5837 C186.6495,334.5047 186.3885,335.7497 185.4685,336.3517 L176.9105,341.9477 C175.9905,342.5487 174.7445,342.2887 174.1425,341.3677 L168.5475,332.8107 C167.9455,331.8897 168.2065,330.6437 169.1265,330.0417 L177.6835,324.4467 C178.6045,323.8447 179.8505,324.1057 180.4525,325.0267 L186.0475,333.5837 L186.0475,333.5837 Z" id="Stroke-139"></path>
            <path d="M169.814,344.1977 C170.416,345.1187 170.155,346.3637 169.235,346.9657 L160.677,352.5617 C159.757,353.1627 158.511,352.9027 157.909,351.9817 L152.314,343.4247 C151.712,342.5037 151.973,341.2577 152.893,340.6557 L161.45,335.0607 C162.371,334.4587 163.617,334.7197 164.219,335.6407 L169.814,344.1977 L169.814,344.1977 Z" id="Stroke-141"></path>
            <path d="M201.2327,323.655 C201.8347,324.576 201.5737,325.821 200.6537,326.423 L192.0957,332.019 C191.1757,332.62 189.9297,332.36 189.3277,331.439 L183.7327,322.882 C183.1307,321.961 183.3917,320.715 184.3117,320.113 L192.8687,314.518 C193.7897,313.916 195.0357,314.177 195.6377,315.098 L201.2327,323.655 L201.2327,323.655 Z" id="Stroke-143"></path>
            <path d="M220.838,310.8364 C221.44,311.7574 221.179,313.0024 220.259,313.6044 L206.87,322.3594 C205.949,322.9614 204.703,322.7004 204.101,321.7794 L198.506,313.2224 C197.904,312.3014 198.165,311.0554 199.086,310.4534 L212.474,301.6994 C213.395,301.0974 214.641,301.3584 215.243,302.2794 L220.838,310.8364 L220.838,310.8364 Z" id="Stroke-145"></path>
            <path d="M296.764,261.1933 C297.366,262.1143 297.105,263.3593 296.185,263.9613 L226.886,309.2713 C225.966,309.8733 224.72,309.6123 224.118,308.6923 L218.523,300.1343 C217.921,299.2143 218.182,297.9683 219.102,297.3663 L288.401,252.0563 C289.321,251.4543 290.567,251.7153 291.169,252.6363 L296.764,261.1933 L296.764,261.1933 Z" id="Stroke-147"></path>
            <polygon id="Stroke-149" points="359.5461 329.224 274.3871 384.904 234.4151 323.768 319.5731 268.089"></polygon>
            <path d="M315.0092,249.2639 C315.6112,250.1849 315.3502,251.4299 314.4302,252.0319 L302.8122,259.6279 C301.8922,260.2299 300.6462,259.9689 300.0442,259.0489 L294.4492,250.4909 C293.8472,249.5709 294.1082,248.3249 295.0282,247.7229 L306.6462,240.1269 C307.5662,239.5249 308.8122,239.7859 309.4142,240.7069 L315.0092,249.2639 L315.0092,249.2639 Z" id="Stroke-151"></path>
            <path d="M330.1944,239.3353 C330.7964,240.2563 330.5354,241.5013 329.6154,242.1033 L321.0574,247.6993 C320.1374,248.3003 318.8914,248.0403 318.2894,247.1193 L312.6944,238.5623 C312.0924,237.6413 312.3534,236.3953 313.2734,235.7933 L321.8314,230.1983 C322.7514,229.5963 323.9974,229.8573 324.5994,230.7783 L330.1944,239.3353 L330.1944,239.3353 Z" id="Stroke-153"></path>
            <path d="M345.3796,229.4067 C345.9816,230.3277 345.7206,231.5727 344.8006,232.1747 L336.2426,237.7707 C335.3226,238.3717 334.0766,238.1117 333.4746,237.1907 L331.6966,234.4717 C331.0946,233.5507 331.3556,232.3057 332.2766,231.7037 L340.8336,226.1087 C341.7546,225.5067 342.9996,225.7667 343.6016,226.6877 L345.3796,229.4067 L345.3796,229.4067 Z" id="Stroke-155"></path>
            <path d="M360.5648,219.478 C361.1668,220.399 360.9058,221.644 359.9858,222.246 L351.4278,227.842 C350.5078,228.443 349.2618,228.183 348.6598,227.262 L343.0648,218.705 C342.4628,217.784 342.7238,216.538 343.6438,215.936 L352.2018,210.341 C353.1218,209.739 354.3678,210 354.9698,210.921 L360.5648,219.478 L360.5648,219.478 Z" id="Stroke-157"></path>
            <path d="M375.75,209.5494 C376.352,210.4704 376.091,211.7154 375.171,212.3174 L366.613,217.9134 C365.693,218.5144 364.447,218.2544 363.845,217.3334 L362.067,214.6144 C361.465,213.6934 361.726,212.4484 362.647,211.8464 L371.204,206.2514 C372.125,205.6494 373.37,205.9094 373.972,206.8304 L375.75,209.5494 L375.75,209.5494 Z" id="Stroke-159"></path>
            <path d="M81.1241,269.8475 C78.6091,269.6675 76.0901,268.6665 74.2531,266.9175 L3.5691,199.6255 C-1.0069,195.2695 -1.2239,189.3095 3.1551,186.4465 L286.5261,1.1685 C290.9051,-1.6945 296.2771,0.8945 298.4331,6.8335 L331.7281,98.5705 C332.5931,100.9555 332.5001,103.6645 331.6561,106.0405" id="Stroke-161"></path>
            <path d="M87.1431,250.7617 C85.7461,251.6747 83.8271,251.4027 82.4821,250.0997 L21.4231,190.9597 C20.6651,190.2247 20.7841,188.9777 21.6671,188.4007 L280.8911,18.9097 C281.7741,18.3327 282.9651,18.7237 283.3331,19.7127 L313.0211,99.3647 C313.6751,101.1197 313.1551,102.9867 311.7591,103.8997 L87.1431,250.7617 L87.1431,250.7617 Z" id="Stroke-163"></path>
            <polygon id="Stroke-165" points="311.5141 127.2457 108.6271 259.9007 103.7791 252.4847 306.6661 119.8307"></polygon>
        </g>
    </g>
</svg>