<?xml version="1.0" encoding="UTF-8" standalone="no"?>
<svg width="107px" height="107px" viewBox="0 0 107 107" version="1.1" xmlns="http://www.w3.org/2000/svg" xmlns:xlink="http://www.w3.org/1999/xlink">
    <!-- Generator: Sketch 3.8.2 (29753) - http://www.bohemiancoding.com/sketch -->
    <title>logo+tagline</title>
    <desc>Created with Sketch.</desc>
    <defs></defs>
    <g id="Page-1" stroke="none" stroke-width="1" fill="none" fill-rule="evenodd">
        <g id="Home-Page" transform="translate(-458.000000, -187.000000)">
            <g id="logo+tagline" transform="translate(458.000000, 187.000000)">
                <path d="M52.7303853,10.009118 C54.719211,12.9397596 58.5015138,8.91501181 57.1272018,5.90719663 C55.7528899,2.88570512 49.4752294,5.13253036 52.7146789,10.0169331 L52.7303853,10.009118 Z M88.4556239,75.6760048 C94.2954679,77.2390137 94.2267523,69.3868479 89.8289541,69.933901 C85.4331193,70.4858385 85.4036697,74.8818009 88.446789,75.6633054 L88.4556239,75.6760048 Z M106.590651,22.6225995 C104.942459,4.25333787 89.6650183,-5.27027051 80.4954128,4.84141996 C68.3769266,18.1924463 72.526367,51.0634996 54.1145138,60.3282346 C35.7036422,69.6252067 15.0938716,58.4135488 15.0938716,41.4578332 C15.0938716,24.5021177 28.0104404,16.5718015 32.1323945,15.2051456 C36.2543486,13.836536 42.904055,13.5268648 44.2214312,11.3757739 C45.5388073,9.22468294 45.8706055,2.89742768 31.5816881,3.99153389 C24.7866972,4.51123433 10.1129725,11.4597856 3.82647706,24.229568 C-3.11085321,38.3191161 -0.772559633,58.8111392 12.366844,68.7753207 C36.3250275,87.1406748 58.5044587,75.6134845 66.7758532,66.5880851 C75.0197615,57.5636627 79.1407339,44.4353651 87.6595046,46.0765244 C96.1792569,47.7372214 89.3283119,58.6782834 92.8622569,60.3389803 C96.4246697,61.9869778 108.276147,40.9840462 106.607339,22.618692 L106.590651,22.6225995 Z M87.9461468,39.4063841 C79.5108165,42.3370257 88.3221193,18.9133841 92.9928165,24.7189852 C97.6644954,30.5314244 92.8642202,37.6626523 87.9559633,39.4210373 L87.9461468,39.4063841 Z" id="Combined-Shape" fill="#951D1D"></path>
                <path d="M15.0773907,106 L15.0773907,95.5123355 L18.3043644,95.5123355 C19.2263615,95.5123355 20.0511044,95.7200219 20.7786177,96.1354008 C21.506131,96.5507797 22.0739671,97.1414252 22.4821429,97.9073551 C22.8903187,98.6732849 23.0944035,99.5436467 23.0944035,100.518467 L23.0944035,101.001072 C23.0944035,101.975892 22.8939201,102.842652 22.4929475,103.601379 C22.0919748,104.360106 21.5265397,104.94835 20.7966254,105.36613 C20.066711,105.78391 19.2431686,105.995198 18.3259736,106 L15.0773907,106 Z M17.2383106,97.2626806 L17.2383106,104.264061 L18.2827552,104.264061 C19.1279192,104.264061 19.7737877,103.987946 20.2203801,103.435708 C20.6669724,102.883471 20.8950672,102.093542 20.9046713,101.0659 L20.9046713,100.511264 C20.9046713,99.4452044 20.6837795,98.6372685 20.2419893,98.0874317 C19.800199,97.5375949 19.1543305,97.2626806 18.3043644,97.2626806 L17.2383106,97.2626806 Z M35.974558,101.454865 L31.8255918,101.454865 L31.8255918,104.264061 L36.6948646,104.264061 L36.6948646,106 L29.6646719,106 L29.6646719,95.5123355 L36.6804585,95.5123355 L36.6804585,97.2626806 L31.8255918,97.2626806 L31.8255918,99.7621446 L35.974558,99.7621446 L35.974558,101.454865 Z M48.4009193,103.248429 C48.4009193,102.840253 48.2568594,102.526923 47.9687353,102.308429 C47.6806112,102.089934 47.1619956,101.859439 46.412873,101.616934 C45.6637504,101.37443 45.0707038,101.13553 44.6337156,100.900229 C43.4428027,100.256752 42.8473552,99.3899916 42.8473552,98.2999222 C42.8473552,97.7332781 43.0070216,97.227868 43.3263591,96.7836767 C43.6456966,96.3394854 44.1042873,95.9925412 44.7021448,95.7428336 C45.3000023,95.4931261 45.9710812,95.3682742 46.7154018,95.3682742 C47.4645244,95.3682742 48.1320019,95.5039306 48.7178542,95.7752474 C49.3037065,96.0465643 49.7586957,96.4295235 50.0828353,96.9241365 C50.4069749,97.4187495 50.5690422,97.9805831 50.5690422,98.609654 L48.4081224,98.609654 C48.4081224,98.1294472 48.2568595,97.756092 47.9543292,97.4895772 C47.6517989,97.2230624 47.2268222,97.089807 46.6793865,97.089807 C46.151159,97.089807 45.7405883,97.2014534 45.4476621,97.4247496 C45.154736,97.6480458 45.0082751,97.9421681 45.0082751,98.3071252 C45.0082751,98.6480721 45.1799464,98.9337908 45.5232943,99.1642901 C45.8666422,99.3947894 46.3720523,99.6108792 47.0395398,99.8125661 C48.2688692,100.182325 49.1644415,100.640916 49.7262835,101.188352 C50.2881255,101.735788 50.5690422,102.417671 50.5690422,103.234023 C50.5690422,104.141613 50.2256995,104.853509 49.5390038,105.369732 C48.852308,105.885954 47.9279237,106.144061 46.7658232,106.144061 C45.9590758,106.144061 45.2243704,105.9964 44.561685,105.701073 C43.8989996,105.405746 43.3935895,105.001177 43.0454395,104.487356 C42.6972896,103.973535 42.5232172,103.378087 42.5232172,102.700996 L44.6913402,102.700996 C44.6913402,103.858294 45.3828276,104.436935 46.7658232,104.436935 C47.2796445,104.436935 47.6806112,104.332491 47.9687353,104.123601 C48.2568594,103.914711 48.4009193,103.62299 48.4009193,103.248429 L48.4009193,103.248429 Z M59.3290428,106 L57.1681229,106 L57.1681229,95.5123355 L59.3290428,95.5123355 L59.3290428,106 Z M74.6294276,104.674636 C74.2404601,105.140436 73.6906315,105.501787 72.9799254,105.758697 C72.2692193,106.015608 71.4816919,106.144061 70.6173197,106.144061 C69.7097288,106.144061 68.9137979,105.945979 68.2295032,105.549808 C67.5452085,105.153638 67.0169889,104.578599 66.6448286,103.824674 C66.2726683,103.070749 66.081789,102.184781 66.0721849,101.166743 L66.0721849,100.453639 C66.0721849,99.4067881 66.2486582,98.5004113 66.6016102,97.7344815 C66.9545622,96.9685516 67.4635738,96.3827081 68.1286603,95.9769333 C68.7937467,95.5711585 69.5728706,95.3682742 70.4660553,95.3682742 C71.7097909,95.3682742 72.6821952,95.6647975 73.3832971,96.2578529 C74.0843991,96.8509083 74.4997717,97.7140671 74.6294276,98.8473552 L72.5261322,98.8473552 C72.4300909,98.2470967 72.2176025,97.807714 71.8886609,97.5291941 C71.5597192,97.2506741 71.1071311,97.1114162 70.5308829,97.1114162 C69.7961664,97.1114162 69.2367339,97.387531 68.8525684,97.9397689 C68.468403,98.4920067 68.2739221,99.313148 68.2691201,100.403218 L68.2691201,101.073103 C68.2691201,102.172776 68.4780069,103.003522 68.8957868,103.565364 C69.3135668,104.127206 69.9258213,104.408122 70.7325687,104.408122 C71.5441182,104.408122 72.1227588,104.23525 72.4685077,103.889502 L72.4685077,102.081532 L70.5020706,102.081532 L70.5020706,100.489654 L74.6294276,100.489654 L74.6294276,104.674636 Z M89.9082031,106 L87.7472832,106 L83.5406926,99.0994625 L83.5406926,106 L81.3797727,106 L81.3797727,95.5123355 L83.5406926,95.5123355 L87.7544863,102.427279 L87.7544863,95.5123355 L89.9082031,95.5123355 L89.9082031,106 Z" id="DESIGN" fill="#B6B6B6"></path>
            </g>
        </g>
    </g>
</svg>