<?xml version="1.0" encoding="UTF-8" standalone="no"?>
<svg width="30px" height="21px" viewBox="0 0 30 21" version="1.1" xmlns="http://www.w3.org/2000/svg" xmlns:xlink="http://www.w3.org/1999/xlink">
    <!-- Generator: Sketch 39.1 (31720) - http://www.bohemiancoding.com/sketch -->
    <title>mobile-nav</title>
    <desc>Created with Sketch.</desc>
    <defs></defs>
    <g id="Page-1" stroke="none" stroke-width="1" fill="none" fill-rule="evenodd">
        <g id="Works" transform="translate(-930.000000, -200.000000)" fill="#FFFFFF">
            <g id="mobile-nav" transform="translate(930.000000, 200.000000)">
                <path d="M7.89,7 L7.89,0.33 L5.89,0.33 L4.27,4.36 L2.65,0.33 L0.66,0.33 L0.66,7 L2.08,7 L2.08,2.33 L3.96,7 L4.58,7 L6.46,2.33 L6.46,7 L7.89,7 Z M14.2481818,7 L14.2481818,5.75 L10.9481818,5.75 L10.9481818,4.24 L14.1781818,4.24 L14.1781818,2.99 L10.9481818,2.99 L10.9481818,1.58 L14.2481818,1.58 L14.2481818,0.33 L9.52818181,0.33 L9.52818181,7 L14.2481818,7 Z M21.6463636,7 L21.6463636,0.33 L20.2263636,0.33 L20.2263636,4.52 L17.1363636,0.33 L15.6763636,0.33 L15.6763636,7 L17.0963636,7 L17.0963636,2.65 L20.2763636,7 L21.6463636,7 Z M26.2945454,7.12 C28.3245454,7.12 29.3045454,5.99 29.3045454,4.33 L29.3045454,0.33 L27.8545454,0.33 L27.8545454,4.29 C27.8545454,5.22 27.3245454,5.86 26.2945454,5.86 C25.2645454,5.86 24.7245454,5.22 24.7245454,4.29 L24.7245454,0.33 L23.2845454,0.33 L23.2845454,4.34 C23.2845454,5.98 24.2645454,7.12 26.2945454,7.12 L26.2945454,7.12 Z" id="MENU"></path>
                <circle id="Oval" cx="4" cy="19" r="2"></circle>
                <circle id="Oval-Copy" cx="14.6666667" cy="19" r="2"></circle>
                <circle id="Oval-Copy-2" cx="25.3333333" cy="19" r="2"></circle>
            </g>
        </g>
    </g>
</svg>