<?xml version="1.0" encoding="UTF-8" standalone="no"?>
<svg width="31px" height="36px" viewBox="0 0 31 36" version="1.1" xmlns="http://www.w3.org/2000/svg" xmlns:xlink="http://www.w3.org/1999/xlink">
    <!-- Generator: Sketch 39.1 (31720) - http://www.bohemiancoding.com/sketch -->
    <title>mobile-nav</title>
    <desc>Created with Sketch.</desc>
    <defs></defs>
    <g id="Page-1" stroke="none" stroke-width="1" fill="none" fill-rule="evenodd">
        <g id="mobile-nav" fill="#FFFFFF">
            <circle id="Oval-path" cx="26.333" cy="34" r="2"></circle>
            <circle id="Oval-path" cx="15.667" cy="34" r="2"></circle>
            <circle id="Oval-path" cx="5" cy="34" r="2"></circle>
            <g id="menu" transform="translate(1.000000, 15.000000)">
                <path d="M7.23,6.67 L7.23,0 L5.23,0 L3.61,4.03 L1.99,0 L4.4408921e-16,0 L4.4408921e-16,6.67 L1.42,6.67 L1.42,2 L3.3,6.67 L3.92,6.67 L5.8,2 L5.8,6.67 L7.23,6.67 L7.23,6.67 Z M13.588,6.67 L13.588,5.42 L10.288,5.42 L10.288,3.91 L13.518,3.91 L13.518,2.66 L10.288,2.66 L10.288,1.25 L13.588,1.25 L13.588,0 L8.868,0 L8.868,6.67 L13.588,6.67 L13.588,6.67 Z M20.986,6.67 L20.986,0 L19.566,0 L19.566,4.19 L16.476,0 L15.016,0 L15.016,6.67 L16.436,6.67 L16.436,2.32 L19.616,6.67 L20.986,6.67 L20.986,6.67 Z M25.635,6.79 C27.665,6.79 28.645,5.66 28.645,4 L28.645,3.55271368e-15 L27.195,3.55271368e-15 L27.195,3.96 C27.195,4.89 26.665,5.53 25.635,5.53 C24.605,5.53 24.065,4.89 24.065,3.96 L24.065,3.55271368e-15 L22.625,3.55271368e-15 L22.625,4.01 C22.625,5.65 23.605,6.79 25.635,6.79 L25.635,6.79 Z"></path>
            </g>
            <g id="close">
                <path d="M3.5,6.9 C5.02,6.9 5.86,6.09 6.34,5.26 L5.12,4.67 C4.84,5.22 4.24,5.64 3.5,5.64 C2.34,5.64 1.46,4.71 1.46,3.45 C1.46,2.19 2.34,1.26 3.5,1.26 C4.24,1.26 4.84,1.69 5.12,2.23 L6.34,1.63 C5.87,0.8 5.02,0 3.5,0 C1.55,0 0,1.4 0,3.45 C0,5.5 1.55,6.9 3.5,6.9 Z M7.19,6.78 L11.43,6.78 L11.43,5.53 L8.61,5.53 L8.61,0.11 L7.19,0.11 L7.19,6.78 Z M12.1,3.45 C12.1,5.46 13.57,6.9 15.58,6.9 C17.6,6.9 19.07,5.46 19.07,3.45 C19.07,1.44 17.6,0 15.58,0 C13.57,0 12.1,1.44 12.1,3.45 Z M17.61,3.45 C17.61,4.69 16.81,5.64 15.58,5.64 C14.35,5.64 13.56,4.69 13.56,3.45 C13.56,2.2 14.35,1.26 15.58,1.26 C16.81,1.26 17.61,2.2 17.61,3.45 L17.61,3.45 Z M19.62,5.84 C20.24,6.47 21.16,6.9 22.44,6.9 C24.24,6.9 25.11,5.98 25.11,4.76 C25.11,3.28 23.71,2.95 22.61,2.7 C21.84,2.52 21.28,2.38 21.28,1.93 C21.28,1.53 21.62,1.25 22.26,1.25 C22.91,1.25 23.63,1.48 24.17,1.98 L24.96,0.94 C24.3,0.33 23.42,0.01 22.36,0.01 C20.79,0.01 19.83,0.91 19.83,2.02 C19.83,3.51 21.23,3.81 22.32,4.06 C23.09,4.24 23.67,4.41 23.67,4.91 C23.67,5.29 23.29,5.66 22.51,5.66 C21.59,5.66 20.86,5.25 20.39,4.76 L19.62,5.84 L19.62,5.84 Z M26.07,6.78 L30.79,6.78 L30.79,5.55 L27.49,5.55 L27.49,4 L30.72,4 L30.72,2.78 L27.49,2.78 L27.49,1.33 L30.79,1.33 L30.79,0.11 L26.07,0.11 L26.07,6.78 Z"></path>
            </g>
        </g>
    </g>
</svg>