<?xml version="1.0" encoding="UTF-8" standalone="no"?>
<svg width="148px" height="165px" viewBox="0 0 148 165" version="1.1" xmlns="http://www.w3.org/2000/svg" xmlns:xlink="http://www.w3.org/1999/xlink">
    <!-- Generator: Sketch 3.8.2 (29753) - http://www.bohemiancoding.com/sketch -->
    <title>mouse</title>
    <desc>Created with Sketch.</desc>
    <defs></defs>
    <g id="Page-1" stroke="none" stroke-width="1" fill="none" fill-rule="evenodd">
        <g id="mouse" transform="translate(1.000000, 1.000000)" stroke="#898884" stroke-width="2">
            <path d="M77.2771,134.7805 L79.1861,127.0215 C80.7011,127.7225 82.6161,128.2615 84.6821,127.7095 C87.4701,126.9635 88.7941,124.6725 88.0211,121.7815 L82.0001,99.2675 L90.8811,96.8925 L96.9301,119.5105 C99.2081,128.0305 95.0941,133.3355 87.5551,135.3515 C84.0961,136.2765 80.4671,136.3615 77.2771,134.7805 L77.2771,134.7805 Z" id="Stroke-1"></path>
            <path d="M103.1085,127.0973 L104.9495,120.7403 C107.2505,121.8953 111.6685,122.4853 114.6115,121.6983 C116.9865,121.0633 117.7605,120.0263 117.4565,118.8893 C116.5875,115.6363 102.9335,122.7183 100.2545,112.7003 C99.0805,108.3113 101.8285,103.4823 108.7475,101.6313 C112.9295,100.5133 116.8525,100.9033 120.0615,102.1473 L118.4245,108.2283 C116.5395,107.1833 113.3545,106.6513 110.3595,107.4523 C108.5005,107.9493 107.4165,109.0693 107.6925,110.1023 C108.4665,112.9943 122.2165,106.2743 124.9515,116.4983 C126.2215,121.2493 122.9775,125.8783 115.8005,127.7983 C111.3595,128.9853 106.3635,128.7173 103.1085,127.0973 L103.1085,127.0973 Z" id="Stroke-3"></path>
            <polyline id="Stroke-5" points="128.9302 82.8644 142.2542 132.6894 30.1922 162.6574 0.2242 50.5954 80.2782 29.1874"></polyline>
            <path d="M131.3445,81.8909 L131.3445,81.8909 C119.1615,87.6289 104.4985,82.3559 98.7595,70.1729 L82.1495,34.9059 C76.4115,22.7229 81.6845,8.0599 93.8675,2.3219 L93.8675,2.3219 C106.0515,-3.4171 120.7145,1.8569 126.4525,14.0399 L143.0625,49.3059 C148.8015,61.4899 143.5275,76.1529 131.3445,81.8909 L131.3445,81.8909 Z" id="Stroke-7"></path>
            <path d="M105.1261,21.0951 C105.6401,22.1871 105.1721,23.4891 104.0801,24.0041 C102.9881,24.5181 101.6861,24.0501 101.1711,22.9581 C100.6571,21.8661 101.1251,20.5631 102.2171,20.0491 C103.3091,19.5351 104.6121,20.0031 105.1261,21.0951 L105.1261,21.0951 Z" id="Stroke-9"></path>
        </g>
    </g>
</svg>