<?xml version="1.0" encoding="UTF-8" standalone="no"?>
<svg width="18px" height="23px" viewBox="0 0 18 23" version="1.1" xmlns="http://www.w3.org/2000/svg" xmlns:xlink="http://www.w3.org/1999/xlink">
    <!-- Generator: Sketch 39.1 (31720) - http://www.bohemiancoding.com/sketch -->
    <title>pinterest</title>
    <desc>Created with Sketch.</desc>
    <defs></defs>
    <g id="Page-1" stroke="none" stroke-width="1" fill="none" fill-rule="evenodd">
        <g id="About-+-Contact" transform="translate(-1126.000000, -825.000000)" fill="#B7AE9D">
            <path d="M1126,833.424107 C1126,832.459817 1126.16741,831.551344 1126.50223,830.698661 C1126.83706,829.845978 1127.2991,829.102682 1127.88839,828.46875 C1128.47768,827.834818 1129.15625,827.285717 1129.92411,826.821429 C1130.69197,826.357141 1131.51785,826.00893 1132.40179,825.776786 C1133.28572,825.544642 1134.1875,825.428571 1135.10714,825.428571 C1136.51786,825.428571 1137.83035,825.725443 1139.04464,826.319196 C1140.25893,826.912949 1141.24553,827.77678 1142.00446,828.910714 C1142.7634,830.044649 1143.14286,831.325886 1143.14286,832.754464 C1143.14286,833.611611 1143.05804,834.450889 1142.88839,835.272321 C1142.71875,836.093754 1142.45089,836.883925 1142.08482,837.642857 C1141.71875,838.40179 1141.27232,839.069194 1140.74554,839.645089 C1140.21875,840.220985 1139.57143,840.680802 1138.80357,841.024554 C1138.03571,841.368305 1137.19197,841.540179 1136.27232,841.540179 C1135.66518,841.540179 1135.0625,841.397323 1134.46429,841.111607 C1133.86607,840.825891 1133.4375,840.433038 1133.17857,839.933036 C1133.08929,840.281252 1132.96429,840.783479 1132.80357,841.439732 C1132.64286,842.095985 1132.53795,842.520088 1132.48884,842.712054 C1132.43973,842.904019 1132.34821,843.22098 1132.21429,843.662946 C1132.08036,844.104913 1131.96429,844.421874 1131.86607,844.613839 C1131.76786,844.805805 1131.625,845.08482 1131.4375,845.450893 C1131.25,845.816966 1131.04464,846.162945 1130.82143,846.488839 C1130.59821,846.814734 1130.32143,847.200891 1129.99107,847.647321 L1129.80357,847.714286 L1129.68304,847.580357 C1129.54911,846.178564 1129.48214,845.339287 1129.48214,845.0625 C1129.48214,844.241067 1129.57812,843.319202 1129.77009,842.296875 C1129.96205,841.274548 1130.25893,839.991079 1130.66071,838.446429 C1131.0625,836.901778 1131.29464,835.995537 1131.35714,835.727679 C1131.07143,835.147319 1130.92857,834.392862 1130.92857,833.464286 C1130.92857,832.723211 1131.16071,832.026789 1131.625,831.375 C1132.08929,830.723211 1132.67857,830.397321 1133.39286,830.397321 C1133.9375,830.397321 1134.36161,830.578123 1134.66518,830.939732 C1134.96875,831.301341 1135.12054,831.758926 1135.12054,832.3125 C1135.12054,832.901789 1134.92411,833.754459 1134.53125,834.870536 C1134.13839,835.986613 1133.94196,836.821426 1133.94196,837.375 C1133.94196,837.937503 1134.14286,838.404016 1134.54464,838.774554 C1134.94643,839.145091 1135.43303,839.330357 1136.00446,839.330357 C1136.49554,839.330357 1136.95089,839.218751 1137.37054,838.995536 C1137.79018,838.77232 1138.14062,838.468752 1138.42188,838.084821 C1138.70313,837.700891 1138.95312,837.276788 1139.17188,836.8125 C1139.39063,836.348212 1139.56027,835.854913 1139.6808,835.332589 C1139.80134,834.810265 1139.89062,834.314734 1139.94866,833.845982 C1140.0067,833.37723 1140.03571,832.933038 1140.03571,832.513393 C1140.03571,830.968742 1139.54688,829.765629 1138.5692,828.904018 C1137.59151,828.042406 1136.31697,827.611607 1134.74554,827.611607 C1132.95981,827.611607 1131.46876,828.189726 1130.27232,829.345982 C1129.07589,830.502238 1128.47768,831.968741 1128.47768,833.745536 C1128.47768,834.138395 1128.53348,834.517855 1128.64509,834.883929 C1128.7567,835.250002 1128.87723,835.540178 1129.0067,835.754464 C1129.13616,835.968751 1129.2567,836.171874 1129.3683,836.363839 C1129.47991,836.555805 1129.53571,836.691964 1129.53571,836.772321 C1129.53571,837.022323 1129.46875,837.348212 1129.33482,837.75 C1129.20089,838.151788 1129.03572,838.352679 1128.83929,838.352679 C1128.82143,838.352679 1128.74554,838.339286 1128.61161,838.3125 C1128.15625,838.178571 1127.75223,837.928573 1127.39955,837.5625 C1127.04687,837.196427 1126.77455,836.774556 1126.58259,836.296875 C1126.39062,835.819194 1126.24554,835.337056 1126.14732,834.850446 C1126.04911,834.363837 1126,833.888395 1126,833.424107 L1126,833.424107 Z" id="pinterest"></path>
        </g>
    </g>
</svg>