<?xml version="1.0" encoding="UTF-8" standalone="no"?>
<svg width="57px" height="51px" viewBox="0 0 57 51" version="1.1" xmlns="http://www.w3.org/2000/svg" xmlns:xlink="http://www.w3.org/1999/xlink">
    <!-- Generator: Sketch 39.1 (31720) - http://www.bohemiancoding.com/sketch -->
    <title>sketch</title>
    <desc>Created with Sketch.</desc>
    <defs></defs>
    <g id="Page-1" stroke="none" stroke-width="1" fill="none" fill-rule="evenodd" stroke-linecap="round" stroke-linejoin="round">
        <g id="sketch" transform="translate(1.000000, 1.000000)" stroke-width="2" stroke="#BBBDBF">
            <polyline id="Stroke-1" points="27.106841 22.0249178 10 22 27.0677427 48.8538643"></polyline>
            <polyline id="Stroke-3" points="27.3562754 0.0143775636 17.4695114 0 8 4.18165838 10.2179936 22.0383361 36.9381003 8.61391846"></polyline>
            <polyline id="Stroke-6" points="26.5940376 9.01402717 17 9 43.7115228 22.5023813"></polyline>
            <polyline id="Stroke-7" points="27.0390983 22 44.1459393 22.0249178 27 48.8289464"></polyline>
            <polyline id="Stroke-9" points="36.6579182 8.43226008 54.1145562 12.848044 46.4204269 4.05642115 36.6579182 8.43226008 44.1503553 21.9062083 54.1145562 12.848044 27.0055543 48.7105419 0 12.7688832 9.93781154 21.8566777 17.4691214 8.4046224 7.71981789 4 0 12.7688832 17.4691214 8.4046224"></polyline>
            <polyline id="Stroke-12" points="26.6062502 0 36.4930142 0.0143775636 45.9501671 4.22298028 43.6805121 22.0734892 17 8.57148656"></polyline>
            <polyline id="Stroke-13" points="27.1566632 9 36.7507007 9.01402717 10 22.4387877"></polyline>
        </g>
    </g>
</svg>