<?xml version="1.0" encoding="UTF-8" standalone="no"?>
<svg width="62px" height="61px" viewBox="0 0 62 61" version="1.1" xmlns="http://www.w3.org/2000/svg" xmlns:xlink="http://www.w3.org/1999/xlink">
    <!-- Generator: Sketch 3.8.2 (29753) - http://www.bohemiancoding.com/sketch -->
    <title>sketch</title>
    <desc>Created with Sketch.</desc>
    <defs></defs>
    <g id="Page-1" stroke="none" stroke-width="1" fill="none" fill-rule="evenodd">
        <g id="sketch" transform="translate(3.000000, 0.000000)" stroke-width="2" stroke="#898884">
            <g id="Group-5" transform="translate(5.000000, 0.657200)">
                <polyline id="Stroke-1" points="17.9986 30.7042 0.2356 20.4142 1.8606 58.5622"></polyline>
                <polyline id="Stroke-3" points="31.2609 7.81 20.9949 1.863 8.6449 0.527 0.2359 20.415 36.0589 22.496"></polyline>
            </g>
            <polyline id="Stroke-6" points="31.0968 17.3817 21.1348 11.6107 40.7928 41.6697"></polyline>
            <g id="Group-11" transform="translate(0.000000, 0.657200)">
                <polyline id="Stroke-7" points="22.9986 30.7042 40.7616 40.9942 6.8606 58.5622"></polyline>
                <polyline id="Stroke-9" points="41.0591 22.4956 56.5511 37.5586 53.8301 23.8056 41.0591 22.4956 40.7611 40.9936 56.5511 37.5586 6.8611 58.5626 0.3611 5.0076 5.2361 20.4146 21.1341 10.9536 13.6451 0.5266 0.3611 5.0076 21.1341 10.9536"></polyline>
            </g>
            <polyline id="Stroke-12" points="36.2609 8.4672 46.5269 14.4142 53.8299 24.4622 40.7609 41.6512 21.1349 11.6112"></polyline>
            <polyline id="Stroke-13" points="31.0968 17.3817 41.0588 23.1527 5.2038 21.0537"></polyline>
        </g>
    </g>
</svg>