<?xml version="1.0" encoding="UTF-8" standalone="no"?>
<svg width="62px" height="61px" viewBox="0 0 62 61" version="1.1" xmlns="http://www.w3.org/2000/svg" xmlns:xlink="http://www.w3.org/1999/xlink">
    <!-- Generator: Sketch 39.1 (31720) - http://www.bohemiancoding.com/sketch -->
    <title>sketch</title>
    <desc>Created with Sketch.</desc>
    <defs></defs>
    <g id="Page-1" stroke="none" stroke-width="1" fill="none" fill-rule="evenodd">
        <g id="Home" transform="translate(-1298.000000, -912.000000)" stroke-width="2" stroke="#37342D">
            <g id="sketch" transform="translate(1301.000000, 913.000000)">
                <polyline id="Stroke-1" points="22.9986 30.3614 5.2356 20.0714 6.8606 58.2194"></polyline>
                <polyline id="Stroke-3" points="36.2609 7.4672 25.9949 1.5202 13.6449 0.1842 5.2359 20.0722 41.0589 22.1532"></polyline>
                <polyline id="Stroke-6" points="31.0968 16.3817 21.1348 10.6107 40.7928 40.6697"></polyline>
                <polyline id="Stroke-7" points="22.9986 30.3614 40.7616 40.6514 6.8606 58.2194"></polyline>
                <polyline id="Stroke-9" points="41.0591 22.1528 56.5511 37.2158 53.8301 23.4628 41.0591 22.1528 40.7611 40.6508 56.5511 37.2158 6.8611 58.2198 0.3611 4.6648 5.2361 20.0718 21.1341 10.6108 13.6451 0.1838 0.3611 4.6648 21.1341 10.6108"></polyline>
                <polyline id="Stroke-12" points="36.2609 7.4672 46.5269 13.4142 53.8299 23.4622 40.7609 40.6512 21.1349 10.6112"></polyline>
                <polyline id="Stroke-13" points="31.0968 16.3817 41.0588 22.1527 5.2038 20.0537"></polyline>
            </g>
        </g>
    </g>
</svg>