<?xml version="1.0" encoding="UTF-8" standalone="no"?>
<svg width="18px" height="15px" viewBox="0 0 18 15" version="1.1" xmlns="http://www.w3.org/2000/svg" xmlns:xlink="http://www.w3.org/1999/xlink">
    <!-- Generator: Sketch 39.1 (31720) - http://www.bohemiancoding.com/sketch -->
    <title>twitter</title>
    <desc>Created with Sketch.</desc>
    <defs></defs>
    <g id="Page-1" stroke="none" stroke-width="1" fill="none" fill-rule="evenodd">
        <g id="Home" transform="translate(-246.000000, -2724.000000)" fill="#55ACEE">
            <g id="Group-6" transform="translate(-8.000000, 2561.000000)">
                <g id="twitter" transform="translate(254.000000, 163.000000)">
                    <path d="M17.9268129,12.6533189 C17.2738294,12.3677708 16.5716156,12.1747772 15.8348496,12.087829 C16.5868133,12.5322723 17.1641978,13.2356915 17.4361985,14.0736994 C16.7324259,13.6621897 15.9530543,13.3637011 15.1228937,13.2028091 C14.4587391,13.9002637 13.5119325,14.3362208 12.4641973,14.3362208 C10.4522495,14.3362208 8.82154424,12.729221 8.82154424,10.7468065 C8.82154424,10.4653672 8.85345951,10.191326 8.91582223,9.92877899 C5.88822329,10.0782793 3.20406745,11.5077475 1.40735608,13.6792132 C1.09377591,13.1493065 0.914156732,12.5327843 0.914156732,11.8748423 C0.914156732,10.6293311 1.55699543,9.53083694 2.53473011,8.88688504 C1.93761455,8.90527818 1.3758305,9.06682294 0.884670506,9.33587221 C0.884111956,9.32076859 0.884111956,9.30581857 0.884111956,9.29081734 C0.884111956,7.55134083 2.13993942,6.10088109 3.80623593,5.77090534 C3.50082618,5.68885939 3.17908858,5.64546848 2.84682948,5.64546848 C2.61186192,5.64546848 2.38403861,5.66736873 2.16122925,5.70946688 C2.62509825,4.28345453 3.97015078,3.24552848 5.56448531,3.2164732 C4.31673733,2.25355328 2.74627755,1.67999962 1.03945371,1.67999962 C0.74561762,1.67999962 0.455431588,1.69704879 0.170220545,1.73004636 C1.78300021,0.711601427 3.69752658,0.117542678 5.75493775,0.117542678 C12.4551955,0.117542678 16.1187617,5.58697394 16.1187617,10.3307913 C16.1187617,10.4863459 16.1151246,10.640838 16.1085,10.7947797 C16.8199364,11.3012759 17.4374585,11.9333113 17.9261245,12.6532933" id="path22" transform="translate(9.048517, 7.226882) scale(1, -1) translate(-9.048517, -7.226882) "></path>
                </g>
            </g>
        </g>
    </g>
</svg>