<?xml version="1.0" encoding="UTF-8" standalone="no"?>
<svg width="24px" height="20px" viewBox="0 0 24 20" version="1.1" xmlns="http://www.w3.org/2000/svg" xmlns:xlink="http://www.w3.org/1999/xlink">
    <!-- Generator: Sketch 39.1 (31720) - http://www.bohemiancoding.com/sketch -->
    <title>twitter</title>
    <desc>Created with Sketch.</desc>
    <defs></defs>
    <g id="Page-1" stroke="none" stroke-width="1" fill="none" fill-rule="evenodd">
        <g id="About-+-Contact" transform="translate(-1127.000000, -773.000000)" fill="#55ACEE">
            <g id="twitter" transform="translate(1127.000000, 773.000000)">
                <path d="M23.9024172,16.8710918 C23.0317726,16.4903611 22.0954875,16.2330363 21.1131328,16.1171054 C22.1157511,16.7096964 22.8855971,17.6475887 23.2482647,18.7649325 C22.3099012,18.2162529 21.2707391,17.8182682 20.1638582,17.6037455 C19.2783189,18.5336849 18.01591,19.1149611 16.6189297,19.1149611 C13.9363326,19.1149611 11.762059,16.9722946 11.762059,14.3290754 C11.762059,13.9538229 11.8046127,13.5884347 11.887763,13.238372 C7.85096439,13.4377057 4.27208993,15.3436634 1.87647477,18.238951 C1.45836788,17.5324086 1.21887564,16.7103791 1.21887564,15.8331231 C1.21887564,14.1724414 2.07599391,12.7077826 3.37964015,11.8491801 C2.58348606,11.8737042 1.83444066,12.0890973 1.17956067,12.4478296 C1.17881594,12.4276915 1.17881594,12.4077581 1.17881594,12.3877565 C1.17881594,10.0684544 2.85325256,8.13450812 5.07498125,7.69454045 C4.66776824,7.58514586 4.23878478,7.5272913 3.79577263,7.5272913 C3.48248256,7.5272913 3.17871815,7.55649164 2.88163901,7.6126225 C3.500131,5.7112727 5.29353437,4.3273713 7.41931375,4.28863094 C5.75564978,3.0047377 3.6617034,2.23999949 1.38593828,2.23999949 C0.994156827,2.23999949 0.607242118,2.26273172 0.226960727,2.30672849 C2.37733361,0.948801902 4.93003545,0.156723571 7.67325034,0.156723571 C16.6069274,0.156723571 21.4916823,7.44929859 21.4916823,13.7743885 C21.4916823,13.9817945 21.4868329,14.187784 21.478,14.3930397 C22.4265818,15.0683678 23.2499446,15.9110817 23.9014993,16.8710577" id="path22" transform="translate(12.064689, 9.635842) scale(1, -1) translate(-12.064689, -9.635842) "></path>
            </g>
        </g>
    </g>
</svg>
