<?xml version="1.0" encoding="UTF-8" standalone="no"?>
<svg width="123px" height="117px" viewBox="0 0 123 117" version="1.1" xmlns="http://www.w3.org/2000/svg" xmlns:xlink="http://www.w3.org/1999/xlink">
    <!-- Generator: Sketch 3.8.2 (29753) - http://www.bohemiancoding.com/sketch -->
    <title>wacom</title>
    <desc>Created with Sketch.</desc>
    <defs></defs>
    <g id="Page-1" stroke="none" stroke-width="1" fill="none" fill-rule="evenodd" stroke-linecap="round" stroke-linejoin="round">
        <g id="wacom" transform="translate(1.000000, 1.000000)" stroke="#898884" stroke-width="2">
            <polygon id="Stroke-1" points="118.32 112.6735 119.351 111.5905 111.945 97.2575 107.275 102.1665 102.605 107.0755 117.289 113.7565"></polygon>
            <path d="M111.9446,97.2577 C111.9446,97.2577 111.7896,95.4097 110.4566,94.3537 C109.1226,93.2987 101.0486,88.3807 92.1236,79.8907 C83.1986,71.3997 53.5216,43.1697 53.5216,43.1697 L52.3216,43.0907 L51.6306,41.5827 L13.0586,3.7127 C13.0586,3.7127 11.1416,3.4927 7.5336,7.2867 C3.9256,11.0797 4.2406,12.9827 4.2406,12.9827 L43.9886,49.6157 L45.5286,50.2307 L45.6676,51.4257 C45.6676,51.4257 75.3446,79.6557 84.2696,88.1467 C93.1956,96.6367 98.5096,104.4547 99.6306,105.7337 C100.7516,107.0127 102.6056,107.0757 102.6056,107.0757" id="Stroke-3"></path>
            <path d="M9.5861,5.1287 C4.7521,0.5307 2.6561,-1.1763 0.7471,0.8307 C-1.1619,2.8367 0.6481,4.8457 5.4811,9.4437" id="Stroke-5"></path>
            <path d="M120.3459,114.6007 L120.3459,114.6007 C120.6759,114.2537 120.6619,113.7057 120.3149,113.3757 L118.9169,112.0457 L118.3199,112.6737 L117.7229,113.3017 L119.1209,114.6317 C119.4679,114.9607 120.0159,114.9477 120.3459,114.6007 L120.3459,114.6007 L120.3459,114.6007 Z" id="Stroke-7"></path>
            <path d="M95.6251,91.0846 C96.8101,89.8386 97.3081,88.8706 93.8061,86.3916 C90.7241,84.2096 80.8831,74.4256 79.5891,73.1946 C77.6651,71.3646 76.4521,72.8456 76.4521,72.8456 C76.4521,72.8456 75.0331,74.1316 76.9571,75.9616 C78.2511,77.1926 88.5141,86.5326 90.8471,89.5016 C93.4981,92.8766 94.4401,92.3306 95.6251,91.0846 L95.6251,91.0846 Z" id="Stroke-9"></path>
            <path d="M45.529,50.2307 C46.658,47.7137 48.858,45.5377 52.321,43.0907" id="Stroke-11"></path>
        </g>
    </g>
</svg>